<svg xmlns="http://www.w3.org/2000/svg" xmlns:xlink="http://www.w3.org/1999/xlink" width="200" zoomAndPan="magnify" viewBox="0 0 150 149.999998" height="200" preserveAspectRatio="xMidYMid meet" version="1.0"><defs><clipPath id="b6a832df3e"><path d="M 6.289062 6.289062 L 143.539062 6.289062 L 143.539062 143.539062 L 6.289062 143.539062 Z M 6.289062 6.289062 " clip-rule="nonzero"/></clipPath></defs><g clip-path="url(#b6a832df3e)"><path stroke-linecap="round" transform="matrix(0.485669, 0, 0, 0.485669, -28.337859, -28.337879)" fill="none" stroke-linejoin="round" d="M 350.414796 212.597458 C 350.414796 214.85755 350.358495 217.109599 350.253936 219.361649 C 350.141333 221.613698 349.97243 223.865748 349.755268 226.109754 C 349.530063 228.35376 349.2566 230.589724 348.926835 232.825687 C 348.597071 235.053607 348.211005 237.273484 347.768638 239.485319 C 347.326272 241.697153 346.835647 243.900944 346.28872 246.088649 C 345.741794 248.276354 345.138566 250.447973 344.479038 252.603506 C 343.827552 254.767082 343.119765 256.906529 342.36372 259.02989 C 341.599632 261.153251 340.787285 263.252483 339.926681 265.343671 C 339.066076 267.426817 338.14917 269.485833 337.184006 271.520721 C 336.218842 273.563651 335.20542 275.57441 334.14374 277.569082 C 333.082059 279.555711 331.972121 281.518212 330.805881 283.44854 C 329.647684 285.386911 328.441229 287.29311 327.194559 289.167136 C 325.939846 291.041163 324.636874 292.883018 323.293688 294.700743 C 321.950501 296.510426 320.567099 298.287936 319.135439 300.033275 C 317.703779 301.77057 316.231904 303.483736 314.711771 305.148644 C 313.19968 306.821595 311.647375 308.454331 310.054854 310.054894 C 308.454291 311.647415 306.821555 313.19972 305.148604 314.711811 C 303.483696 316.231944 301.77053 317.703819 300.033235 319.135479 C 298.287896 320.567139 296.510386 321.950541 294.700703 323.293727 C 292.882978 324.636914 291.041123 325.939886 289.167096 327.194599 C 287.29307 328.441269 285.386871 329.647724 283.4485 330.805921 C 281.518172 331.972161 279.555671 333.082099 277.569042 334.14378 C 275.57437 335.20546 273.563611 336.218882 271.520681 337.184046 C 269.485794 338.14921 267.426777 339.066116 265.343631 339.926721 C 263.252443 340.787325 261.153211 341.599672 259.02985 342.36376 C 256.906489 343.119805 254.767042 343.827592 252.603466 344.479078 C 250.447933 345.138606 248.276314 345.741834 246.088609 346.28876 C 243.900904 346.835686 241.697113 347.326312 239.485279 347.768678 C 237.273444 348.211045 235.053567 348.597111 232.825647 348.926875 C 230.589684 349.25664 228.35372 349.530103 226.109714 349.755308 C 223.865708 349.97247 221.613658 350.141373 219.361609 350.253976 C 217.109559 350.358535 214.85751 350.414836 212.597418 350.414836 C 210.345368 350.414836 208.093319 350.358535 205.84127 350.253976 C 203.581177 350.141373 201.337171 349.97247 199.093164 349.755308 C 196.849158 349.530103 194.605152 349.25664 192.377231 348.926875 C 190.149311 348.597111 187.921391 348.211045 185.709557 347.768678 C 183.497723 347.326312 181.301974 346.835686 179.114269 346.28876 C 176.926564 345.741834 174.754945 345.138606 172.591369 344.479078 C 170.435836 343.827592 168.296389 343.119805 166.173028 342.36376 C 164.049668 341.599672 161.942393 340.787325 159.859247 339.926721 C 157.776101 339.066116 155.717085 338.14921 153.674154 337.184046 C 151.639267 336.218882 149.620465 335.20546 147.633836 334.14378 C 145.647207 333.082099 143.684707 331.972161 141.746336 330.805921 C 139.816008 329.647724 137.909809 328.441269 136.035782 327.194599 C 134.153712 325.939886 132.311857 324.636914 130.502175 323.293727 C 128.692492 321.950541 126.914982 320.567139 125.169644 319.135479 C 123.424305 317.703819 121.719182 316.231944 120.046231 314.711811 C 118.37328 313.19972 116.740545 311.647415 115.148024 310.054894 C 113.555503 308.454331 111.995155 306.821595 110.483065 305.148644 C 108.970974 303.483736 107.499099 301.77057 106.067439 300.033275 C 104.635779 298.287936 103.244334 296.510426 101.901148 294.700743 C 100.557961 292.883018 99.263033 291.041163 98.00832 289.167136 C 96.753606 287.29311 95.547151 285.386911 94.388955 283.44854 C 93.230758 281.518212 92.120819 279.555711 91.059139 277.569082 C 89.989415 275.57441 88.975993 273.563651 88.018872 271.520721 C 87.053708 269.485833 86.136802 267.426817 85.276198 265.343671 C 84.40755 263.252483 83.595204 261.153251 82.839158 259.02989 C 82.083113 256.906529 81.375326 254.767082 80.715798 252.603506 C 80.064312 250.447973 79.461084 248.276354 78.914158 246.088649 C 78.367232 243.900944 77.868564 241.697153 77.43424 239.485319 C 76.991873 237.273484 76.605808 235.053607 76.276043 232.825687 C 75.946279 230.589724 75.664773 228.35376 75.447611 226.109754 C 75.222406 223.865748 75.061545 221.613698 74.948943 219.361649 C 74.83634 217.109599 74.780039 214.85755 74.780039 212.597458 C 74.780039 210.345408 74.83634 208.093359 74.948943 205.84131 C 75.061545 203.581217 75.222406 201.337211 75.447611 199.093204 C 75.664773 196.849198 75.946279 194.605192 76.276043 192.377271 C 76.605808 190.149351 76.991873 187.921431 77.43424 185.709597 C 77.868564 183.497762 78.367232 181.302014 78.914158 179.114309 C 79.461084 176.926604 80.064312 174.754985 80.715798 172.591409 C 81.375326 170.435876 82.083113 168.296429 82.839158 166.173068 C 83.595204 164.049708 84.40755 161.942433 85.276198 159.859287 C 86.136802 157.776141 87.053708 155.717125 88.018872 153.674194 C 88.975993 151.639307 89.989415 149.620505 91.059139 147.633876 C 92.120819 145.647247 93.230758 143.684747 94.388955 141.746376 C 95.547151 139.816048 96.753606 137.909849 98.00832 136.035822 C 99.263033 134.153752 100.557961 132.311897 101.901148 130.502215 C 103.244334 128.692532 104.635779 126.915022 106.067439 125.169684 C 107.499099 123.424345 108.970974 121.719222 110.483065 120.046271 C 111.995155 118.37332 113.555503 116.740585 115.148024 115.148064 C 116.740545 113.555543 118.37328 111.995195 120.046231 110.483105 C 121.719182 108.971014 123.424305 107.499139 125.169644 106.067479 C 126.914982 104.635819 128.692492 103.244374 130.502175 101.901188 C 132.311857 100.558001 134.153712 99.263073 136.035782 98.00836 C 137.909809 96.753646 139.816008 95.547191 141.746336 94.388995 C 143.684707 93.230798 145.647207 92.120859 147.633836 91.059179 C 149.620465 89.989455 151.639267 88.976033 153.674154 88.018912 C 155.717085 87.053748 157.776101 86.136842 159.859247 85.276238 C 161.942393 84.40759 164.049668 83.595244 166.173028 82.839198 C 168.296389 82.083153 170.435836 81.375366 172.591369 80.715838 C 174.754945 80.064352 176.926564 79.461124 179.114269 78.914198 C 181.301974 78.367272 183.497723 77.868604 185.709557 77.43428 C 187.921391 76.991913 190.149311 76.605847 192.377231 76.276083 C 194.605152 75.946319 196.849158 75.664813 199.093164 75.447651 C 201.337171 75.222446 203.581177 75.061585 205.84127 74.948983 C 208.093319 74.83638 210.345368 74.780079 212.597418 74.780079 C 214.85751 74.780079 217.109559 74.83638 219.361609 74.948983 C 221.613658 75.061585 223.865708 75.222446 226.109714 75.447651 C 228.35372 75.664813 230.589684 75.946319 232.825647 76.276083 C 235.053567 76.605847 237.273444 76.991913 239.485279 77.43428 C 241.697113 77.868604 243.900904 78.367272 246.088609 78.914198 C 248.276314 79.461124 250.447933 80.064352 252.603466 80.715838 C 254.767042 81.375366 256.906489 82.083153 259.02985 82.839198 C 261.153211 83.595244 263.252443 84.40759 265.343631 85.276238 C 267.426777 86.136842 269.485794 87.053748 271.520681 88.018912 C 273.563611 88.976033 275.57437 89.989455 277.569042 91.059179 C 279.555671 92.120859 281.518172 93.230798 283.4485 94.388995 C 285.386871 95.547191 287.29307 96.753646 289.167096 98.00836 C 291.041123 99.263073 292.882978 100.558001 294.700703 101.901188 C 296.510386 103.244374 298.287896 104.635819 300.033235 106.067479 C 301.77053 107.499139 303.483696 108.971014 305.148604 110.483105 C 306.821555 111.995195 308.454291 113.555543 310.054854 115.148064 C 311.647375 116.740585 313.19968 118.37332 314.711771 120.046271 C 316.231904 121.719222 317.703779 123.424345 319.135439 125.169684 C 320.567099 126.915022 321.950501 128.692532 323.293688 130.502215 C 324.636874 132.311897 325.939846 134.153752 327.194559 136.035822 C 328.441229 137.909849 329.647684 139.816048 330.805881 141.746376 C 331.972121 143.684747 333.082059 145.647247 334.14374 147.633876 C 335.20542 149.620505 336.218842 151.639307 337.184006 153.674194 C 338.14917 155.717125 339.066076 157.776141 339.926681 159.859287 C 340.787285 161.942433 341.599632 164.049708 342.36372 166.173068 C 343.119765 168.296429 343.827552 170.435876 344.479038 172.591409 C 345.138566 174.754985 345.741794 176.926604 346.28872 179.114309 C 346.835647 181.302014 347.326272 183.497762 347.768638 185.709597 C 348.211005 187.921431 348.597071 190.149351 348.926835 192.377271 C 349.2566 194.605192 349.530063 196.849198 349.755268 199.093204 C 349.97243 201.337211 350.141333 203.581217 350.253936 205.84131 C 350.358495 208.093359 350.414796 210.345408 350.414796 212.597458 Z M 350.414796 212.597458 " stroke="#866258" stroke-width="7" stroke-opacity="1" stroke-miterlimit="10"/></g><path stroke-linecap="round" transform="matrix(0.343414, -0.343426, 0.343426, 0.343414, -71.107898, 74.91793)" fill="none" stroke-linejoin="round" d="M 307.550987 212.605298 C 307.550932 215.710554 307.397322 218.810121 307.095841 221.909685 C 306.788674 225.003562 306.333638 228.074687 305.730733 231.12306 C 305.12214 234.177121 304.365679 237.18568 303.461349 240.160114 C 302.562706 243.140234 301.516195 246.06348 300.327503 248.935537 C 299.133123 251.813282 297.807937 254.617089 296.34057 257.358334 C 294.873203 260.099579 293.27503 262.766887 291.551738 265.354571 C 289.822759 267.936567 287.974348 270.433252 286.000819 272.838939 C 284.021602 275.238938 281.940017 277.536564 279.739 279.737504 C 277.537983 281.938444 275.240284 284.01995 272.840216 285.999082 C 270.43446 287.972528 267.937711 289.820851 265.355654 291.54974 C 262.76791 293.272942 260.100546 294.871022 257.35925 296.338293 C 254.617954 297.805564 251.808413 299.13634 248.936314 300.324932 C 246.064215 301.513524 243.140933 302.559933 240.166468 303.464159 C 237.186316 304.362698 234.17773 305.119054 231.123649 305.72754 C 228.075254 306.330339 224.998426 306.790955 221.910226 307.092327 C 218.816338 307.399386 215.711079 307.547202 212.600135 307.552835 C 209.489191 307.547093 206.383937 307.399169 203.29006 307.092002 C 200.201871 306.790522 197.125059 306.329799 194.076685 305.726893 C 191.022625 305.118301 188.014065 304.36184 185.033944 303.463197 C 182.059511 302.558867 179.136266 301.512356 176.264208 300.323663 C 173.392151 299.134971 170.582656 297.804098 167.841411 296.336731 C 165.094479 294.875051 162.438546 293.276878 159.845175 291.547899 C 157.263178 289.81892 154.766493 287.970509 152.360807 285.99698 C 149.960808 284.029138 147.657494 281.941865 145.456554 279.740847 C 143.261301 277.545518 141.174108 275.242132 139.200663 272.836376 C 137.227218 270.430621 135.378894 267.933872 133.650005 265.351815 C 131.926803 262.764071 130.323036 260.102394 128.861452 257.355411 C 127.394181 254.614115 126.069093 251.810261 124.874814 248.932475 C 123.686222 246.060376 122.639812 243.137094 121.735586 240.162629 C 120.83136 237.188164 120.080691 234.173891 119.472205 231.119809 C 118.869407 228.071415 118.414478 225.000274 118.107418 221.906387 C 117.800359 218.812499 117.646856 215.712927 117.652598 212.601983 C 117.646965 209.491039 117.800576 206.391472 118.102056 203.291908 C 118.409223 200.198032 118.864259 197.126906 119.472852 194.072846 C 120.081444 191.03016 120.832218 188.015913 121.736548 185.04148 C 122.635191 182.061359 123.68739 179.132426 124.876082 176.260369 C 126.064774 173.388312 127.395648 170.578817 128.863015 167.837572 C 130.330382 165.096327 131.922867 162.434706 133.651847 159.85271 C 135.380826 157.259339 137.229237 154.762654 139.202766 152.368342 C 141.176295 149.962656 143.263568 147.659342 145.458898 145.464089 C 147.659915 143.263149 149.963301 141.175956 152.363369 139.196824 C 154.763437 137.229066 157.260187 135.380742 159.847931 133.646166 C 162.435675 131.922964 165.097351 130.330571 167.838647 128.8633 C 170.579943 127.396029 173.389484 126.065254 176.261583 124.876662 C 179.133682 123.688069 182.062651 122.635973 185.037116 121.743122 C 188.011581 120.838896 191.025854 120.076852 194.074249 119.474053 C 197.128331 118.865567 200.199471 118.410638 203.293359 118.103579 C 206.387246 117.79652 209.492506 117.648705 212.597762 117.648759 C 215.714394 117.648813 218.81396 117.802424 221.907837 118.109591 C 224.996027 118.411071 228.078526 118.866108 231.121212 119.4747 C 234.175273 120.083293 237.18952 120.834067 240.163953 121.738397 C 243.138386 122.642726 246.061632 123.689238 248.933689 124.87793 C 251.805746 126.066622 254.615241 127.397496 257.362173 128.859175 C 260.103418 130.326542 262.765039 131.919028 265.352723 133.653695 C 267.940406 135.376987 270.431404 137.231084 272.837091 139.204614 C 275.23709 141.172456 277.540403 143.259729 279.741343 145.460746 C 281.936596 147.656076 284.023789 149.959462 285.997234 152.365217 C 287.97068 154.770972 289.82469 157.262035 291.547892 159.849779 C 293.276781 162.431835 294.874861 165.099199 296.342132 167.840495 C 297.809404 170.581791 299.128804 173.391332 300.323084 176.269119 C 301.517363 179.13553 302.558085 182.064499 303.462311 185.038964 C 304.366537 188.013429 305.117206 191.027702 305.731379 194.076097 C 306.334178 197.124491 306.789107 200.195632 307.090479 203.295207 C 307.397538 206.389094 307.551041 209.488666 307.550987 212.605298 Z M 307.550987 212.605298 " stroke="#866258" stroke-width="7" stroke-opacity="1" stroke-miterlimit="10"/><path stroke-linecap="round" transform="matrix(0.485669, 0, 0, 0.485669, -28.337859, -28.337879)" fill="none" stroke-linejoin="round" d="M 322.714589 192.272712 L 305.365766 192.272712 C 306.789383 198.819741 307.553471 205.624148 307.553471 212.597458 C 307.553471 219.578811 306.789383 226.383217 305.365766 232.930246 L 322.714589 232.930246 C 332.108852 232.930246 339.789949 225.249149 339.789949 215.862929 L 339.789949 209.340029 C 339.789949 199.953809 332.108852 192.272712 322.714589 192.272712 Z M 322.714589 192.272712 " stroke="#866258" stroke-width="7" stroke-opacity="1" stroke-miterlimit="10"/><path fill="#c1a190" d="M 95.371094 74.160156 C 92.414062 64.460938 77.199219 94.667969 77.199219 86.085938 C 77.199219 78.257812 96.363281 71.871094 90.683594 61.882812 C 86.890625 55.214844 77.851562 83.664062 77.851562 78.257812 C 77.851562 64.484375 89.257812 54.332031 84.089844 52.613281 C 74.914062 49.5625 74.914062 92.03125 74.914062 92.03125 C 74.914062 92.03125 74.914062 47.578125 65.460938 53.375 C 60.820312 56.222656 71.769531 65.839844 71.769531 78.691406 C 71.769531 84.097656 62.9375 55.214844 59.144531 61.882812 C 53.46875 71.871094 72.527344 76.902344 72.527344 87.082031 C 72.527344 95.664062 57.417969 64.460938 54.460938 74.160156 C 50.0625 88.589844 74.914062 82.121094 74.914062 100.347656 C 74.914062 81.703125 99.769531 88.589844 95.371094 74.160156 Z M 95.371094 74.160156 " fill-opacity="1" fill-rule="nonzero"/><path stroke-linecap="round" transform="matrix(0.485669, 0, 0, 0.485669, -28.337859, -28.337879)" fill-opacity="1" fill="#c1a190" fill-rule="nonzero" stroke-linejoin="round" d="M 212.597418 117.649447 C 160.156839 117.649447 117.649407 160.156879 117.649407 212.597458 C 117.649407 265.038036 160.156839 307.553511 212.597418 307.553511 C 265.037996 307.553511 307.553471 265.038036 307.553471 212.597458 C 307.553471 160.156879 265.037996 117.649447 212.597418 117.649447 Z M 212.597418 282.974001 C 173.73348 282.974001 142.220875 251.469438 142.220875 212.597458 C 142.220875 173.73352 173.73348 142.220915 212.597418 142.220915 C 251.469399 142.220915 282.973961 173.73352 282.973961 212.597458 C 282.973961 251.469438 251.469399 282.974001 212.597418 282.974001 Z M 212.597418 282.974001 " stroke="#866258" stroke-width="7" stroke-opacity="1" stroke-miterlimit="10"/></svg>