<svg xmlns="http://www.w3.org/2000/svg" xmlns:xlink="http://www.w3.org/1999/xlink" width="200" zoomAndPan="magnify" viewBox="0 0 150 149.999998" height="200" preserveAspectRatio="xMidYMid meet" version="1.0"><defs><clipPath id="4f9980b7b0"><path d="M 28.28125 15.566406 L 122 15.566406 L 122 134.066406 L 28.28125 134.066406 Z M 28.28125 15.566406 " clip-rule="nonzero"/></clipPath></defs><g clip-path="url(#4f9980b7b0)"><path fill="#231f20" d="M 50.875 40.03125 C 50.773438 40.003906 50.679688 39.972656 50.578125 39.945312 C 50.355469 40.527344 50.132812 41.109375 49.902344 41.695312 C 49.980469 41.71875 50.058594 41.746094 50.140625 41.78125 C 50.378906 41.195312 50.628906 40.613281 50.875 40.03125 Z M 53.082031 44.882812 C 52.832031 45.421875 52.167969 45.886719 52.730469 46.707031 C 52.859375 46.015625 52.96875 45.449219 53.082031 44.882812 Z M 67.609375 71.140625 C 67.535156 71.214844 67.457031 71.300781 67.371094 71.378906 C 67.730469 71.738281 68.097656 72.109375 68.53125 72.535156 C 68.980469 71.292969 67.890625 71.574219 67.609375 71.140625 Z M 50.585938 42.707031 C 50.550781 41.96875 51.691406 41.539062 51.070312 40.648438 C 50.917969 41.332031 50.117188 41.855469 50.585938 42.707031 Z M 49.765625 41.152344 C 49.820312 40.398438 50.660156 39.894531 50.183594 39.089844 C 49.9375 39.730469 49 40.21875 49.765625 41.152344 Z M 52.023438 45.542969 C 52.085938 45.558594 52.144531 45.585938 52.203125 45.601562 C 52.535156 44.804688 52.867188 44.015625 53.214844 43.160156 C 53.175781 43.125 53.0625 43.015625 52.917969 42.875 C 52.59375 43.777344 51.949219 44.558594 52.023438 45.542969 Z M 76.578125 87.511719 C 76.511719 87.484375 76.453125 87.453125 76.390625 87.417969 C 75.660156 88.761719 74.933594 90.109375 74.203125 91.464844 C 74.289062 91.507812 74.375 91.550781 74.449219 91.59375 C 75.164062 90.230469 75.871094 88.875 76.578125 87.511719 Z M 66.988281 99.074219 C 67.066406 99.167969 67.152344 99.265625 67.226562 99.359375 C 68.265625 98.398438 69.304688 97.445312 70.34375 96.496094 C 70.285156 96.425781 70.214844 96.359375 70.15625 96.28125 C 69.101562 97.214844 68.042969 98.148438 66.988281 99.074219 Z M 73.761719 63.550781 C 73.972656 64.375 73.113281 65.171875 74.074219 65.695312 C 74.695312 66.03125 75.371094 66.261719 76.136719 66.585938 C 75.308594 65.53125 74.601562 64.625 73.761719 63.550781 Z M 85.992188 87.527344 C 85.972656 87.417969 85.964844 87.304688 85.949219 87.195312 C 83.707031 88.199219 81.476562 87.804688 79.089844 87.28125 C 80.0625 88.144531 81.050781 88.402344 82.175781 88.25 C 82.539062 88.207031 82.914062 88.199219 83.273438 88.128906 C 84.183594 87.941406 85.085938 87.726562 85.992188 87.527344 Z M 68.367188 69.183594 C 67.890625 69.140625 67.507812 69.105469 66.972656 69.066406 C 67.441406 69.320312 67.753906 69.511719 68.078125 69.691406 C 68.042969 69.75 68.011719 69.808594 67.984375 69.871094 C 67.550781 69.699219 67.125 69.535156 66.691406 69.363281 C 66.664062 69.414062 66.640625 69.46875 66.605469 69.519531 C 67.21875 69.835938 67.839844 70.152344 68.453125 70.46875 C 68.417969 70.53125 68.402344 70.589844 68.378906 70.648438 C 67.917969 70.496094 67.457031 70.332031 66.996094 70.179688 C 66.964844 70.257812 66.929688 70.332031 66.894531 70.410156 C 67.492188 70.726562 68.097656 71.042969 68.691406 71.363281 C 69.363281 70.410156 68.75 69.800781 68.367188 69.183594 Z M 107.121094 56.378906 C 108.859375 56.378906 110.417969 56.378906 112.09375 56.378906 C 111.25 55.964844 110.511719 55.597656 109.761719 55.238281 C 109.683594 55.203125 109.546875 55.246094 109.453125 55.289062 C 108.722656 55.625 107.988281 55.976562 107.121094 56.378906 Z M 48.984375 37.03125 C 49.058594 37.082031 49.144531 37.125 49.214844 37.175781 C 48.832031 38 48.445312 38.824219 48.0625 39.644531 C 48.148438 39.695312 48.242188 39.738281 48.328125 39.789062 C 48.710938 39.140625 49.101562 38.496094 49.546875 37.757812 C 49.707031 38.597656 48.832031 39.164062 49.171875 40.089844 C 49.417969 39.652344 49.605469 39.40625 49.707031 39.132812 C 49.820312 38.847656 49.953125 38.496094 49.878906 38.246094 C 49.632812 37.484375 49.289062 36.757812 48.976562 36.011719 C 48.140625 37.269531 47.382812 39.285156 47.527344 39.910156 C 48.03125 38.933594 48.507812 37.980469 48.984375 37.03125 Z M 71.878906 107.980469 C 71.828125 108.058594 71.773438 108.136719 71.722656 108.214844 C 70.480469 109.960938 69.324219 111.769531 67.976562 113.433594 C 67.246094 114.324219 66.65625 115.0625 67.339844 116.203125 C 67.378906 116.28125 67.371094 116.390625 67.390625 116.484375 C 68.429688 113.375 70.472656 110.84375 71.878906 107.980469 Z M 86.203125 110.355469 C 86.261719 110.363281 86.324219 110.375 86.382812 110.375 C 86.484375 109.78125 86.542969 109.183594 86.6875 108.597656 C 87.132812 106.808594 87.558594 105.015625 87.457031 103.136719 C 87.421875 102.503906 87.472656 101.871094 87.4375 101.234375 C 87.421875 100.859375 87.308594 100.488281 87.242188 100.09375 C 86.894531 103.574219 86.542969 106.96875 86.203125 110.355469 Z M 109.164062 54.953125 C 108.613281 54.242188 107.929688 54.347656 107.207031 54.773438 C 106.90625 54.953125 106.601562 55.117188 106.304688 55.304688 C 105.589844 55.769531 104.871094 56.242188 104.15625 56.710938 C 104.914062 56.773438 105.640625 56.816406 106.234375 56.558594 C 107.257812 56.113281 108.210938 55.488281 109.164062 54.953125 Z M 73.828125 105.667969 C 73.785156 105.660156 73.734375 105.640625 73.691406 105.632812 C 73.546875 106.011719 73.34375 106.378906 73.257812 106.773438 C 72.960938 108.085938 72.710938 109.414062 72.414062 110.726562 C 72.253906 111.425781 72.03125 112.105469 71.835938 112.800781 C 72.679688 112.097656 73.503906 111.503906 73.453125 110.183594 C 73.402344 108.683594 73.691406 107.175781 73.828125 105.667969 Z M 77.03125 86.527344 C 77.097656 86.859375 77.089844 87.246094 77.25 87.527344 C 78.902344 90.417969 81.160156 92.828125 83.445312 95.199219 C 83.5625 95.328125 83.820312 95.328125 84.003906 95.390625 C 81.648438 92.40625 78.75 89.964844 77.03125 86.527344 Z M 77.40625 106.019531 C 77.574219 105.316406 77.847656 104.679688 77.847656 104.039062 C 77.855469 103.308594 77.675781 102.5625 77.5 101.84375 C 77.140625 100.4375 76.730469 99.050781 76.339844 97.617188 C 76.296875 97.773438 76.210938 97.925781 76.222656 98.0625 C 76.273438 98.886719 76.296875 99.710938 76.425781 100.515625 C 76.714844 102.296875 77.054688 104.074219 77.40625 106.019531 Z M 92.472656 96.511719 C 92.285156 96.339844 92.097656 96.167969 91.910156 95.996094 C 90.582031 94.78125 89.175781 93.640625 87.957031 92.320312 C 87.25 91.558594 86.375 91.367188 85.410156 90.855469 C 86.339844 91.738281 87.257812 92.390625 87.898438 93.253906 C 89.074219 94.859375 90.71875 95.714844 92.472656 96.511719 Z M 79.082031 100.902344 C 79.507812 99.863281 79.203125 98.792969 78.902344 97.773438 C 78.289062 95.664062 77.566406 93.589844 76.894531 91.496094 C 76.886719 92.226562 76.824219 92.988281 77.011719 93.691406 C 77.652344 96.109375 78.382812 98.5 79.082031 100.902344 Z M 78.230469 103.542969 C 78.546875 102.675781 78.9375 101.964844 78.605469 101.097656 C 78.425781 100.652344 78.445312 100.128906 78.300781 99.675781 C 77.789062 98.054688 77.25 96.453125 76.722656 94.847656 C 76.648438 94.867188 76.585938 94.882812 76.511719 94.902344 C 77.082031 97.746094 77.644531 100.582031 78.230469 103.542969 Z M 102.921875 57.742188 C 102.921875 57.785156 102.914062 57.816406 102.914062 57.859375 C 104.285156 58.273438 105.648438 58.691406 107.019531 59.09375 C 107.988281 59.386719 108.851562 59.191406 109.53125 58.539062 C 108.492188 58.304688 107.425781 58.082031 106.378906 57.828125 C 105.828125 57.699219 105.296875 57.390625 104.753906 57.378906 C 104.148438 57.371094 103.535156 57.613281 102.921875 57.742188 Z M 75.726562 108.667969 C 75.964844 108.265625 76.238281 107.914062 76.398438 107.519531 C 76.605469 107.023438 76.902344 106.457031 76.835938 105.96875 C 76.605469 104.183594 76.246094 102.417969 75.941406 100.652344 C 75.863281 100.660156 75.796875 100.667969 75.726562 100.667969 C 75.726562 103.308594 75.726562 105.949219 75.726562 108.667969 Z M 112.300781 94.273438 C 113.644531 95.464844 117.503906 96.613281 119.394531 96.382812 C 117.195312 95.046875 114.871094 94.265625 112.300781 94.273438 Z M 60.105469 58.734375 C 60.507812 59.53125 60.925781 60.390625 61.324219 61.203125 C 61.324219 60.679688 61.324219 60.03125 61.324219 59.378906 C 61.375 59.378906 61.425781 59.371094 61.46875 59.359375 C 61.539062 59.796875 61.605469 60.242188 61.683594 60.691406 C 61.75 60.679688 61.828125 60.671875 61.894531 60.671875 C 61.894531 60.039062 61.894531 59.394531 61.894531 58.761719 C 61.957031 58.761719 62.007812 58.761719 62.058594 58.753906 C 62.152344 59.214844 62.253906 59.679688 62.382812 60.277344 C 62.714844 58.589844 62.132812 57.328125 61.324219 56.1875 C 60.933594 57.019531 60.542969 57.828125 60.105469 58.734375 Z M 113.363281 57.0625 C 112.425781 56.625 108.09375 56.703125 105.84375 57.269531 C 106.875 57.535156 107.777344 57.828125 108.707031 57.980469 C 109.371094 58.09375 110.09375 58.125 110.75 57.980469 C 111.660156 57.773438 112.53125 57.363281 113.363281 57.0625 Z M 98.023438 130.921875 C 97.164062 127.972656 96.296875 124.996094 95.445312 122.089844 C 95.445312 122.144531 95.4375 122.289062 95.445312 122.425781 C 95.589844 124.105469 95.726562 125.785156 95.894531 127.457031 C 95.957031 128.058594 95.980469 128.742188 96.289062 129.207031 C 96.753906 129.875 97.460938 130.378906 98.023438 130.921875 Z M 44.230469 20.296875 C 44.707031 19.878906 45.074219 19.550781 45.433594 19.226562 C 45.484375 19.269531 45.515625 19.3125 45.558594 19.355469 C 45.261719 19.707031 44.929688 20.023438 44.664062 20.390625 C 44.425781 20.726562 44.265625 21.113281 44.070312 21.480469 C 44.171875 21.550781 44.28125 21.625 44.382812 21.703125 C 44.800781 21.222656 45.226562 20.742188 45.722656 20.1875 C 45.433594 21.351562 43.96875 21.773438 44.144531 22.828125 C 44.691406 22.382812 45.3125 21.882812 45.925781 21.371094 C 46.046875 21.265625 46.164062 21.113281 46.171875 20.964844 C 46.242188 19.699219 46.292969 18.429688 46.34375 17.136719 C 44.597656 18.1875 44.476562 18.300781 44.496094 18.902344 C 44.964844 18.488281 45.414062 18.085938 45.875 17.691406 C 45.527344 18.660156 44.410156 19.074219 44.230469 20.296875 Z M 85.769531 96.90625 C 85.71875 96.941406 85.65625 96.984375 85.605469 97.027344 C 87.207031 98.664062 87.871094 101.054688 89.796875 102.394531 C 91.664062 103.695312 93.648438 104.828125 95.589844 106.035156 C 95.648438 105.941406 95.707031 105.839844 95.777344 105.746094 C 95.070312 105.253906 94.40625 104.691406 93.648438 104.3125 C 91.945312 103.457031 90.5625 102.210938 89.285156 100.832031 C 88.09375 99.546875 86.945312 98.21875 85.769531 96.90625 Z M 66.699219 114.273438 C 68.632812 112.449219 69.960938 110.203125 71.316406 107.957031 C 69.867188 109.242188 68.445312 110.5625 67.023438 111.875 C 66.007812 112.808594 66.007812 112.800781 66.5625 114.085938 C 66.597656 114.144531 66.648438 114.195312 66.699219 114.273438 Z M 73.648438 110.886719 C 74.339844 110.40625 75.140625 109.910156 75.183594 108.96875 C 75.257812 106.996094 75.257812 105.03125 75.277344 103.0625 C 75.277344 102.933594 75.214844 102.8125 75.183594 102.683594 C 75.105469 102.675781 75.027344 102.675781 74.953125 102.667969 C 74.519531 105.410156 74.082031 108.144531 73.648438 110.886719 Z M 118.746094 95.585938 C 118.285156 94.730469 117.910156 94.007812 117.511719 93.296875 C 117.402344 93.109375 117.246094 92.886719 117.058594 92.816406 C 115.773438 92.3125 113.328125 92.742188 112.171875 93.667969 C 114.488281 93.792969 116.675781 94.257812 118.746094 95.585938 Z M 79.824219 67.855469 C 78.632812 66.542969 77.363281 65.179688 76.128906 63.785156 C 75.574219 63.160156 75.027344 63.03125 74.28125 63.457031 C 75.660156 65.96875 77.941406 67.726562 79.824219 67.855469 Z M 103 94.550781 C 105.339844 96.058594 107.574219 97.601562 110.109375 98.605469 C 110.9375 98.929688 111.492188 98.585938 112.136719 98.132812 C 111.695312 97.988281 111.3125 97.902344 110.953125 97.738281 C 108.925781 96.847656 106.875 95.996094 104.898438 94.996094 C 104.277344 94.6875 103.765625 94.386719 103 94.550781 Z M 103.882812 99.324219 C 103.398438 99.082031 102.90625 98.84375 102.429688 98.585938 C 100.519531 97.582031 98.800781 96.316406 97.265625 94.796875 C 96.882812 94.421875 96.585938 94 95.996094 93.949219 C 95.519531 93.898438 95.050781 93.804688 94.652344 93.734375 C 96.609375 95.320312 98.648438 96.914062 100.613281 98.585938 C 101.59375 99.410156 102.691406 99.46875 103.882812 99.324219 Z M 77.03125 88.292969 C 77.363281 90.007812 77.617188 91.738281 78.042969 93.425781 C 78.46875 95.132812 79.066406 96.796875 79.535156 98.3125 C 79.910156 94.796875 78.964844 91.429688 77.03125 88.292969 Z M 89.292969 102.839844 C 89.261719 102.847656 89.234375 102.855469 89.210938 102.855469 C 89.917969 103.5 90.574219 104.210938 91.347656 104.75 C 93.101562 105.984375 94.925781 107.117188 96.703125 108.308594 C 97.359375 108.753906 97.964844 109.277344 98.59375 109.757812 C 98.195312 108.984375 97.742188 108.273438 97.222656 107.628906 C 96.890625 107.226562 96.492188 106.851562 96.050781 106.59375 C 93.808594 105.316406 91.542969 104.089844 89.292969 102.839844 Z M 88.410156 92.269531 C 90.410156 94.019531 92.371094 95.816406 94.429688 97.480469 C 95.042969 97.976562 95.964844 98.097656 96.738281 98.398438 C 94.917969 96.683594 93.035156 95.125 91.144531 93.570312 C 90.351562 92.929688 89.609375 92.199219 88.410156 92.269531 Z M 115.960938 96.46875 C 115.925781 96.453125 115.84375 96.382812 115.742188 96.339844 C 114.539062 95.816406 113.269531 95.398438 112.136719 94.738281 C 111.191406 94.1875 110.265625 94.1875 109.265625 94.25 C 108.925781 94.273438 108.585938 94.34375 108.132812 94.402344 C 109.703125 95.105469 111.175781 95.808594 112.683594 96.425781 C 113.753906 96.863281 114.863281 97.464844 115.960938 96.46875 Z M 96.78125 59.480469 C 96.773438 59.550781 96.753906 59.625 96.746094 59.703125 C 98.699219 60.535156 100.640625 61.382812 102.605469 62.179688 C 103.5625 62.558594 103.824219 62.429688 104.523438 61.53125 C 104.402344 61.488281 104.300781 61.445312 104.199219 61.402344 C 102.488281 60.785156 100.691406 60.339844 99.097656 59.488281 C 98.210938 59.007812 97.597656 59.148438 96.839844 59.445312 C 96.824219 59.457031 96.808594 59.472656 96.78125 59.480469 Z M 113.933594 97.371094 C 112.230469 96.648438 110.542969 95.886719 108.832031 95.226562 C 107.640625 94.761719 106.441406 94.179688 105.007812 94.539062 C 105.179688 94.644531 105.28125 94.730469 105.402344 94.789062 C 107.402344 95.6875 109.410156 96.570312 111.414062 97.488281 C 112.300781 97.902344 113.132812 97.960938 113.933594 97.371094 Z M 93.210938 109.328125 C 93.171875 109.378906 93.117188 109.421875 93.078125 109.472656 C 96.3125 112.523438 99.277344 115.808594 101.558594 119.707031 C 101.824219 118.644531 101.804688 117.761719 101.082031 116.886719 C 99.335938 114.753906 97.285156 112.9375 95.25 111.109375 C 94.574219 110.511719 93.886719 109.917969 93.210938 109.328125 Z M 67.898438 116.992188 C 68.472656 116.390625 68.980469 115.703125 69.636719 115.207031 C 70.804688 114.324219 71.375 113.140625 71.683594 111.761719 C 71.921875 110.734375 72.191406 109.714844 72.457031 108.683594 C 70.667969 111.316406 68.710938 113.8125 67.898438 116.992188 Z M 50.421875 53.429688 C 48.753906 55.425781 49.878906 60.199219 52.125 60.679688 C 52.363281 59.925781 53.132812 59.285156 52.832031 58.410156 C 52.757812 58.390625 52.6875 58.375 52.613281 58.359375 C 52.492188 58.8125 52.375 59.265625 52.253906 59.722656 C 51.84375 59.050781 52.5625 58.367188 52.015625 57.605469 C 51.886719 58.179688 51.792969 58.589844 51.710938 59 C 51.625 58.984375 51.539062 58.964844 51.460938 58.949219 C 51.539062 58.375 51.632812 57.792969 51.710938 57.210938 C 51.667969 57.199219 51.617188 57.191406 51.566406 57.183594 C 51.445312 57.550781 51.335938 57.921875 51.214844 58.289062 C 51.15625 58.273438 51.097656 58.265625 51.035156 58.246094 C 51.121094 57.613281 51.214844 56.988281 51.300781 56.351562 C 51.230469 56.34375 51.164062 56.335938 51.097656 56.328125 C 51.003906 56.738281 50.917969 57.140625 50.832031 57.542969 C 50.730469 57.542969 50.628906 57.542969 50.527344 57.542969 C 51.070312 56.144531 50.609375 54.828125 50.421875 53.429688 Z M 100.835938 113.484375 C 100.367188 112.308594 99.855469 111.171875 98.75 110.425781 C 96.195312 108.710938 93.65625 106.96875 91.101562 105.246094 C 90.894531 105.101562 90.667969 104.988281 90.4375 104.863281 C 90.574219 105.753906 91.21875 106.097656 91.839844 106.507812 C 94.992188 108.625 98.109375 110.777344 100.835938 113.484375 Z M 98.699219 93.699219 C 100.042969 94.019531 100.9375 93.382812 101.859375 92.785156 C 104.992188 90.726562 108.058594 88.546875 111.753906 87.570312 C 111.8125 87.554688 111.855469 87.503906 111.90625 87.46875 C 111.898438 87.382812 111.882812 87.296875 111.875 87.210938 C 111.457031 87.195312 111.003906 87.066406 110.628906 87.1875 C 109.683594 87.496094 108.730469 87.828125 107.871094 88.316406 C 104.839844 90.050781 101.839844 91.847656 98.699219 93.699219 Z M 65.957031 102.042969 C 70.054688 98.664062 73.820312 95.027344 76.050781 90.109375 C 75.753906 90.398438 75.558594 90.777344 75.300781 91.101562 C 73.886719 92.867188 72.523438 94.695312 71 96.375 C 69.960938 97.523438 68.785156 98.605469 67.5 99.460938 C 66.726562 99.976562 66.339844 100.558594 66.113281 101.371094 C 66.050781 101.59375 66.007812 101.816406 65.957031 102.042969 Z M 81.273438 62.746094 C 81.367188 62.902344 81.433594 63.019531 81.519531 63.125 C 83.050781 65.019531 84.710938 66.785156 86.808594 68.078125 C 87.351562 68.421875 88.152344 68.464844 88.613281 68.199219 C 86.925781 66.671875 85.128906 65.171875 83.511719 63.511719 C 82.839844 62.824219 82.242188 62.507812 81.273438 62.746094 Z M 95.613281 128.570312 C 95.4375 126.960938 95.238281 125.460938 95.101562 123.941406 C 94.992188 122.664062 94.832031 121.363281 94.933594 120.09375 C 95.011719 119.066406 94.617188 118.234375 94.363281 117.316406 C 94.292969 118.105469 94.328125 118.875 94.285156 119.648438 C 94.175781 121.542969 94.039062 123.429688 93.894531 125.324219 C 93.792969 126.71875 94.40625 127.730469 95.613281 128.570312 Z M 99.582031 127.390625 C 99.746094 126.761719 99.941406 126.136719 100.042969 125.496094 C 100.09375 125.167969 100.078125 124.757812 99.925781 124.464844 C 99.191406 123.058594 98.449219 121.664062 97.625 120.316406 C 96.746094 118.875 95.769531 117.503906 94.832031 116.097656 C 94.761719 116.132812 94.695312 116.167969 94.625 116.203125 C 96.628906 119.777344 98.230469 123.523438 99.582031 127.390625 Z M 99.632812 94.464844 C 102.308594 95.996094 104.957031 97.472656 107.5625 99.03125 C 108.484375 99.574219 109.308594 99.589844 110.210938 99.082031 C 110.152344 99.039062 110.109375 98.980469 110.050781 98.957031 C 108.238281 98.019531 106.398438 97.148438 104.625 96.144531 C 103.074219 95.269531 101.671875 94.078125 99.632812 94.464844 Z M 101.183594 121.945312 C 101.671875 120.941406 101.523438 120.144531 100.902344 119.375 C 100.339844 118.671875 99.871094 117.875 99.277344 117.1875 C 97.148438 114.683594 94.984375 112.207031 92.828125 109.722656 C 92.726562 109.789062 92.625 109.867188 92.53125 109.945312 C 92.914062 110.542969 93.210938 111.238281 93.714844 111.726562 C 95.769531 113.769531 97.632812 115.9375 99.148438 118.40625 C 99.847656 119.554688 100.484375 120.726562 101.183594 121.945312 Z M 91.261719 93.015625 C 93.441406 94.832031 95.570312 96.613281 97.71875 98.390625 C 98.261719 98.84375 99.847656 99.203125 100.640625 99.074219 C 98.605469 97.515625 96.601562 95.988281 94.609375 94.445312 C 93.628906 93.691406 92.617188 92.996094 91.261719 93.015625 Z M 99.113281 57.9375 C 99.15625 58.007812 99.199219 58.082031 99.234375 58.152344 C 100.375 57.84375 101.507812 57.535156 102.640625 57.21875 C 102.898438 57.148438 103.203125 57.089844 103.390625 56.917969 C 104.734375 55.734375 106.234375 54.792969 107.921875 54.132812 C 106.949219 53.207031 106.898438 53.1875 105.808594 53.738281 C 105.144531 54.0625 104.472656 54.378906 103.851562 54.785156 C 102.257812 55.8125 100.691406 56.882812 99.113281 57.9375 Z M 106.363281 53.128906 C 105.296875 52.347656 105.078125 52.324219 104.0625 53 C 102.292969 54.191406 100.503906 55.382812 98.765625 56.625 C 97.703125 57.378906 96.703125 58.246094 95.675781 59.0625 C 95.714844 59.113281 95.75 59.171875 95.792969 59.230469 C 96.644531 58.90625 97.675781 58.777344 98.332031 58.210938 C 100.777344 56.136719 103.425781 54.421875 106.363281 53.128906 Z M 37.136719 82.085938 C 36.34375 84.8125 35.621094 87.3125 34.871094 89.816406 C 34.4375 91.273438 34.046875 92.730469 34.242188 94.285156 C 34.503906 92.621094 35.261719 91.179688 36.234375 89.859375 C 36.882812 88.976562 37.324219 88.144531 37.179688 86.945312 C 37 85.410156 37.136719 83.84375 37.136719 82.085938 Z M 83.871094 68.558594 C 83.914062 68.480469 83.953125 68.40625 83.996094 68.328125 C 83.914062 68.292969 83.808594 68.277344 83.75 68.222656 C 81.824219 66.65625 79.875 65.136719 78.011719 63.5 C 77.378906 62.953125 76.84375 62.808594 76.152344 63.160156 C 77.335938 65.179688 79.304688 66.449219 80.871094 68.105469 C 80.921875 68.15625 81 68.171875 81.058594 68.179688 C 81.996094 68.308594 82.933594 68.429688 83.871094 68.558594 Z M 101.738281 117.09375 C 101.558594 115.996094 101.710938 114.769531 100.765625 113.957031 C 99.277344 112.679688 97.777344 111.402344 96.210938 110.21875 C 94.667969 109.042969 93.042969 107.988281 91.449219 106.875 C 91.519531 107.289062 91.628906 107.691406 91.894531 107.894531 C 92.667969 108.480469 93.5625 108.914062 94.292969 109.542969 C 96.960938 111.855469 99.625 114.179688 101.738281 117.09375 Z M 95.945312 119.570312 C 95.878906 119.597656 95.800781 119.621094 95.726562 119.648438 C 96.515625 123.652344 97.367188 127.636719 98.9375 131.519531 C 98.96875 131.167969 98.980469 130.910156 99.019531 130.664062 C 99.300781 129.214844 99.371094 127.835938 98.714844 126.402344 C 97.683594 124.175781 96.859375 121.851562 95.945312 119.570312 Z M 100.195312 64.898438 C 99.804688 64.785156 99.574219 64.71875 99.335938 64.660156 C 96.628906 63.929688 93.980469 63.039062 91.449219 61.804688 C 90.734375 61.453125 90.742188 61.445312 90.171875 61.660156 C 90.257812 61.753906 90.324219 61.847656 90.410156 61.914062 C 92.402344 63.542969 94.5 64.933594 97.070312 65.550781 C 98.28125 65.839844 99.105469 65.378906 100.195312 64.898438 Z M 97.53125 94.171875 C 97.515625 94.222656 97.496094 94.265625 97.480469 94.316406 C 97.632812 94.480469 97.777344 94.660156 97.949219 94.804688 C 99.796875 96.425781 101.789062 97.804688 103.953125 98.980469 C 105.070312 99.582031 106.175781 99.691406 107.359375 99.699219 C 107.496094 99.699219 107.625 99.632812 107.726562 99.605469 C 104.660156 97.847656 101.617188 96.109375 98.5625 94.386719 C 98.273438 94.222656 97.878906 94.242188 97.53125 94.171875 Z M 38.320312 75.175781 C 38.253906 75.175781 38.183594 75.183594 38.117188 75.183594 C 37.230469 79.332031 37.691406 83.535156 37.605469 87.734375 C 38.132812 87.074219 38.59375 86.414062 39.011719 85.71875 C 39.113281 85.574219 39.070312 85.316406 39.042969 85.121094 C 38.933594 84.046875 38.761719 82.984375 38.695312 81.914062 C 38.542969 79.667969 38.441406 77.421875 38.320312 75.175781 Z M 86.695312 49.921875 C 86.664062 49.847656 86.628906 49.769531 86.59375 49.691406 C 85.769531 49.984375 84.832031 50.101562 84.140625 50.582031 C 81.238281 52.589844 78.75 55.058594 76.65625 57.914062 C 75.898438 58.957031 75.171875 60.03125 74.441406 61.082031 C 74.507812 61.144531 74.578125 61.195312 74.644531 61.246094 C 78.09375 56.867188 82.125 53.101562 86.695312 49.921875 Z M 86.707031 68.40625 C 84.183594 66.988281 82.464844 64.992188 80.828125 62.910156 C 80.761719 62.816406 80.648438 62.703125 80.566406 62.703125 C 79.714844 62.6875 78.871094 62.695312 78.027344 62.695312 C 77.992188 62.789062 77.96875 62.894531 77.941406 62.996094 C 79.808594 64.554688 81.699219 66.074219 83.511719 67.691406 C 84.414062 68.5 85.386719 68.574219 86.707031 68.40625 Z M 98.808594 58.855469 C 98.800781 58.949219 98.792969 59.035156 98.773438 59.128906 C 100.777344 59.824219 102.777344 60.527344 104.789062 61.222656 C 104.882812 61.253906 105.035156 61.265625 105.121094 61.203125 C 105.960938 60.699219 106.796875 60.175781 107.597656 59.6875 C 106.046875 59.214844 104.523438 58.753906 103 58.289062 C 102.710938 58.195312 102.402344 57.921875 102.164062 57.980469 C 101.03125 58.222656 99.925781 58.554688 98.808594 58.855469 Z M 96.664062 65.960938 C 95.476562 65.421875 94.117188 64.914062 92.855469 64.203125 C 91.789062 63.605469 90.84375 62.78125 89.832031 62.070312 C 89.660156 61.941406 89.421875 61.820312 89.226562 61.839844 C 88.648438 61.890625 88.078125 62.019531 87.351562 62.148438 C 89.363281 63.980469 91.425781 65.457031 93.597656 66.785156 C 93.679688 66.835938 93.824219 66.851562 93.917969 66.820312 C 94.90625 66.519531 95.894531 66.210938 96.664062 65.960938 Z M 97.964844 82.429688 C 96.738281 81.886719 95.546875 81.964844 94.449219 82.589844 C 92.890625 83.484375 91.371094 84.433594 89.832031 85.367188 C 88.453125 86.199219 87.070312 87.058594 85.667969 87.863281 C 85.300781 88.078125 84.859375 88.1875 84.433594 88.265625 C 83.539062 88.421875 82.644531 88.515625 81.757812 88.644531 C 82.617188 89.335938 83.578125 89.070312 84.5 88.898438 C 86.679688 88.496094 88.613281 87.503906 90.402344 86.207031 C 92.710938 84.535156 95.144531 83.140625 97.964844 82.429688 Z M 39.308594 85.050781 C 39.375 85.058594 39.4375 85.058594 39.503906 85.058594 C 39.84375 84.621094 40.238281 84.210938 40.519531 83.730469 C 40.695312 83.441406 40.800781 83.046875 40.765625 82.710938 C 40.464844 79.992188 40.117188 77.285156 39.8125 74.578125 C 39.675781 73.402344 39.605469 72.226562 39.503906 71.054688 C 39.425781 71.042969 39.359375 71.042969 39.28125 71.035156 C 39.128906 71.960938 38.839844 72.886719 38.839844 73.8125 C 38.855469 76.121094 39 78.417969 39.105469 80.714844 C 39.164062 82.164062 39.242188 83.609375 39.308594 85.050781 Z M 101.695312 51.824219 C 100.621094 51.261719 99.574219 51.628906 98.554688 52.332031 C 97.863281 52.8125 97.097656 53.179688 96.449219 53.703125 C 94.464844 55.304688 92.496094 56.917969 90.597656 58.605469 C 89.746094 59.371094 89.054688 60.328125 88.296875 61.195312 C 90.5625 59.609375 92.675781 57.84375 94.917969 56.25 C 97.140625 54.671875 99.480469 53.257812 101.695312 51.824219 Z M 65.847656 112.25 C 65.949219 112.328125 66.058594 112.40625 66.164062 112.480469 C 66.800781 111.734375 67.414062 110.964844 68.105469 110.261719 C 70.214844 108.117188 72.710938 106.320312 74.074219 103.507812 C 74.414062 102.785156 74.707031 102.042969 75.070312 101.199219 C 73.503906 102.957031 72.125 104.691406 70.558594 106.222656 C 68.980469 107.765625 67.21875 109.128906 65.429688 110.65625 C 65.53125 111.042969 65.6875 111.640625 65.847656 112.25 Z M 100.332031 124.507812 C 100.597656 123.847656 100.828125 123.265625 101.03125 122.683594 C 101.074219 122.578125 101.003906 122.417969 100.945312 122.304688 C 99.855469 120.566406 98.851562 118.765625 97.648438 117.109375 C 96.433594 115.4375 95.019531 113.914062 93.691406 112.320312 C 93.621094 112.363281 93.5625 112.40625 93.492188 112.449219 C 93.730469 113.097656 93.851562 113.828125 94.226562 114.375 C 96.464844 117.589844 98.722656 120.789062 100.332031 124.507812 Z M 87.421875 117.128906 C 87.515625 117.121094 87.617188 117.101562 87.71875 117.085938 C 87.71875 116.65625 87.703125 116.21875 87.726562 115.78125 C 87.769531 114.703125 87.753906 113.613281 87.898438 112.550781 C 88.214844 110.261719 88.613281 107.980469 88.980469 105.703125 C 89.066406 105.171875 89.363281 104.578125 89.21875 104.132812 C 88.9375 103.242188 88.410156 102.433594 87.984375 101.585938 C 87.921875 101.816406 87.992188 102 87.992188 102.179688 C 88.015625 104.011719 87.890625 105.828125 87.402344 107.605469 C 86.78125 109.859375 86.246094 112.121094 86.75 114.488281 C 86.9375 115.371094 87.191406 116.246094 87.421875 117.128906 Z M 62.355469 46.71875 C 62.40625 46.761719 62.449219 46.8125 62.5 46.863281 C 63.8125 46.46875 65.34375 44.386719 64.671875 42.398438 C 64.1875 40.992188 62.6875 40.28125 61.128906 40.785156 C 60.371094 41.035156 59.714844 41.453125 59.230469 42.148438 C 59.398438 42.292969 59.546875 42.414062 59.664062 42.507812 C 60.011719 42.277344 60.335938 42.070312 60.652344 41.855469 C 60.703125 41.925781 60.761719 41.992188 60.8125 42.070312 C 60.558594 42.285156 60.304688 42.507812 59.972656 42.800781 C 60.117188 42.929688 60.234375 43.046875 60.3125 43.109375 C 60.652344 42.902344 60.925781 42.738281 61.1875 42.566406 C 61.214844 42.621094 61.25 42.671875 61.273438 42.714844 C 61.09375 42.996094 60.925781 43.28125 60.746094 43.5625 C 60.804688 43.589844 60.863281 43.613281 60.925781 43.640625 C 61.136719 43.484375 61.359375 43.339844 61.570312 43.195312 C 61.613281 43.238281 61.65625 43.289062 61.699219 43.332031 C 61.511719 43.578125 61.332031 43.820312 61.15625 44.058594 C 61.1875 44.085938 61.222656 44.109375 61.265625 44.128906 C 61.53125 43.992188 61.800781 43.863281 62.074219 43.726562 C 62.101562 43.769531 62.125 43.8125 62.144531 43.855469 C 61.9375 44.128906 61.726562 44.402344 61.511719 44.675781 C 61.570312 44.710938 61.625 44.746094 61.675781 44.78125 C 61.972656 44.667969 62.269531 44.546875 62.652344 44.402344 C 62.535156 44.96875 61.65625 44.898438 62.066406 45.585938 C 62.433594 45.335938 62.753906 45.105469 63.089844 44.882812 C 63.128906 44.953125 63.171875 45.019531 63.222656 45.089844 C 62.882812 45.414062 62.550781 45.75 62.226562 46.082031 C 62.269531 46.117188 62.304688 46.152344 62.355469 46.195312 C 62.753906 45.878906 63.164062 45.558594 63.574219 45.25 C 63.625 45.304688 63.667969 45.363281 63.726562 45.421875 C 63.265625 45.851562 62.816406 46.28125 62.355469 46.71875 Z M 44.417969 75.167969 C 44.488281 75.183594 44.5625 75.195312 44.640625 75.210938 C 44.800781 74.671875 45.144531 74.121094 45.101562 73.609375 C 44.964844 72.296875 44.65625 71 44.425781 69.691406 C 43.730469 65.824219 43.03125 61.957031 42.339844 58.09375 C 42.085938 58.992188 41.785156 59.945312 41.804688 60.894531 C 41.828125 62.09375 42.058594 63.304688 42.28125 64.496094 C 42.792969 67.152344 43.355469 69.792969 43.882812 72.441406 C 44.070312 73.351562 44.238281 74.257812 44.417969 75.167969 Z M 83.683594 89.613281 C 83.988281 89.679688 84.277344 89.792969 84.585938 89.824219 C 85.726562 89.953125 86.832031 89.699219 87.828125 89.199219 C 89.617188 88.316406 91.425781 87.433594 93.101562 86.371094 C 95.4375 84.886719 97.855469 83.621094 100.433594 82.589844 C 99.464844 82.625 98.484375 82.652344 97.566406 82.898438 C 94.976562 83.609375 92.734375 85.027344 90.574219 86.585938 C 88.519531 88.070312 86.289062 89.175781 83.683594 89.613281 Z M 40.601562 67.03125 C 39.726562 69.203125 40.082031 71.34375 40.160156 73.453125 C 40.210938 75.132812 40.476562 76.804688 40.644531 78.476562 C 40.78125 79.875 40.910156 81.28125 41.046875 82.675781 C 41.132812 82.695312 41.214844 82.703125 41.300781 82.71875 C 41.660156 81.855469 42.050781 80.988281 42.359375 80.097656 C 42.476562 79.746094 42.535156 79.308594 42.433594 78.964844 C 41.292969 75.109375 41.046875 71.121094 40.601562 67.03125 Z M 92.359375 111.257812 C 92.359375 112.242188 92.386719 113.21875 92.351562 114.195312 C 92.265625 117.257812 92.226562 120.308594 92.046875 123.359375 C 91.976562 124.621094 92.726562 125.296875 93.453125 126.25 C 93.453125 125.835938 93.460938 125.589844 93.453125 125.339844 C 93.425781 124.472656 93.304688 123.601562 93.382812 122.742188 C 93.570312 120.496094 93.917969 118.285156 93.65625 116.011719 C 93.453125 114.351562 93.007812 112.789062 92.359375 111.257812 Z M 85.617188 90.410156 C 85.835938 90.453125 86.066406 90.554688 86.28125 90.527344 C 87.039062 90.433594 87.8125 90.390625 88.535156 90.160156 C 91.28125 89.285156 93.691406 87.726562 96.203125 86.371094 C 98.65625 85.042969 101.03125 83.550781 103.816406 82.898438 C 103.417969 82.753906 102.992188 82.566406 102.625 82.644531 C 101.484375 82.882812 100.316406 83.132812 99.226562 83.550781 C 96.390625 84.65625 93.894531 86.40625 91.3125 87.984375 C 89.542969 89.070312 87.667969 89.902344 85.617188 90.410156 Z M 80.273438 62.113281 C 81.023438 62.113281 81.722656 62.136719 82.414062 62.09375 C 82.609375 62.078125 82.863281 61.898438 82.976562 61.71875 C 84.039062 59.988281 85.207031 58.359375 86.707031 56.945312 C 88.980469 54.792969 91.441406 52.949219 94.167969 51.421875 C 94.710938 51.113281 95.265625 50.796875 95.84375 50.472656 C 95.078125 50 94.515625 50.429688 93.972656 50.746094 C 90.945312 52.5625 88.070312 54.570312 85.386719 56.882812 C 83.539062 58.46875 81.757812 60.117188 80.273438 62.113281 Z M 75.652344 97.988281 C 72.738281 101.621094 69.613281 104.84375 65.976562 107.535156 C 65.140625 108.160156 64.988281 108.898438 65.464844 109.882812 C 65.558594 109.832031 65.667969 109.78125 65.761719 109.714844 C 68.53125 107.75 70.921875 105.367188 73.070312 102.753906 C 74.1875 101.390625 75.351562 100.007812 75.652344 97.988281 Z M 89.609375 104.792969 C 89.507812 105.445312 89.40625 105.992188 89.320312 106.550781 C 89.023438 108.53125 88.683594 110.511719 88.433594 112.507812 C 88.265625 113.828125 88.246094 115.171875 88.101562 116.503906 C 87.949219 117.96875 88.347656 119.023438 89.441406 119.835938 C 89.441406 119.289062 89.398438 118.679688 89.449219 118.070312 C 89.730469 114.46875 90.011719 110.871094 90.351562 107.269531 C 90.445312 106.328125 90.121094 105.597656 89.609375 104.792969 Z M 73.625 62.007812 C 76 57.550781 79.246094 53.78125 83.28125 50.667969 C 82.847656 50.773438 82.4375 50.925781 82.03125 51.082031 C 79.816406 51.894531 77.949219 53.15625 76.542969 55.125 C 75.320312 56.847656 73.980469 58.496094 72.660156 60.199219 C 72.941406 60.722656 73.292969 61.382812 73.625 62.007812 Z M 65.355469 104.699219 C 65.566406 104.585938 65.695312 104.535156 65.796875 104.449219 C 67.984375 102.539062 70.226562 100.6875 72.3125 98.671875 C 73.410156 97.617188 74.320312 96.324219 75.132812 95.019531 C 75.820312 93.921875 76.425781 92.707031 76.316406 91.34375 C 75.617188 92.355469 74.953125 93.382812 74.226562 94.371094 C 72.03125 97.359375 69.484375 100.019531 66.503906 102.203125 C 65.558594 102.890625 65.539062 103.703125 65.355469 104.699219 Z M 76.042969 94.695312 C 75.207031 95.835938 74.425781 97.027344 73.511719 98.097656 C 71.230469 100.765625 68.523438 102.957031 65.695312 105.007812 C 65.507812 105.144531 65.285156 105.367188 65.269531 105.574219 C 65.21875 106.191406 65.25 106.816406 65.25 107.527344 C 65.40625 107.441406 65.507812 107.398438 65.59375 107.320312 C 67.175781 105.933594 68.804688 104.59375 70.308594 103.128906 C 71.757812 101.734375 73.128906 100.242188 74.433594 98.707031 C 75.402344 97.574219 76.160156 96.28125 76.042969 94.695312 Z M 41.378906 62.746094 C 41.351562 62.839844 41.292969 63.089844 41.25 63.347656 C 41.148438 64.109375 40.945312 64.871094 40.96875 65.636719 C 41.019531 66.894531 41.199219 68.148438 41.34375 69.40625 C 41.625 71.722656 41.890625 74.042969 42.210938 76.359375 C 42.304688 77.113281 42.554688 77.84375 42.742188 78.632812 C 43.023438 77.980469 43.167969 77.34375 43.515625 76.882812 C 44.070312 76.164062 44.105469 75.492188 43.898438 74.628906 C 43.003906 70.632812 42.195312 66.621094 41.378906 62.746094 Z M 117.007812 92.449219 C 116.445312 91.625 115.980469 91.015625 115.585938 90.347656 C 115.261719 89.792969 114.792969 89.742188 114.273438 89.859375 C 113.753906 89.980469 113.246094 90.144531 112.75 90.332031 C 111.132812 90.964844 109.503906 91.59375 107.914062 92.285156 C 107.019531 92.671875 106.175781 93.195312 105.316406 93.65625 C 106.320312 93.769531 107.257812 93.855469 108.1875 93.753906 C 109.4375 93.613281 110.714844 93.761719 111.933594 93.125 C 113.449219 92.335938 115.085938 91.847656 117.007812 92.449219 Z M 87.214844 91.007812 C 88.015625 91.480469 88.828125 91.496094 89.617188 91.308594 C 91.519531 90.847656 93.316406 90.125 95 89.105469 C 97.660156 87.484375 100.359375 85.925781 103.066406 84.390625 C 103.816406 83.960938 104.667969 83.730469 105.503906 83.386719 C 104.566406 82.917969 103.679688 83.226562 102.90625 83.578125 C 100.648438 84.605469 98.425781 85.71875 96.226562 86.859375 C 93.304688 88.378906 90.5625 90.273438 87.214844 91.007812 Z M 91.679688 123.652344 C 91.644531 123.179688 91.613281 122.855469 91.601562 122.519531 C 91.578125 121.277344 91.492188 120.023438 91.550781 118.78125 C 91.679688 115.996094 92.011719 113.21875 91.773438 110.417969 C 91.679688 109.386719 91.492188 108.402344 90.886719 107.519531 C 90.769531 108.855469 90.648438 110.148438 90.53125 111.453125 C 90.332031 113.460938 90.230469 115.480469 89.90625 117.460938 C 89.535156 119.785156 90.1875 121.730469 91.679688 123.652344 Z M 83.207031 61.96875 C 83.699219 61.96875 83.980469 61.976562 84.261719 61.96875 C 85.179688 61.96875 85.855469 61.796875 86.355469 60.773438 C 87.890625 57.707031 90.4375 55.511719 93.109375 53.488281 C 94.421875 52.496094 95.871094 51.707031 97.257812 50.832031 C 96.824219 50.730469 96.304688 50.625 95.972656 50.832031 C 93.816406 52.160156 91.679688 53.515625 89.59375 54.953125 C 88.714844 55.554688 88.050781 56.445312 87.191406 57.0625 C 85.453125 58.324219 84.492188 60.167969 83.207031 61.96875 Z M 86.363281 61.554688 C 86.425781 61.625 86.492188 61.699219 86.550781 61.769531 C 86.96875 61.589844 87.550781 61.53125 87.777344 61.210938 C 89.542969 58.820312 91.730469 56.882812 94.03125 55.074219 C 95.742188 53.730469 97.582031 52.5625 99.3125 51.347656 C 98.59375 51.046875 97.835938 50.941406 96.953125 51.433594 C 93.347656 53.421875 90.222656 55.964844 87.71875 59.25 C 87.183594 59.953125 86.808594 60.785156 86.363281 61.554688 Z M 109.25 85.230469 C 108.3125 84.253906 108.269531 84.175781 107.171875 84.742188 C 104.890625 85.933594 102.605469 87.125 100.410156 88.472656 C 97.898438 89.996094 95.476562 91.703125 92.625 92.679688 C 93.273438 92.816406 93.945312 92.964844 94.566406 92.84375 C 96.484375 92.457031 98.179688 91.507812 99.796875 90.460938 C 102.8125 88.507812 105.75 86.398438 109.25 85.230469 Z M 33.722656 60.253906 C 34.230469 59.6875 34.734375 59.105469 35.269531 58.554688 C 36.992188 56.789062 38.796875 55.109375 40.449219 53.285156 C 41.734375 51.84375 42.972656 50.316406 44.011719 48.6875 C 44.964844 47.1875 45.628906 45.5 46.386719 43.878906 C 46.515625 43.613281 46.503906 43.289062 46.554688 42.988281 C 46.367188 43.117188 46.292969 43.289062 46.199219 43.441406 C 44.871094 45.535156 43.675781 47.71875 41.964844 49.554688 C 40.109375 51.542969 38.242188 53.515625 36.4375 55.546875 C 35.230469 56.917969 34.34375 58.503906 33.722656 60.253906 Z M 46.949219 30.328125 C 46.847656 31.519531 45.339844 32.023438 45.925781 33.371094 C 46.257812 32.789062 46.554688 32.273438 46.847656 31.757812 C 46.941406 32.746094 45.996094 33.414062 46.171875 34.585938 C 46.597656 33.875 46.929688 33.320312 47.261719 32.761719 C 47.324219 32.789062 47.382812 32.820312 47.441406 32.855469 C 47.222656 33.320312 47 33.800781 46.761719 34.261719 C 46.351562 35.078125 46.34375 35.078125 46.660156 35.683594 C 47.101562 35 47.101562 34.066406 47.835938 33.558594 C 47.679688 34.152344 47.449219 34.699219 47.238281 35.257812 C 46.8125 36.355469 46.8125 36.355469 47.09375 36.960938 C 47.433594 36.300781 47.78125 35.660156 48.113281 35.007812 C 48.175781 35.042969 48.234375 35.066406 48.285156 35.09375 C 48.175781 36.191406 47.015625 37.03125 47.398438 38.367188 C 47.835938 37.476562 48.242188 36.6875 48.609375 35.890625 C 48.703125 35.683594 48.769531 35.410156 48.703125 35.214844 C 48.285156 33.980469 47.671875 32.777344 47.425781 31.511719 C 46.929688 29.085938 46.625 26.625 46.277344 24.171875 C 46.15625 23.332031 46.140625 22.484375 46.0625 21.558594 C 45.628906 22.089844 45.253906 22.542969 44.878906 22.988281 C 44.511719 23.417969 43.875 23.742188 44.394531 24.636719 C 44.835938 24.136719 45.238281 23.703125 45.746094 23.144531 C 45.457031 24.292969 44.035156 24.703125 44.394531 26.179688 C 44.980469 25.5625 45.457031 25.054688 45.933594 24.558594 C 45.671875 25.054688 45.339844 25.5 44.980469 25.921875 C 44.625 26.339844 44.230469 26.746094 44.53125 27.421875 C 45.023438 26.839844 45.5 26.28125 45.96875 25.734375 C 46.019531 25.777344 46.070312 25.820312 46.121094 25.871094 C 45.824219 26.308594 45.5 26.726562 45.21875 27.171875 C 44.964844 27.59375 44.316406 27.902344 44.734375 28.621094 C 45.125 28.148438 45.484375 27.722656 45.839844 27.292969 C 45.703125 28.140625 44.820312 28.621094 44.914062 29.761719 C 45.40625 29.230469 45.78125 28.835938 46.277344 28.304688 C 46.078125 29.375 44.800781 29.726562 45.226562 30.902344 C 45.644531 30.429688 46.019531 30.011719 46.386719 29.582031 C 46.4375 29.625 46.488281 29.667969 46.53125 29.703125 C 46.300781 30.0625 46.078125 30.429688 45.824219 30.773438 C 45.558594 31.140625 45.210938 31.476562 45.59375 32.035156 C 46.035156 31.476562 46.445312 30.960938 46.949219 30.328125 Z M 114.582031 89.398438 C 113.371094 87.855469 111.882812 87.496094 110.136719 88.558594 C 109.972656 88.652344 109.804688 88.730469 109.625 88.789062 C 107.402344 89.628906 105.546875 91.113281 103.542969 92.328125 C 102.792969 92.792969 102.085938 93.324219 101.261719 93.878906 C 102.886719 94 104.183594 93.835938 105.554688 92.980469 C 108.320312 91.25 111.429688 90.195312 114.582031 89.398438 Z M 64.28125 48.707031 C 65.132812 48.953125 65.890625 48.011719 66.777344 48.472656 C 66.238281 48.644531 65.695312 48.808594 65.15625 48.980469 C 65.796875 49.871094 66.417969 48.851562 67.253906 49.058594 C 66.808594 49.296875 66.527344 49.460938 66.246094 49.613281 C 66.28125 49.683594 66.308594 49.761719 66.339844 49.835938 C 66.75 49.683594 67.160156 49.539062 67.566406 49.382812 C 67.59375 49.433594 67.628906 49.496094 67.652344 49.546875 C 67.390625 49.742188 67.125 49.933594 66.851562 50.121094 C 66.878906 50.1875 66.894531 50.257812 66.914062 50.324219 C 67.277344 50.25 67.644531 50.179688 68.019531 50.113281 C 68.027344 50.144531 68.042969 50.1875 68.054688 50.222656 C 67.867188 50.378906 67.6875 50.53125 67.492188 50.695312 C 67.515625 50.761719 67.535156 50.832031 67.558594 50.898438 C 67.933594 50.824219 68.316406 50.746094 68.691406 50.660156 C 68.617188 50.898438 68.472656 50.96875 68.367188 51.082031 C 68.257812 51.191406 68.191406 51.335938 68.105469 51.464844 C 68.265625 51.457031 68.4375 51.5 68.574219 51.441406 C 68.804688 51.335938 69.015625 51.183594 69.230469 51.054688 C 69.441406 51.722656 68.214844 51.535156 68.683594 52.304688 C 69.074219 52.058594 69.441406 51.816406 69.808594 51.585938 C 69.859375 51.636719 69.894531 51.699219 69.9375 51.75 C 69.585938 52.082031 69.230469 52.410156 68.871094 52.742188 C 68.921875 52.804688 68.972656 52.871094 69.023438 52.941406 C 69.492188 52.632812 69.960938 52.324219 70.429688 52.015625 C 70.464844 52.074219 70.507812 52.132812 70.550781 52.195312 C 70.277344 52.417969 69.996094 52.613281 69.75 52.855469 C 69.527344 53.058594 69.339844 53.300781 69.136719 53.523438 C 69.203125 53.582031 69.269531 53.644531 69.339844 53.703125 C 70.601562 52.90625 71.511719 51.886719 71.589844 50.265625 C 71.65625 48.773438 70.964844 47.746094 69.671875 47.121094 C 68.25 46.417969 66.878906 46.640625 65.371094 47.53125 C 65.914062 47.53125 66.257812 47.523438 66.605469 47.53125 C 66.902344 47.539062 67.203125 47.566406 67.507812 47.582031 C 67.507812 47.660156 67.507812 47.746094 67.507812 47.824219 C 66.359375 47.796875 65.226562 47.847656 64.28125 48.707031 Z M 95.28125 93.144531 C 95.28125 93.210938 95.28125 93.273438 95.289062 93.339844 C 96.132812 93.410156 97.003906 93.613281 97.828125 93.519531 C 98.46875 93.445312 99.082031 93.039062 99.660156 92.699219 C 103.28125 90.546875 106.695312 88.015625 110.886719 86.695312 C 110.628906 86.472656 110.410156 86.335938 110.253906 86.140625 C 109.796875 85.546875 109.242188 85.453125 108.601562 85.804688 C 106.695312 86.84375 104.734375 87.820312 102.878906 88.960938 C 100.402344 90.460938 98.117188 92.304688 95.28125 93.144531 Z M 89.617188 91.816406 C 90.574219 92.277344 91.433594 92.378906 92.34375 92.132812 C 94.863281 91.4375 97.035156 90.050781 99.21875 88.652344 C 101.789062 87.015625 104.34375 85.351562 107.242188 84.332031 C 107.367188 84.28125 107.488281 84.210938 107.625 84.144531 C 106.6875 83.609375 105.800781 83.5 104.871094 83.996094 C 102.546875 85.265625 100.195312 86.472656 97.878906 87.742188 C 95.902344 88.824219 93.980469 89.980469 91.984375 91.027344 C 91.289062 91.394531 90.46875 91.539062 89.617188 91.816406 Z M 93.222656 67.128906 C 91.457031 65.832031 89.722656 64.703125 88.144531 63.363281 C 87.285156 62.636719 86.578125 62.007812 85.359375 62.378906 C 84.722656 62.566406 84.015625 62.542969 83.289062 62.617188 C 83.382812 62.773438 83.410156 62.867188 83.46875 62.933594 C 85.128906 64.863281 87.097656 66.441406 89.160156 67.890625 C 89.3125 68 89.558594 68.078125 89.738281 68.035156 C 90.894531 67.753906 92.054688 67.4375 93.222656 67.128906 Z M 89.457031 60.980469 C 89.464844 61.03125 89.472656 61.082031 89.492188 61.144531 C 89.6875 61.109375 89.890625 61.082031 90.078125 61.023438 C 91.144531 60.691406 92.199219 60.3125 93.265625 60.019531 C 94.21875 59.753906 94.957031 59.308594 95.714844 58.589844 C 98.128906 56.308594 100.902344 54.476562 103.75 52.769531 C 103.953125 52.648438 104.132812 52.511719 104.421875 52.316406 C 103.433594 52.082031 102.648438 51.785156 101.804688 52.324219 C 99.914062 53.550781 97.914062 54.621094 96.074219 55.921875 C 93.808594 57.519531 91.652344 59.285156 89.457031 60.980469 Z M 45.390625 73.332031 C 45.464844 73.332031 45.535156 73.332031 45.601562 73.332031 C 45.941406 72.277344 46.300781 71.214844 46.632812 70.144531 C 46.683594 69.972656 46.703125 69.777344 46.667969 69.597656 C 46.472656 68.378906 46.316406 67.144531 46.019531 65.953125 C 45.542969 64.074219 44.894531 62.25 44.460938 60.371094 C 44.027344 58.488281 43.761719 56.558594 43.386719 54.433594 C 43.148438 55.460938 42.722656 56.351562 42.800781 57.191406 C 43.023438 59.488281 43.449219 61.769531 43.8125 64.050781 C 44.144531 66.089844 44.511719 68.128906 44.863281 70.171875 C 45.039062 71.226562 45.21875 72.277344 45.390625 73.332031 Z M 91.320312 61.246094 C 94.335938 62.816406 97.386719 63.679688 100.417969 64.597656 C 100.527344 64.632812 100.699219 64.574219 100.792969 64.503906 C 101.542969 63.9375 102.285156 63.355469 102.90625 62.875 C 100.742188 61.839844 98.59375 60.808594 96.449219 59.796875 C 96.328125 59.746094 96.175781 59.695312 96.058594 59.730469 C 94.542969 60.210938 93.023438 60.699219 91.320312 61.246094 Z M 73.894531 62.753906 C 75.011719 62.859375 75.25 62.730469 75.726562 61.933594 C 75.914062 61.605469 76.117188 61.289062 76.375 61.023438 C 80.742188 56.480469 85.742188 52.792969 91.21875 49.742188 C 91.355469 49.664062 91.476562 49.5625 91.730469 49.382812 C 90.878906 49.382812 90.1875 49.316406 89.523438 49.398438 C 88.714844 49.511719 87.882812 49.46875 87.132812 50.007812 C 82.855469 53.078125 78.957031 56.558594 75.640625 60.679688 C 75.089844 61.367188 74.507812 62.027344 73.894531 62.753906 Z M 63.046875 66.691406 C 62.644531 66.605469 62.253906 66.519531 61.835938 66.441406 C 62.015625 67.425781 63.183594 66.851562 63.625 67.625 C 63.183594 67.574219 62.859375 67.53125 62.414062 67.480469 C 63.359375 68.652344 64.40625 69.375 65.847656 69.148438 C 66.902344 68.988281 67.738281 68.054688 67.890625 67.023438 C 65.21875 65.515625 63.769531 63.382812 64.484375 60.019531 C 63.835938 60.175781 63.265625 60.304688 62.578125 60.464844 C 62.976562 60.894531 63.234375 61.167969 63.496094 61.445312 C 63.460938 61.488281 63.421875 61.53125 63.386719 61.574219 C 63.019531 61.324219 62.644531 61.082031 62.269531 60.84375 C 62.246094 60.902344 62.210938 60.972656 62.175781 61.03125 C 62.527344 61.433594 62.867188 61.828125 63.214844 62.234375 C 63.105469 62.328125 63.003906 62.421875 62.902344 62.515625 C 62.59375 62.105469 62.289062 61.683594 61.980469 61.265625 C 61.707031 62.128906 62.746094 62.25 62.859375 63.097656 C 62.339844 62.695312 61.957031 62.386719 61.503906 62.035156 C 61.230469 63.125 62.542969 63.039062 62.722656 63.929688 C 62.167969 63.570312 61.75 63.296875 61.289062 62.988281 C 61.300781 63.964844 62.261719 64.023438 62.714844 64.53125 C 62.671875 64.597656 62.628906 64.667969 62.585938 64.734375 C 62.125 64.46875 61.65625 64.203125 61.214844 63.9375 C 60.976562 65.171875 62.484375 64.925781 62.925781 65.851562 C 62.347656 65.601562 61.921875 65.421875 61.425781 65.207031 C 61.519531 66.339844 62.601562 66.03125 63.046875 66.691406 Z M 37.257812 77.027344 C 37.230469 77.003906 37.203125 76.984375 37.1875 76.96875 C 37.085938 77.148438 36.957031 77.320312 36.890625 77.507812 C 35.085938 82.308594 33.296875 87.117188 31.515625 91.917969 C 31.449219 92.097656 31.40625 92.355469 31.488281 92.507812 C 32.238281 93.90625 33.023438 95.285156 33.789062 96.667969 C 33.5 94.582031 33.578125 92.570312 34.128906 90.570312 C 34.921875 87.71875 35.765625 84.878906 36.457031 82 C 36.847656 80.371094 37 78.683594 37.257812 77.027344 Z M 47.5625 41.035156 C 47.535156 41.222656 47.535156 41.410156 47.484375 41.589844 C 46.582031 44.746094 45.6875 47.910156 44.757812 51.054688 C 44.402344 52.28125 43.824219 53.464844 44.035156 54.800781 C 44.332031 56.660156 44.546875 58.546875 44.957031 60.390625 C 45.414062 62.457031 46.078125 64.46875 46.617188 66.519531 C 46.785156 67.152344 46.835938 67.820312 46.941406 68.472656 C 47.167969 67.753906 47.316406 67.066406 47.324219 66.363281 C 47.347656 64.984375 47.492188 63.5625 47.238281 62.222656 C 46.878906 60.371094 46.183594 58.597656 45.664062 56.78125 C 45.398438 55.863281 45.039062 54.929688 45.015625 54.003906 C 44.972656 51.964844 45.457031 50.015625 46.394531 48.191406 C 46.863281 47.28125 47.28125 46.339844 47.605469 45.371094 C 48.074219 43.941406 47.96875 42.472656 47.5625 41.035156 Z M 76.023438 76.890625 C 75.734375 77.140625 75.480469 77.363281 75.207031 77.601562 C 77.039062 78.964844 77.761719 80.824219 77.804688 83.011719 C 79.144531 83.15625 80.097656 82.582031 80.742188 81.554688 C 81.78125 79.890625 81.714844 78.152344 80.914062 76.308594 C 80.785156 76.726562 80.683594 77.054688 80.589844 77.378906 C 80.539062 77.363281 80.488281 77.355469 80.4375 77.34375 C 80.480469 76.796875 80.523438 76.238281 80.566406 75.691406 C 80.523438 75.683594 80.480469 75.671875 80.4375 75.664062 C 80.351562 76 80.265625 76.332031 80.183594 76.667969 C 80.140625 76.660156 80.089844 76.660156 80.046875 76.652344 C 80.003906 76.058594 79.960938 75.476562 79.917969 74.886719 C 79.867188 74.894531 79.824219 74.902344 79.773438 74.910156 C 79.714844 75.417969 79.644531 75.921875 79.585938 76.417969 C 79.527344 76.410156 79.457031 76.402344 79.398438 76.386719 C 79.296875 75.714844 79.730469 74.953125 79.050781 74.257812 C 79.007812 74.910156 78.980469 75.433594 78.945312 75.957031 C 78.46875 74.054688 78.46875 74.054688 78.128906 74.0625 C 78.214844 74.695312 78.289062 75.339844 78.375 75.980469 C 77.738281 75.375 78.238281 74.191406 77.167969 73.789062 C 77.363281 74.738281 77.542969 75.585938 77.710938 76.4375 C 77.644531 76.453125 77.574219 76.472656 77.507812 76.488281 C 77.34375 75.871094 77.183594 75.253906 77.03125 74.679688 C 76.09375 75.578125 77.328125 76.203125 77.269531 77.046875 C 77.023438 76.71875 76.785156 76.402344 76.535156 76.085938 C 76.128906 76.375 76.195312 76.617188 76.476562 76.90625 C 76.707031 77.140625 76.886719 77.421875 77.082031 77.679688 C 77.011719 77.738281 76.945312 77.789062 76.867188 77.84375 C 76.578125 77.515625 76.296875 77.191406 76.023438 76.890625 Z M 42.554688 55.359375 C 42.382812 55.519531 42.246094 55.632812 42.117188 55.769531 C 39.148438 59.179688 36.15625 62.566406 33.234375 66.011719 C 32.519531 66.851562 31.90625 67.832031 31.488281 68.839844 C 31.140625 69.691406 31.148438 70.683594 30.980469 71.695312 C 31.601562 70.847656 32.113281 70.042969 32.726562 69.320312 C 35.050781 66.65625 37.417969 64.023438 39.742188 61.359375 C 40.375 60.636719 41.070312 59.925781 41.445312 59.070312 C 41.964844 57.921875 42.195312 56.636719 42.554688 55.359375 Z M 54.273438 59.257812 C 54.179688 59.300781 54.078125 59.34375 53.976562 59.378906 C 54.109375 60.132812 54.246094 60.894531 54.390625 61.648438 C 53.761719 60.921875 53.652344 60.082031 53.695312 59.207031 C 52.960938 60.253906 53.820312 61.222656 53.957031 62.222656 C 53.890625 62.25 53.820312 62.265625 53.746094 62.292969 C 53.472656 61.617188 53.199219 60.9375 52.882812 60.148438 C 52.457031 61.453125 53.457031 62.292969 53.753906 63.304688 C 53.675781 63.339844 53.601562 63.371094 53.523438 63.40625 C 53.164062 62.738281 52.808594 62.078125 52.375 61.273438 C 52.289062 62.542969 53.164062 63.21875 53.675781 64.058594 C 53.609375 64.109375 53.550781 64.160156 53.480469 64.210938 C 53.054688 63.714844 52.621094 63.210938 52.175781 62.6875 C 52.023438 63.964844 53.320312 64.402344 53.726562 65.328125 C 53.675781 65.371094 53.625 65.414062 53.574219 65.445312 C 53.214844 65.113281 52.867188 64.769531 52.484375 64.410156 C 52.78125 66.664062 55.363281 67.796875 57.167969 66.476562 C 58.847656 65.257812 59.324219 63.21875 58.964844 61.265625 C 58.863281 60.714844 58.574219 60.199219 58.371094 59.667969 C 58.300781 59.695312 58.234375 59.722656 58.164062 59.753906 C 58.421875 60.742188 58.675781 61.726562 58.933594 62.710938 C 58.839844 62.746094 58.746094 62.773438 58.652344 62.808594 C 58.597656 62.660156 58.539062 62.523438 58.496094 62.378906 C 58.242188 61.632812 58.003906 60.886719 57.738281 60.148438 C 57.695312 60.046875 57.507812 59.988281 57.226562 59.808594 C 57.542969 60.828125 58.078125 61.582031 57.765625 62.488281 C 57.570312 62.042969 57.476562 61.574219 57.320312 61.117188 C 57.175781 60.714844 56.964844 60.339844 56.792969 59.945312 C 56.734375 59.976562 56.675781 60.011719 56.613281 60.046875 C 57.058594 61.617188 57.066406 61.785156 56.683594 62.085938 C 56.417969 60.210938 56.257812 59.890625 55.574219 59.933594 C 55.710938 60.550781 55.847656 61.167969 55.976562 61.785156 C 55.898438 61.804688 55.816406 61.828125 55.738281 61.847656 C 55.5 61.117188 55.269531 60.398438 55.039062 59.679688 C 54.960938 59.703125 54.886719 59.730469 54.808594 59.753906 C 54.894531 60.390625 54.980469 61.023438 55.066406 61.660156 C 54.980469 61.675781 54.894531 61.691406 54.808594 61.710938 C 54.628906 60.894531 54.453125 60.082031 54.273438 59.257812 Z M 38.464844 72.097656 C 38.414062 72.074219 38.355469 72.046875 38.304688 72.023438 C 37.9375 72.578125 37.570312 73.144531 37.203125 73.703125 C 34.625 77.679688 32.101562 81.699219 30.339844 86.132812 C 30.167969 86.542969 29.921875 87.003906 30 87.390625 C 30.289062 88.804688 30.699219 90.195312 31.0625 91.601562 C 31.746094 90.058594 32.230469 88.53125 32.785156 87.023438 C 34.292969 82.933594 35.578125 78.757812 37.589844 74.859375 C 38.023438 74.011719 38.175781 73.023438 38.464844 72.097656 Z M 45.464844 47.503906 C 45.421875 47.488281 45.390625 47.472656 45.355469 47.464844 C 45.296875 47.53125 45.226562 47.601562 45.183594 47.675781 C 43.398438 51.3125 40.484375 54.027344 37.722656 56.867188 C 36.300781 58.324219 34.828125 59.746094 33.378906 61.179688 C 33.253906 61.316406 33.109375 61.460938 33.058594 61.632812 C 32.546875 63.519531 32.050781 65.414062 31.550781 67.308594 C 31.617188 67.324219 31.675781 67.332031 31.746094 67.351562 C 32.28125 66.613281 32.765625 65.851562 33.347656 65.148438 C 34.914062 63.253906 36.507812 61.367188 38.117188 59.507812 C 39.214844 58.230469 40.246094 56.839844 41.539062 55.796875 C 42.605469 54.921875 43.269531 53.945312 43.667969 52.691406 C 43.746094 52.46875 43.824219 52.253906 43.898438 52.039062 C 44.417969 50.523438 44.945312 49.015625 45.464844 47.503906 Z M 65.472656 51.046875 C 65.421875 51.046875 65.371094 51.054688 65.3125 51.054688 C 65.25 50.730469 65.132812 50.394531 65.125 50.058594 C 65.113281 49.699219 64.945312 49.570312 64.636719 49.417969 C 63.070312 48.65625 61.085938 49.820312 60.515625 51.269531 C 60.457031 51.433594 60.566406 51.773438 60.71875 51.886719 C 61.214844 52.261719 61.757812 52.582031 62.289062 52.921875 C 62.253906 52.992188 62.21875 53.058594 62.183594 53.128906 C 61.648438 52.847656 61.113281 52.5625 60.550781 52.273438 C 60.789062 53.488281 62.074219 53.058594 62.652344 53.804688 C 62.125 53.675781 61.589844 53.550781 61.042969 53.421875 C 61.042969 53.902344 61.238281 54.070312 61.714844 54.0625 C 62.203125 54.0625 62.6875 54.175781 63.183594 54.234375 C 63.183594 54.3125 63.171875 54.378906 63.171875 54.457031 C 62.550781 54.421875 61.9375 54.398438 61.316406 54.363281 C 61.238281 55.179688 61.777344 55.074219 62.234375 55.015625 C 62.703125 54.953125 63.171875 54.835938 63.640625 54.742188 C 63.660156 54.816406 63.675781 54.894531 63.703125 54.980469 C 63.15625 55.125 62.621094 55.261719 62.039062 55.417969 C 62.5 55.898438 62.910156 56.105469 63.515625 55.71875 C 63.855469 55.503906 64.304688 55.453125 64.707031 55.324219 C 64.730469 55.402344 64.75 55.46875 64.773438 55.546875 C 64.316406 55.742188 63.847656 55.949219 63.351562 56.15625 C 64.128906 56.882812 64.78125 55.855469 65.609375 56.121094 C 65.25 56.316406 65.003906 56.445312 64.714844 56.601562 C 66.265625 57.019531 67.953125 56.464844 68.582031 55.382812 C 69.074219 54.542969 68.992188 53.53125 68.367188 52.914062 C 68.324219 53.144531 68.292969 53.378906 68.25 53.609375 C 68.191406 53.609375 68.121094 53.601562 68.0625 53.601562 C 68.035156 53.136719 68.019531 52.675781 68.003906 52.210938 C 67.953125 52.210938 67.898438 52.21875 67.847656 52.21875 C 67.78125 52.453125 67.722656 52.683594 67.617188 53.027344 C 67.296875 52.339844 67.804688 51.613281 67.109375 51.113281 C 67.066406 51.570312 67.03125 51.953125 66.996094 52.332031 C 66.484375 50.574219 66.484375 50.574219 66.246094 50.480469 C 66.222656 50.816406 66.1875 51.15625 66.152344 51.492188 C 65.949219 51.183594 65.941406 50.882812 65.882812 50.589844 C 65.832031 50.335938 65.738281 50.09375 65.667969 49.835938 C 65.601562 49.855469 65.539062 49.871094 65.472656 49.890625 C 65.472656 50.273438 65.472656 50.660156 65.472656 51.046875 Z M 41.199219 60.492188 C 41.15625 60.457031 41.105469 60.425781 41.0625 60.390625 C 41.011719 60.492188 40.96875 60.613281 40.894531 60.707031 C 39.878906 61.957031 38.898438 63.242188 37.828125 64.453125 C 36.132812 66.363281 34.316406 68.171875 32.664062 70.109375 C 31.789062 71.140625 30.851562 72.160156 30.585938 73.597656 C 30.238281 75.5625 29.777344 77.507812 29.359375 79.460938 C 29.597656 79.359375 29.710938 79.214844 29.8125 79.058594 C 31.507812 76.511719 33.125 73.917969 34.921875 71.4375 C 36.625 69.097656 38.515625 66.894531 40.320312 64.625 C 40.425781 64.488281 40.492188 64.308594 40.527344 64.136719 C 40.757812 62.917969 40.976562 61.710938 41.199219 60.492188 Z M 75.839844 62.5 C 77.167969 62.394531 78.367188 62.308594 79.570312 62.214844 C 79.664062 62.207031 79.765625 62.128906 79.832031 62.050781 C 81.238281 60.550781 82.566406 58.976562 84.046875 57.5625 C 86.832031 54.902344 89.949219 52.691406 93.265625 50.753906 C 93.65625 50.523438 94.039062 50.292969 94.421875 50.070312 C 93.210938 49.441406 92.132812 49.5625 91 50.25 C 85.863281 53.328125 81.066406 56.824219 76.859375 61.117188 C 76.476562 61.503906 76.203125 61.992188 75.839844 62.5 Z M 57.808594 44.042969 C 57.738281 44.085938 57.664062 44.128906 57.59375 44.179688 C 57.261719 43.367188 56.929688 42.550781 56.589844 41.738281 C 56.503906 41.78125 56.417969 41.824219 56.324219 41.867188 C 56.726562 42.9375 57.132812 44.015625 57.613281 45.277344 C 56.589844 44.214844 56.265625 43.046875 56.035156 41.8125 C 55.804688 41.855469 55.609375 41.898438 55.386719 41.941406 C 55.644531 43.460938 56.625 44.558594 57.289062 45.816406 C 56.09375 44.875 55.464844 43.589844 54.886719 42.234375 C 54.929688 43.785156 55.847656 44.984375 56.613281 46.246094 C 55.449219 45.320312 54.777344 44.078125 54.273438 42.679688 C 54.164062 42.910156 54.078125 43.160156 54.136719 43.355469 C 54.496094 44.558594 54.996094 45.671875 55.898438 46.570312 C 55.984375 46.65625 56.027344 46.792969 56.085938 46.914062 C 54.835938 46.160156 54.230469 44.976562 53.710938 43.683594 C 53.660156 44.050781 53.589844 44.472656 53.761719 44.746094 C 54.289062 45.59375 54.902344 46.382812 55.480469 47.195312 C 55.609375 47.378906 55.710938 47.566406 55.824219 47.746094 C 55.746094 47.796875 55.667969 47.847656 55.59375 47.898438 C 54.886719 47.042969 54.171875 46.175781 53.457031 45.320312 C 53.957031 46.527344 54.75 47.53125 55.644531 48.484375 C 54.816406 48.3125 54.441406 47.574219 53.855469 47.058594 C 54.101562 47.667969 54.296875 48.355469 54.75 48.75 C 55.109375 49.046875 55.78125 48.972656 56.308594 49.066406 C 56.386719 48.6875 56.4375 48.347656 56.519531 47.917969 C 56.84375 48.40625 56.34375 49.152344 57.195312 49.289062 C 57.226562 48.730469 57.253906 48.25 57.289062 47.761719 C 57.679688 48.355469 57.226562 49.089844 57.894531 49.71875 C 57.925781 49.082031 57.960938 48.613281 57.984375 48.148438 C 58.394531 48.738281 57.917969 49.539062 58.582031 50.09375 C 58.632812 49.632812 58.675781 49.246094 58.710938 48.867188 C 59.035156 49.503906 58.675781 50.28125 59.410156 50.746094 C 59.503906 50.28125 59.578125 49.847656 59.664062 49.410156 C 59.714844 49.410156 59.773438 49.410156 59.824219 49.417969 C 59.824219 50.042969 59.824219 50.667969 59.824219 51.140625 C 60.4375 50.515625 61.027344 49.792969 61.734375 49.238281 C 62.152344 48.910156 62.339844 48.613281 62.269531 48.132812 C 62.21875 47.78125 62.167969 47.4375 62.089844 47.09375 C 61.648438 45.183594 60.585938 43.726562 58.90625 42.542969 C 59.085938 43.082031 59.222656 43.519531 59.367188 43.949219 C 59.296875 43.972656 59.238281 44 59.171875 44.027344 C 59 43.65625 58.847656 43.289062 58.652344 42.9375 C 58.480469 42.636719 58.265625 42.355469 58.070312 42.070312 C 58.019531 42.105469 57.96875 42.140625 57.925781 42.164062 C 58.71875 43.648438 58.71875 43.648438 58.496094 44.035156 C 58.132812 43.324219 57.730469 42.566406 57.339844 41.8125 C 57.238281 41.855469 57.144531 41.898438 57.050781 41.941406 C 57.304688 42.644531 57.550781 43.339844 57.808594 44.042969 Z M 66.972656 65.882812 C 67.710938 66.21875 68.25 66.542969 68.828125 66.707031 C 71.289062 67.394531 73.46875 65.851562 73.214844 63.203125 C 72.96875 60.679688 71 58.8125 68.417969 58.488281 C 68.683594 58.742188 68.957031 59.007812 69.21875 59.265625 C 69.175781 59.316406 69.136719 59.359375 69.09375 59.402344 C 68.574219 59.105469 68.054688 58.804688 67.535156 58.503906 C 67.78125 59.0625 68.582031 59.0625 68.605469 59.910156 C 68.15625 59.609375 67.796875 59.359375 67.433594 59.128906 C 66.742188 58.699219 66.742188 58.710938 66.394531 59.078125 C 66.851562 59.574219 67.671875 59.722656 67.859375 60.519531 C 67.296875 60.226562 66.800781 59.839844 66.273438 59.507812 C 66.128906 59.414062 65.898438 59.472656 65.703125 59.457031 C 65.6875 59.53125 65.675781 59.601562 65.667969 59.679688 C 66.238281 60.199219 66.808594 60.722656 67.390625 61.246094 C 67.320312 61.316406 67.253906 61.390625 67.183594 61.46875 C 66.597656 60.988281 66 60.507812 65.40625 60.03125 C 65.644531 61.101562 66.503906 61.691406 67.328125 62.308594 C 66.28125 62.242188 65.753906 61.453125 65.097656 60.742188 C 65.03125 60.972656 64.925781 61.136719 64.980469 61.230469 C 65.523438 62.371094 66.640625 62.894531 67.617188 63.570312 C 66.484375 63.585938 65.796875 62.78125 64.894531 62.070312 C 65.277344 63.808594 66.699219 63.964844 67.859375 64.476562 C 66.964844 64.804688 66.316406 64.195312 65.550781 63.878906 C 65.933594 65.328125 67.191406 65.277344 68.300781 65.472656 C 68.285156 65.53125 68.265625 65.601562 68.257812 65.660156 C 67.910156 65.722656 67.558594 65.78125 66.972656 65.882812 Z M 40.390625 65.351562 C 40.332031 65.328125 40.28125 65.292969 40.210938 65.265625 C 39.546875 66.132812 38.898438 67.023438 38.21875 67.871094 C 35.117188 71.746094 32.339844 75.855469 29.667969 80.027344 C 29.503906 80.277344 29.300781 80.578125 29.308594 80.84375 C 29.378906 82.625 29.496094 84.398438 29.597656 86.175781 C 29.855469 86.121094 29.921875 86.078125 29.941406 86.019531 C 32.007812 80.414062 35.339844 75.527344 38.660156 70.640625 C 38.824219 70.402344 39.0625 70.1875 39.136719 69.921875 C 39.574219 68.40625 39.972656 66.878906 40.390625 65.351562 Z M 69.644531 75.3125 C 70.03125 75.820312 70.414062 76.324219 70.796875 76.832031 C 71.050781 77.15625 71.347656 77.242188 71.773438 77.078125 C 72.609375 76.761719 73.488281 76.796875 74.296875 77.15625 C 74.738281 77.355469 74.960938 77.242188 75.242188 76.925781 C 77.054688 74.851562 76.886719 71.429688 74.851562 69.449219 C 73.511719 68.148438 71.859375 68.140625 70.414062 69.484375 C 70.769531 69.972656 71.136719 70.480469 71.554688 71.0625 C 70.804688 70.898438 70.574219 70.265625 70.199219 69.808594 C 70.148438 69.84375 70.097656 69.871094 70.046875 69.914062 C 70.394531 70.496094 70.753906 71.085938 71.109375 71.679688 C 71.050781 71.722656 71 71.757812 70.941406 71.800781 C 70.550781 71.335938 70.164062 70.875 69.75 70.367188 C 69.671875 71.378906 70.457031 71.867188 71.070312 72.628906 C 70.15625 72.433594 69.867188 71.789062 69.417969 71.078125 C 69.304688 72.382812 70.328125 72.777344 70.863281 73.46875 C 70.804688 73.523438 70.753906 73.582031 70.695312 73.640625 C 70.191406 73.214844 69.695312 72.785156 69.195312 72.347656 C 68.972656 73.710938 70.394531 73.777344 70.957031 74.515625 C 70.921875 74.566406 70.890625 74.621094 70.855469 74.671875 C 70.351562 74.394531 69.859375 74.121094 69.363281 73.839844 C 69.738281 75.132812 70.941406 75.304688 71.902344 75.820312 C 71.058594 76.09375 70.464844 75.492188 69.644531 75.3125 Z M 67.566406 79.472656 C 67.601562 79.410156 67.636719 79.359375 67.679688 79.300781 C 67.992188 79.460938 68.308594 79.632812 68.640625 79.769531 C 68.761719 79.824219 68.921875 79.78125 69.058594 79.78125 C 68.980469 79.652344 68.929688 79.488281 68.820312 79.394531 C 68.503906 79.109375 68.164062 78.855469 67.839844 78.589844 C 67.875 78.535156 67.917969 78.492188 67.96875 78.441406 C 68.386719 78.714844 68.804688 78.992188 69.195312 79.25 C 69.730469 78.613281 70.199219 78.039062 70.683594 77.472656 C 69.347656 75.894531 69.347656 75.894531 68.742188 73.925781 C 68.71875 73.8125 68.675781 73.703125 68.597656 73.625 C 67.628906 72.527344 65.167969 72.3125 64.007812 73.214844 C 62.832031 74.128906 62.839844 75.160156 64.015625 76.050781 C 64.152344 76.152344 64.273438 76.273438 64.398438 76.386719 C 64.339844 76.445312 64.289062 76.511719 64.230469 76.582031 C 63.785156 76.214844 63.34375 75.84375 62.824219 75.417969 C 62.976562 76.445312 63.863281 76.882812 64.316406 77.59375 C 64.261719 77.644531 64.210938 77.695312 64.167969 77.746094 C 63.742188 77.363281 63.316406 76.984375 62.867188 76.582031 C 62.816406 77.628906 63.820312 77.902344 64.28125 78.546875 C 64.238281 78.605469 64.195312 78.65625 64.152344 78.714844 C 63.835938 78.503906 63.523438 78.304688 63.214844 78.089844 C 63.171875 78.140625 63.121094 78.195312 63.078125 78.246094 C 63.554688 78.683594 64.023438 79.109375 64.492188 79.539062 C 64.484375 79.574219 64.476562 79.609375 64.46875 79.640625 C 64.230469 79.558594 63.992188 79.480469 63.753906 79.402344 C 63.703125 79.4375 63.660156 79.480469 63.617188 79.523438 C 64.28125 80.34375 64.9375 81.167969 65.601562 81.984375 C 65.660156 81.941406 65.71875 81.886719 65.78125 81.84375 C 65.609375 81.527344 65.429688 81.210938 65.261719 80.894531 C 67.558594 83.035156 67.984375 83.300781 68.84375 82.953125 C 67.890625 82.308594 66.75 81.941406 66.222656 80.773438 C 67.066406 81.382812 67.839844 81.929688 68.605469 82.480469 C 68.683594 82.386719 68.769531 82.300781 68.84375 82.207031 C 68.632812 81.964844 68.460938 81.664062 68.207031 81.503906 C 67.703125 81.195312 67.074219 81.058594 66.742188 80.363281 C 67.449219 80.730469 68.054688 81.039062 68.65625 81.347656 C 68.710938 81.28125 68.761719 81.210938 68.8125 81.140625 C 68.257812 80.757812 67.695312 80.371094 67.140625 79.984375 C 67.175781 79.941406 67.21875 79.898438 67.253906 79.847656 C 67.773438 80.097656 68.292969 80.34375 68.820312 80.59375 C 68.855469 80.535156 68.898438 80.464844 68.9375 80.398438 C 68.488281 80.089844 68.027344 79.78125 67.566406 79.472656 Z M 69.882812 79.675781 C 70.539062 80.097656 71.144531 80.484375 71.75 80.859375 C 71.699219 80.9375 71.648438 81.015625 71.597656 81.089844 C 70.992188 80.765625 70.394531 80.441406 69.773438 80.105469 C 69.425781 80.507812 69.578125 80.816406 69.996094 81.046875 C 70.363281 81.246094 70.746094 81.417969 71.101562 81.613281 C 71.230469 81.691406 71.324219 81.820312 71.433594 81.921875 C 71.390625 81.992188 71.339844 82.050781 71.289062 82.121094 C 70.695312 81.800781 70.089844 81.492188 69.46875 81.175781 C 69.136719 82.617188 70.804688 82.335938 71.273438 83.089844 C 71.238281 83.148438 71.203125 83.207031 71.171875 83.269531 C 70.589844 82.992188 70.003906 82.726562 69.332031 82.417969 C 69.605469 83.492188 70.777344 83.277344 71.265625 83.929688 C 71.238281 83.996094 71.214844 84.074219 71.1875 84.144531 C 70.667969 83.945312 70.15625 83.757812 69.605469 83.550781 C 69.59375 84.785156 70.976562 84.390625 71.535156 85.222656 C 70.949219 85.09375 70.53125 85 70.105469 84.90625 C 70.34375 85.976562 71.273438 85.738281 71.953125 86.078125 C 71.664062 86.121094 71.375 86.164062 71.058594 86.21875 C 73.273438 88.421875 75.691406 87.253906 76.730469 85.195312 C 77.34375 83.988281 77.355469 82.644531 77.003906 81.347656 C 76.578125 79.789062 75.71875 78.535156 74.058594 77.765625 C 75.027344 79.078125 75.113281 79.273438 74.953125 79.960938 C 74.28125 79.058594 74.132812 77.707031 72.636719 77.5 C 74.414062 79.460938 74.414062 79.460938 74.28125 80.011719 C 73.734375 79.386719 73.164062 78.726562 72.59375 78.066406 C 72.242188 77.664062 71.878906 77.636719 71.476562 78.015625 C 72.824219 78.8125 73.625 79.875 73.28125 80.277344 C 72.773438 79.71875 72.234375 79.1875 71.734375 78.613281 C 71.289062 78.089844 70.941406 78.140625 70.601562 78.691406 C 71.222656 79.25 72.160156 79.460938 72.429688 80.492188 C 71.671875 79.949219 71.007812 79.472656 70.308594 78.972656 C 70.132812 79.265625 70.03125 79.4375 69.882812 79.675781 Z M 54.070312 49.5625 C 52.5625 49.941406 51.617188 50.890625 51.179688 52.359375 C 50.40625 55.023438 52.1875 58.179688 55.003906 59.148438 C 56.972656 59.832031 58.703125 59.394531 60.003906 57.886719 C 60.78125 56.988281 61.050781 54.851562 60.542969 54.082031 C 60.40625 54.722656 60.25 55.425781 60.097656 56.128906 C 60.039062 56.113281 59.972656 56.105469 59.902344 56.085938 C 59.917969 54.910156 60.5 53.730469 60.003906 52.539062 C 59.824219 53.453125 59.910156 54.40625 59.425781 55.238281 C 59.433594 54.363281 59.492188 53.507812 59.597656 52.648438 C 59.671875 52.039062 59.554688 51.570312 58.964844 51.285156 C 58.761719 52.238281 59.144531 53.222656 58.683594 54.089844 C 58.632812 53.1875 58.609375 52.296875 58.640625 51.414062 C 58.667969 50.882812 58.480469 50.566406 57.960938 50.445312 C 57.960938 51.320312 57.960938 52.195312 57.960938 53.070312 C 57.390625 52.09375 58.054688 50.859375 57.132812 49.984375 C 57.132812 50.761719 57.132812 51.542969 57.132812 52.324219 C 56.929688 51.6875 56.84375 51.046875 56.8125 50.402344 C 56.777344 49.726562 56.800781 49.726562 56.113281 49.65625 C 56.164062 50.351562 56.222656 51.046875 56.273438 51.75 C 56.1875 51.75 56.113281 51.757812 56.027344 51.765625 C 55.960938 51.328125 55.875 50.898438 55.832031 50.464844 C 55.746094 49.597656 55.761719 49.597656 55.277344 49.589844 C 55.386719 50.171875 55.5 50.746094 55.609375 51.320312 C 54.886719 50.882812 55.386719 49.828125 54.410156 49.398438 C 54.640625 50.101562 54.808594 50.632812 54.972656 51.167969 C 54.902344 51.191406 54.835938 51.21875 54.765625 51.242188 C 54.535156 50.6875 54.296875 50.128906 54.070312 49.5625 Z M 52.175781 42.027344 C 52.015625 41.796875 51.855469 41.566406 51.574219 41.152344 C 51.453125 42.15625 50.507812 42.738281 51.097656 43.792969 C 51.335938 43.261719 51.503906 42.816406 51.734375 42.40625 C 51.820312 42.234375 52.042969 42.140625 52.195312 42.011719 C 51.992188 42.550781 51.835938 43.117188 51.574219 43.632812 C 51.34375 44.070312 51.351562 44.402344 51.691406 44.738281 C 52.03125 44 52.355469 43.269531 52.714844 42.5 C 52.550781 42.363281 52.363281 42.191406 52.175781 42.027344 Z M 48.582031 40.058594 C 47.988281 40.835938 48.3125 41.640625 48.394531 42.421875 C 48.59375 44.230469 48.269531 45.953125 47.390625 47.503906 C 46.386719 49.28125 45.832031 51.15625 45.621094 53.144531 C 45.542969 53.804688 45.652344 54.519531 45.839844 55.152344 C 46.410156 57.03125 47.058594 58.882812 47.679688 60.75 C 48.21875 62.34375 48.15625 64 48.082031 65.636719 C 47.9375 68.40625 47.367188 71.121094 46.097656 73.554688 C 44.632812 76.359375 43.292969 79.179688 42.222656 82.152344 C 41.796875 83.328125 40.808594 84.296875 40.09375 85.367188 C 38.542969 87.707031 36.863281 89.972656 35.484375 92.414062 C 34.453125 94.257812 34.445312 96.417969 34.625 98.519531 C 34.65625 98.894531 34.878906 99.253906 35.023438 99.65625 C 34.410156 99.847656 34.402344 99.289062 34.257812 99.007812 C 33.585938 97.730469 33.089844 96.339844 32.289062 95.15625 C 30.511719 92.527344 29.753906 89.558594 29.128906 86.527344 C 28.679688 84.332031 28.398438 82.101562 28.722656 79.867188 C 29.003906 77.875 29.460938 75.914062 29.820312 73.933594 C 30.304688 71.191406 30.765625 68.4375 31.234375 65.695312 C 32.050781 60.886719 34.054688 56.6875 37.476562 53.1875 C 39.085938 51.542969 40.765625 49.941406 42.179688 48.140625 C 44.121094 45.652344 45.984375 43.066406 46.90625 39.972656 C 47.050781 39.480469 47.007812 38.882812 46.871094 38.375 C 46.222656 35.992188 45.527344 33.628906 44.835938 31.261719 C 43.769531 27.628906 43.644531 23.90625 43.761719 20.167969 C 43.804688 18.902344 43.976562 17.613281 44.570312 16.441406 C 44.808594 15.96875 45.007812 15.480469 45.679688 15.59375 C 46.316406 15.695312 46.820312 16.242188 46.828125 16.914062 C 46.835938 17.964844 46.855469 19.03125 46.761719 20.082031 C 46.566406 22.355469 46.820312 24.59375 47.179688 26.820312 C 47.425781 28.363281 47.511719 29.96875 47.980469 31.441406 C 48.8125 34.039062 49.792969 36.601562 50.917969 39.078125 C 51.53125 40.449219 52.5625 41.617188 53.429688 42.910156 C 54.476562 41.429688 56.019531 40.664062 58.753906 41.875 C 59.613281 40.886719 60.644531 40.21875 62.023438 40.160156 C 63.980469 40.082031 65.761719 41.726562 65.175781 44.308594 C 64.945312 45.335938 64.40625 46.261719 63.480469 46.707031 C 62.484375 47.1875 62.476562 47.890625 62.609375 48.730469 C 63.316406 48.792969 63.761719 48.449219 64.210938 47.910156 C 66.128906 45.636719 69.945312 45.722656 71.46875 48.019531 C 72.679688 49.855469 72.074219 52.402344 70.089844 53.625 C 69.527344 53.96875 69.230469 54.335938 69.136719 55.023438 C 68.980469 56.144531 67.652344 57.105469 66.339844 57.15625 C 64.894531 57.210938 64.144531 57.304688 61.664062 55.828125 C 61.863281 56.257812 61.980469 56.609375 62.160156 56.902344 C 62.703125 57.75 63.265625 58.582031 63.828125 59.414062 C 64.128906 59.847656 64.59375 59.917969 64.859375 59.507812 C 66.113281 57.507812 68.957031 57.398438 70.804688 58.582031 C 71.289062 58.898438 71.742188 59.273438 72.3125 59.695312 C 73.027344 58.820312 73.800781 57.921875 74.535156 56.976562 C 75.242188 56.0625 75.8125 54.996094 76.621094 54.175781 C 77.625 53.144531 78.714844 52.109375 79.960938 51.433594 C 82.378906 50.113281 85.054688 49.511719 87.789062 49.066406 C 90.640625 48.601562 93.304688 49.144531 96.015625 49.914062 C 98.511719 50.625 101.066406 51.125 103.601562 51.601562 C 105.46875 51.964844 107.0625 52.785156 108.570312 53.882812 C 110.621094 55.390625 112.964844 56.285156 115.425781 56.859375 C 115.648438 56.910156 115.894531 56.816406 116.125 56.867188 C 116.3125 56.902344 116.472656 57.03125 116.675781 57.132812 C 115.355469 57.339844 114.089844 57.390625 112.921875 57.757812 C 111.53125 58.203125 110.152344 58.777344 108.933594 59.550781 C 106.679688 60.964844 104.496094 62.5 102.378906 64.101562 C 100.828125 65.277344 99.21875 66.160156 97.292969 66.5625 C 95.546875 66.929688 93.851562 67.53125 92.148438 68.078125 C 89.015625 69.089844 85.804688 69.375 82.539062 69.03125 C 80.632812 68.824219 78.828125 68.199219 77.0625 67.46875 C 76.230469 67.117188 75.359375 66.851562 74.527344 66.492188 C 74.09375 66.304688 73.699219 66.003906 73.242188 65.730469 C 72.089844 67.402344 70.421875 67.769531 68.460938 67.214844 C 68.035156 67.789062 68.179688 68.199219 69.382812 69.808594 C 70.089844 68.703125 71.015625 67.933594 72.371094 67.898438 C 74.296875 67.839844 75.546875 68.894531 76.316406 70.53125 C 76.742188 71.449219 76.917969 72.476562 77.226562 73.480469 C 78.46875 73.300781 79.558594 73.875 80.480469 74.84375 C 82.328125 76.761719 82.550781 80.148438 80.941406 82.214844 C 80.140625 83.234375 79.066406 83.628906 77.855469 83.527344 C 77.675781 84.125 77.5 84.71875 77.320312 85.308594 C 77.15625 85.824219 77.40625 86.175781 77.847656 86.277344 C 79.3125 86.621094 80.785156 86.953125 82.269531 87.203125 C 82.855469 87.304688 83.503906 87.273438 84.074219 87.125 C 85.921875 86.628906 87.769531 86.242188 89.40625 85.027344 C 91.28125 83.636719 93.230469 82.257812 95.546875 81.621094 C 95.988281 81.492188 96.527344 81.492188 96.976562 81.597656 C 98.722656 82 100.484375 81.957031 102.25 82.09375 C 104.769531 82.292969 107.292969 82.898438 109.234375 84.570312 C 110.894531 85.984375 112.632812 87.246094 114.394531 88.515625 C 116.199219 89.800781 117.238281 91.710938 118.226562 93.632812 C 118.992188 95.140625 120.023438 96.347656 121.726562 97.207031 C 121.371094 97.300781 121.105469 97.464844 120.953125 97.394531 C 117.929688 96.074219 115.238281 97.242188 112.65625 98.628906 C 110.492188 99.796875 108.296875 100.429688 105.835938 100.308594 C 100.5625 100.042969 95.425781 99.296875 90.828125 96.46875 C 89.441406 95.621094 88.101562 94.652344 86.875 93.582031 C 84.636719 91.644531 82.226562 89.980469 79.652344 88.546875 C 79.3125 88.359375 78.996094 88.136719 78.675781 87.929688 C 78.625 87.972656 78.570312 88.015625 78.53125 88.070312 C 79.355469 89.0625 80.140625 90.101562 81.007812 91.050781 C 83.402344 93.640625 85.863281 96.160156 88.222656 98.765625 C 89.429688 100.113281 90.5625 101.519531 92.039062 102.589844 C 92.488281 102.914062 92.933594 103.300781 93.433594 103.515625 C 95.375 104.328125 96.695312 105.820312 97.855469 107.5 C 98.84375 108.941406 99.839844 110.382812 100.75 111.882812 C 102.164062 114.214844 102.480469 116.75 102.273438 119.460938 C 102.097656 121.824219 101.023438 123.898438 100.46875 126.136719 C 100 128.058594 99.351562 129.960938 99.523438 131.992188 C 99.574219 132.550781 99.726562 133.089844 99.8125 133.644531 C 99.832031 133.773438 99.78125 133.921875 99.761719 134.058594 C 99.625 133.988281 99.480469 133.9375 99.371094 133.84375 C 99.261719 133.730469 99.167969 133.585938 99.097656 133.441406 C 98.332031 131.828125 97.078125 130.644531 95.75 129.515625 C 93.679688 127.757812 92.0625 125.613281 90.667969 123.28125 C 89.761719 121.78125 88.835938 120.292969 87.828125 118.859375 C 86.773438 117.351562 86.230469 115.6875 86.058594 113.886719 C 85.914062 112.34375 85.71875 110.785156 85.777344 109.25 C 85.84375 107.449219 86.210938 105.667969 86.363281 103.875 C 86.46875 102.597656 86.636719 101.269531 86.375 100.050781 C 86.160156 99.058594 85.460938 98.097656 84.773438 97.300781 C 83.027344 95.277344 81.160156 93.347656 79.347656 91.386719 C 79.269531 91.300781 79.175781 91.222656 79.066406 91.121094 C 79.339844 92.113281 79.644531 93.058594 79.839844 94.027344 C 80.4375 96.921875 80.027344 99.734375 79.160156 102.539062 C 78.308594 105.273438 77.15625 107.84375 75.335938 110.046875 C 74.023438 111.632812 72.523438 113.074219 71.078125 114.546875 C 69.953125 115.6875 68.792969 116.777344 67.636719 117.882812 C 67.441406 118.070312 67.175781 118.191406 66.851562 118.414062 C 66.851562 117.703125 66.953125 117.144531 66.828125 116.65625 C 66.570312 115.714844 66.230469 114.789062 65.839844 113.894531 C 64.671875 111.246094 64.375 108.503906 64.621094 105.632812 C 64.765625 103.960938 65.175781 102.367188 65.652344 100.773438 C 66.085938 99.296875 66.871094 98.0625 68.128906 97.207031 C 71.222656 95.097656 73.273438 92.140625 74.917969 88.839844 C 75.105469 88.445312 75.320312 88.050781 75.496094 87.726562 C 74.707031 87.792969 73.894531 88.027344 73.148438 87.90625 C 71.050781 87.582031 69.800781 86.183594 69.101562 84.246094 C 68.957031 83.824219 68.804688 83.644531 68.316406 83.558594 C 65.457031 83.078125 62.96875 80.515625 62.421875 77.59375 C 62.144531 76.09375 62.132812 74.628906 63.113281 73.359375 C 64.058594 72.125 65.34375 71.832031 66.808594 72.191406 C 66.964844 72.234375 67.117188 72.269531 67.398438 72.332031 C 66.964844 71.4375 66.589844 70.640625 66.195312 69.863281 C 66.136719 69.75 65.941406 69.621094 65.820312 69.640625 C 63.710938 69.871094 62.476562 68.644531 61.554688 66.980469 C 60.738281 65.5 60.492188 63.902344 60.96875 62.242188 C 61.011719 62.085938 61.050781 61.890625 60.992188 61.761719 C 60.609375 60.816406 60.191406 59.882812 59.765625 58.921875 C 59.367188 59.171875 59.050781 59.371094 58.710938 59.574219 C 59.808594 61.625 59.800781 63.65625 58.574219 65.617188 C 57.695312 67.03125 56.394531 67.789062 54.722656 67.453125 C 53.207031 67.152344 52.304688 66.03125 51.964844 64.589844 C 51.742188 63.65625 51.886719 62.644531 51.835938 61.675781 C 51.820312 61.445312 51.742188 61.101562 51.574219 61.007812 C 50.109375 60.117188 49.554688 58.683594 49.222656 57.113281 C 48.925781 55.71875 49.007812 54.363281 49.980469 53.265625 C 50.433594 52.75 50.671875 52.195312 50.910156 51.585938 C 51.378906 50.410156 52.28125 49.65625 53.507812 49.144531 C 51.863281 46.109375 50.234375 43.117188 48.582031 40.058594 " fill-opacity="1" fill-rule="evenodd"/></g><path fill="#231f20" d="M 53.242188 50.675781 C 53.550781 50.996094 53.789062 51.132812 53.828125 51.304688 C 53.90625 51.679688 53.257812 52.417969 52.945312 52.296875 C 52.738281 52.210938 52.46875 51.816406 52.519531 51.644531 C 52.613281 51.328125 52.917969 51.082031 53.242188 50.675781 " fill-opacity="1" fill-rule="evenodd"/><path fill="#231f20" d="M 74.253906 85.460938 C 74.714844 85.207031 74.996094 85.015625 75.300781 84.914062 C 75.351562 84.898438 75.632812 85.308594 75.632812 85.515625 C 75.632812 85.960938 75.320312 86.21875 74.894531 86.121094 C 74.707031 86.078125 74.570312 85.804688 74.253906 85.460938 " fill-opacity="1" fill-rule="evenodd"/><path fill="#231f20" d="M 64.980469 73.445312 C 65.125 73.832031 65.277344 74.042969 65.226562 74.140625 C 65.0625 74.414062 64.824219 74.636719 64.613281 74.875 C 64.492188 74.714844 64.246094 74.480469 64.289062 74.386719 C 64.40625 74.105469 64.648438 73.875 64.980469 73.445312 " fill-opacity="1" fill-rule="evenodd"/><path fill="#231f20" d="M 72.148438 69.039062 C 72.449219 69.332031 72.636719 69.519531 72.832031 69.707031 C 72.59375 69.863281 72.371094 70.074219 72.117188 70.136719 C 71.996094 70.160156 71.664062 69.851562 71.683594 69.757812 C 71.734375 69.527344 71.945312 69.339844 72.148438 69.039062 " fill-opacity="1" fill-rule="evenodd"/><path fill="#231f20" d="M 71.9375 64.332031 C 72.183594 64.847656 72.277344 65.285156 71.808594 65.574219 C 71.671875 65.671875 71.230469 65.574219 71.214844 65.507812 C 71.070312 64.933594 71.453125 64.632812 71.9375 64.332031 " fill-opacity="1" fill-rule="evenodd"/><path fill="#231f20" d="M 61.503906 51.6875 C 61.785156 51.292969 61.988281 51.027344 62.183594 50.753906 C 62.3125 50.882812 62.550781 51.003906 62.542969 51.125 C 62.527344 51.570312 62.320312 51.878906 61.503906 51.6875 " fill-opacity="1" fill-rule="evenodd"/><path fill="#231f20" d="M 78.640625 81.101562 C 78.945312 80.773438 79.144531 80.566406 79.339844 80.363281 C 79.515625 80.535156 79.867188 80.78125 79.832031 80.867188 C 79.714844 81.152344 79.457031 81.375 79.261719 81.613281 C 79.089844 81.476562 78.929688 81.347656 78.640625 81.101562 " fill-opacity="1" fill-rule="evenodd"/><path fill="#231f20" d="M 65.457031 68.148438 C 65.703125 68.019531 65.933594 67.847656 66.195312 67.789062 C 66.316406 67.761719 66.484375 67.984375 66.632812 68.085938 C 66.410156 68.25 66.214844 68.457031 65.964844 68.550781 C 65.847656 68.601562 65.652344 68.4375 65.480469 68.371094 C 65.472656 68.300781 65.464844 68.222656 65.457031 68.148438 " fill-opacity="1" fill-rule="evenodd"/><path fill="#231f20" d="M 62.882812 42.226562 C 63.367188 41.738281 63.667969 41.839844 63.878906 42.199219 C 63.929688 42.285156 63.8125 42.484375 63.769531 42.636719 C 63.496094 42.507812 63.234375 42.378906 62.882812 42.226562 " fill-opacity="1" fill-rule="evenodd"/></svg>