<svg xmlns="http://www.w3.org/2000/svg" xmlns:xlink="http://www.w3.org/1999/xlink" width="200" zoomAndPan="magnify" viewBox="0 0 150 149.999998" height="200" preserveAspectRatio="xMidYMid meet" version="1.0"><defs><clipPath id="8fe59195e2"><path d="M 17 2 L 150 2 L 150 140 L 17 140 Z M 17 2 " clip-rule="nonzero"/></clipPath><clipPath id="b8b466cd14"><path d="M -3.390625 71.472656 L 62.785156 -6.144531 L 162.09375 78.523438 L 95.914062 156.140625 Z M -3.390625 71.472656 " clip-rule="nonzero"/></clipPath><clipPath id="bf443e052a"><path d="M -3.390625 71.472656 L 62.785156 -6.144531 L 162.09375 78.523438 L 95.914062 156.140625 Z M -3.390625 71.472656 " clip-rule="nonzero"/></clipPath><clipPath id="a407a35381"><path d="M -3.390625 71.472656 L 62.785156 -6.144531 L 162.09375 78.523438 L 95.914062 156.140625 Z M -3.390625 71.472656 " clip-rule="nonzero"/></clipPath><clipPath id="bc46eeac41"><path d="M 78 83 L 81 83 L 81 87 L 78 87 Z M 78 83 " clip-rule="nonzero"/></clipPath><clipPath id="9c3363a407"><path d="M -3.390625 71.472656 L 62.785156 -6.144531 L 162.09375 78.523438 L 95.914062 156.140625 Z M -3.390625 71.472656 " clip-rule="nonzero"/></clipPath><clipPath id="7c00fa9d9a"><path d="M -3.390625 71.472656 L 62.785156 -6.144531 L 162.09375 78.523438 L 95.914062 156.140625 Z M -3.390625 71.472656 " clip-rule="nonzero"/></clipPath><clipPath id="e69610ab0a"><path d="M -3.390625 71.472656 L 62.785156 -6.144531 L 162.09375 78.523438 L 95.914062 156.140625 Z M -3.390625 71.472656 " clip-rule="nonzero"/></clipPath><clipPath id="22f1e95eb5"><path d="M 91 109 L 94 109 L 94 112 L 91 112 Z M 91 109 " clip-rule="nonzero"/></clipPath><clipPath id="3e9e490f4b"><path d="M -3.390625 71.472656 L 62.785156 -6.144531 L 162.09375 78.523438 L 95.914062 156.140625 Z M -3.390625 71.472656 " clip-rule="nonzero"/></clipPath><clipPath id="ee2cb23778"><path d="M -3.390625 71.472656 L 62.785156 -6.144531 L 162.09375 78.523438 L 95.914062 156.140625 Z M -3.390625 71.472656 " clip-rule="nonzero"/></clipPath><clipPath id="283e4c6f6c"><path d="M -3.390625 71.472656 L 62.785156 -6.144531 L 162.09375 78.523438 L 95.914062 156.140625 Z M -3.390625 71.472656 " clip-rule="nonzero"/></clipPath><clipPath id="feec05a6ba"><path d="M 92 30 L 95 30 L 95 34 L 92 34 Z M 92 30 " clip-rule="nonzero"/></clipPath><clipPath id="b4c372c471"><path d="M -3.390625 71.472656 L 62.785156 -6.144531 L 162.09375 78.523438 L 95.914062 156.140625 Z M -3.390625 71.472656 " clip-rule="nonzero"/></clipPath><clipPath id="d86b5da2a2"><path d="M -3.390625 71.472656 L 62.785156 -6.144531 L 162.09375 78.523438 L 95.914062 156.140625 Z M -3.390625 71.472656 " clip-rule="nonzero"/></clipPath><clipPath id="8cd6ed6ca8"><path d="M -3.390625 71.472656 L 62.785156 -6.144531 L 162.09375 78.523438 L 95.914062 156.140625 Z M -3.390625 71.472656 " clip-rule="nonzero"/></clipPath><clipPath id="2aa8099b7a"><path d="M 57 117 L 61 117 L 61 120 L 57 120 Z M 57 117 " clip-rule="nonzero"/></clipPath><clipPath id="9163117bad"><path d="M -3.390625 71.472656 L 62.785156 -6.144531 L 162.09375 78.523438 L 95.914062 156.140625 Z M -3.390625 71.472656 " clip-rule="nonzero"/></clipPath><clipPath id="68da2ea41e"><path d="M -3.390625 71.472656 L 62.785156 -6.144531 L 162.09375 78.523438 L 95.914062 156.140625 Z M -3.390625 71.472656 " clip-rule="nonzero"/></clipPath><clipPath id="06b03032c7"><path d="M -3.390625 71.472656 L 62.785156 -6.144531 L 162.09375 78.523438 L 95.914062 156.140625 Z M -3.390625 71.472656 " clip-rule="nonzero"/></clipPath><clipPath id="6ff3052fa3"><path d="M 55 20 L 58 20 L 58 23 L 55 23 Z M 55 20 " clip-rule="nonzero"/></clipPath><clipPath id="24f0b1a2f9"><path d="M -3.390625 71.472656 L 62.785156 -6.144531 L 162.09375 78.523438 L 95.914062 156.140625 Z M -3.390625 71.472656 " clip-rule="nonzero"/></clipPath><clipPath id="34abec90e9"><path d="M -3.390625 71.472656 L 62.785156 -6.144531 L 162.09375 78.523438 L 95.914062 156.140625 Z M -3.390625 71.472656 " clip-rule="nonzero"/></clipPath><clipPath id="17f2f793e9"><path d="M -3.390625 71.472656 L 62.785156 -6.144531 L 162.09375 78.523438 L 95.914062 156.140625 Z M -3.390625 71.472656 " clip-rule="nonzero"/></clipPath><clipPath id="ec095bf6be"><path d="M 49 83 L 51 83 L 51 86 L 49 86 Z M 49 83 " clip-rule="nonzero"/></clipPath><clipPath id="8780dd8258"><path d="M -3.390625 71.472656 L 62.785156 -6.144531 L 162.09375 78.523438 L 95.914062 156.140625 Z M -3.390625 71.472656 " clip-rule="nonzero"/></clipPath><clipPath id="8ab251d011"><path d="M -3.390625 71.472656 L 62.785156 -6.144531 L 162.09375 78.523438 L 95.914062 156.140625 Z M -3.390625 71.472656 " clip-rule="nonzero"/></clipPath><clipPath id="827cbacef5"><path d="M -3.390625 71.472656 L 62.785156 -6.144531 L 162.09375 78.523438 L 95.914062 156.140625 Z M -3.390625 71.472656 " clip-rule="nonzero"/></clipPath><clipPath id="5512199bd1"><path d="M 74 48 L 78 48 L 78 52 L 74 52 Z M 74 48 " clip-rule="nonzero"/></clipPath><clipPath id="f21505468b"><path d="M -3.390625 71.472656 L 62.785156 -6.144531 L 162.09375 78.523438 L 95.914062 156.140625 Z M -3.390625 71.472656 " clip-rule="nonzero"/></clipPath><clipPath id="bf591e1bc2"><path d="M -3.390625 71.472656 L 62.785156 -6.144531 L 162.09375 78.523438 L 95.914062 156.140625 Z M -3.390625 71.472656 " clip-rule="nonzero"/></clipPath><clipPath id="27a35c54c5"><path d="M -3.390625 71.472656 L 62.785156 -6.144531 L 162.09375 78.523438 L 95.914062 156.140625 Z M -3.390625 71.472656 " clip-rule="nonzero"/></clipPath><clipPath id="14ab1e78d5"><path d="M 66 4 L 69 4 L 69 7 L 66 7 Z M 66 4 " clip-rule="nonzero"/></clipPath><clipPath id="5e198e9796"><path d="M -3.390625 71.472656 L 62.785156 -6.144531 L 162.09375 78.523438 L 95.914062 156.140625 Z M -3.390625 71.472656 " clip-rule="nonzero"/></clipPath><clipPath id="de5843039d"><path d="M -3.390625 71.472656 L 62.785156 -6.144531 L 162.09375 78.523438 L 95.914062 156.140625 Z M -3.390625 71.472656 " clip-rule="nonzero"/></clipPath><clipPath id="b66acbd7b6"><path d="M -3.390625 71.472656 L 62.785156 -6.144531 L 162.09375 78.523438 L 95.914062 156.140625 Z M -3.390625 71.472656 " clip-rule="nonzero"/></clipPath></defs><g clip-path="url(#8fe59195e2)"><g clip-path="url(#b8b466cd14)"><g clip-path="url(#bf443e052a)"><g clip-path="url(#a407a35381)"><path fill="#231f20" d="M 74.375 110.800781 C 74.027344 111.929688 73.75 112.804688 73.480469 113.679688 C 73.636719 113.726562 73.804688 113.773438 73.960938 113.820312 C 74.019531 112.890625 75.402344 112.289062 74.375 110.800781 Z M 84.90625 138.039062 C 85.070312 138.117188 85.242188 138.191406 85.40625 138.269531 C 85.78125 136.882812 86.152344 135.507812 86.527344 134.121094 C 86.351562 134.070312 86.167969 134.023438 86 133.980469 C 85.628906 135.332031 85.269531 136.691406 84.90625 138.039062 Z M 80.523438 111.75 C 79.117188 110.96875 77.703125 110.179688 76.296875 109.398438 C 77.160156 111.164062 78.917969 111.316406 80.523438 111.75 Z M 74.785156 118.078125 C 74.953125 118.125 75.121094 118.171875 75.285156 118.222656 C 75.425781 117.167969 77.0625 116.5 75.792969 114.941406 C 75.429688 116.066406 75.101562 117.074219 74.785156 118.078125 Z M 73.96875 108.53125 C 73.710938 108.53125 73.441406 108.535156 73.175781 108.527344 C 73.09375 109.515625 73.015625 110.5 72.9375 111.5 C 73.183594 111.511719 73.429688 111.539062 73.683594 111.558594 C 73.78125 110.550781 73.871094 109.539062 73.96875 108.53125 Z M 75.128906 112.839844 C 74.628906 114.070312 73.554688 115.042969 74.601562 116.535156 C 74.773438 115.273438 76.195312 114.363281 75.128906 112.839844 Z M 77.679688 21.457031 C 77.53125 21.503906 77.382812 21.5625 77.234375 21.605469 C 76.992188 22.84375 78.382812 23.367188 78.644531 24.484375 C 79.035156 24.242188 79.292969 24.082031 79.550781 23.910156 C 78.910156 23.082031 78.292969 22.261719 77.679688 21.457031 Z M 73.476562 103.929688 C 73.769531 102.695312 74.015625 101.691406 74.257812 100.65625 C 72.296875 100.742188 72.242188 100.9375 73.476562 103.929688 Z M 78.226562 24.585938 C 77.636719 23.871094 77.144531 23.269531 76.640625 22.667969 C 75.601562 23.597656 75.6875 24.011719 77.136719 25.59375 C 77.449219 25.296875 77.777344 25 78.226562 24.585938 Z M 77.101562 124.015625 C 78.445312 122.15625 78.554688 121.367188 77.554688 120.148438 C 76.929688 121.414062 75.875 122.566406 77.101562 124.015625 Z M 76.253906 121.429688 C 76.824219 119.941406 77.796875 118.683594 76.628906 117.148438 C 75.230469 119.046875 75.195312 119.347656 76.253906 121.429688 Z M 69.542969 30.128906 C 69.304688 30.148438 69.066406 30.164062 68.832031 30.183594 C 69.164062 32.355469 69.492188 34.511719 69.851562 36.867188 C 71.046875 35.714844 70.78125 32.300781 69.542969 30.128906 Z M 78.382812 127.132812 C 79.96875 124.019531 79.96875 124.019531 78.660156 122.4375 C 77.902344 123.925781 76.84375 125.402344 78.382812 127.132812 Z M 82.859375 72.875 C 82.839844 73.089844 82.824219 73.308594 82.8125 73.519531 C 85.035156 73.589844 87.257812 73.65625 89.480469 73.726562 C 89.488281 73.585938 89.492188 73.441406 89.492188 73.292969 C 87.300781 72.847656 85.121094 72.066406 82.859375 72.875 Z M 46.070312 60.257812 C 47.242188 61.402344 48.726562 60.4375 50.070312 60.675781 C 51.488281 60.925781 52.9375 60.949219 54.363281 61.160156 C 55.800781 61.378906 57.230469 61.714844 58.660156 61.992188 C 58.683594 61.851562 58.699219 61.703125 58.71875 61.5625 C 54.589844 60.59375 50.441406 59.753906 46.070312 60.257812 Z M 32.070312 64.199219 C 32.570312 62.75 31.101562 58.285156 29.566406 57.367188 C 29.261719 57.195312 28.738281 57.386719 28.554688 57.402344 C 29.8125 59.824219 30.988281 62.101562 32.070312 64.199219 Z M 23.78125 66.109375 C 22.394531 70.46875 26.09375 72.3125 28.140625 74.960938 C 26.695312 72.027344 25.25 69.089844 23.78125 66.109375 Z M 60.875 64.285156 C 60.761719 60.273438 62.289062 56.355469 60.03125 52.503906 C 60.042969 55.164062 60.082031 57.648438 60.0625 60.132812 C 60.050781 61.507812 59.695312 62.921875 60.875 64.285156 Z M 81.988281 72.300781 C 84.296875 70.628906 84.253906 70.605469 85.191406 68.632812 C 86.558594 65.761719 88.007812 62.925781 89.550781 59.820312 C 88.644531 60.8125 87.664062 61.558594 87.136719 62.554688 C 85.972656 64.738281 85.121094 67.074219 84.011719 69.296875 C 83.476562 70.371094 82.667969 71.300781 81.988281 72.300781 Z M 59.101562 60.96875 C 59.238281 56.683594 59.96875 52.375 58.085938 48.355469 C 58.128906 52.058594 58.289062 55.738281 58.507812 59.421875 C 58.542969 59.941406 58.894531 60.449219 59.101562 60.96875 Z M 18.699219 53.585938 C 20.800781 51.941406 22.824219 50.359375 25.035156 48.625 C 23.632812 48.605469 22.429688 48.535156 21.214844 48.59375 C 20.824219 48.617188 20.238281 48.890625 20.125 49.195312 C 19.578125 50.644531 19.152344 52.144531 18.699219 53.585938 Z M 24.5 62.664062 C 23.484375 66.933594 26.992188 69.605469 28.125 73.136719 C 28.03125 69.265625 26.125 66.023438 24.5 62.664062 Z M 62.007812 60.136719 C 61.132812 65.019531 61.789062 69.746094 63.414062 74.367188 C 63.578125 74.347656 63.734375 74.324219 63.890625 74.308594 C 63.261719 69.582031 62.636719 64.867188 62.007812 60.136719 Z M 20.902344 47.835938 C 23.894531 47.824219 26.835938 48.46875 29.664062 46.40625 C 27.628906 46.175781 25.8125 45.917969 23.976562 45.785156 C 22.019531 45.636719 21.746094 45.871094 20.902344 47.835938 Z M 83.484375 22.679688 C 82.558594 20.195312 80.074219 18.25 78.5 18.785156 C 79.148438 19.335938 79.84375 19.84375 80.425781 20.453125 C 80.992188 21.054688 81.4375 21.753906 81.933594 22.410156 C 81.859375 22.457031 81.789062 22.507812 81.71875 22.546875 C 80.597656 21.589844 79.484375 20.640625 78.203125 19.550781 C 77.609375 21.554688 79.679688 22.265625 79.808594 23.75 C 81.136719 23.359375 82.308594 23.023438 83.484375 22.679688 Z M 54.597656 56.613281 C 51.765625 55.277344 42.65625 55.089844 39.027344 56.421875 C 41.179688 57.398438 41.175781 57.382812 43.402344 56.890625 C 43.804688 56.804688 44.214844 56.738281 44.625 56.734375 C 48.011719 56.6875 51.40625 56.652344 54.597656 56.613281 Z M 46.9375 51.003906 C 42.027344 50.777344 33.421875 53.089844 31.054688 55.390625 C 33.011719 55.5 34.707031 54.859375 36.519531 54.171875 C 40 52.851562 43.652344 51.976562 46.9375 51.003906 Z M 78.71875 76.640625 C 81.144531 72.269531 83.515625 67.976562 85.894531 63.691406 C 82.589844 65.828125 78.113281 74.199219 78.71875 76.640625 Z M 30.476562 68.410156 C 32.074219 65.6875 30.390625 59.9375 27.300781 57.9375 C 27.152344 58.644531 26.703125 59.476562 26.9375 59.800781 C 28.777344 62.347656 29.695312 65.253906 30.476562 68.410156 Z M 23.195312 51.25 C 17.933594 54.699219 17.070312 58.242188 19.601562 62.4375 C 20.246094 58.605469 20.84375 54.8125 23.195312 51.25 Z M 34.390625 45.625 C 31.132812 43.992188 27.964844 43.421875 24.691406 43.234375 C 23.035156 43.132812 22.886719 43.238281 22.460938 45.21875 C 26.425781 44.292969 30.140625 46.871094 34.390625 45.625 Z M 60.003906 65.132812 C 60 63.683594 59.148438 62.957031 57.835938 62.683594 C 55.890625 62.277344 53.953125 61.816406 51.988281 61.574219 C 50.390625 61.390625 48.753906 61.5 47.015625 61.480469 C 47.863281 63.304688 49.261719 62.929688 50.476562 63.046875 C 53.714844 63.378906 56.925781 63.796875 60.003906 65.132812 Z M 101.132812 77.148438 C 101.015625 77.023438 100.84375 76.839844 100.652344 76.6875 C 96.890625 73.75 92.585938 71.882812 88.085938 70.414062 C 86.652344 69.953125 85.542969 70.40625 84.664062 71.480469 C 90.546875 72.230469 95.6875 75.175781 101.132812 77.148438 Z M 28.828125 72.386719 C 31.074219 67.519531 28.332031 63.746094 26.296875 59.707031 C 25.035156 60.753906 24.816406 61.585938 25.527344 62.996094 C 27.027344 65.957031 28.632812 68.933594 28.828125 72.386719 Z M 83.164062 136.699219 C 83.707031 135.457031 84.183594 134.453125 84.578125 133.417969 C 84.6875 133.144531 84.691406 132.707031 84.535156 132.472656 C 83.90625 131.558594 83.199219 130.6875 82.503906 129.761719 C 82.234375 130.109375 82.007812 130.417969 81.78125 130.714844 C 81.703125 130.671875 81.613281 130.632812 81.539062 130.59375 C 81.660156 129.960938 81.78125 129.328125 81.910156 128.691406 C 81.851562 128.6875 81.796875 128.679688 81.734375 128.664062 C 81.441406 129.183594 81.148438 129.699219 80.847656 130.210938 C 80.761719 130.164062 80.679688 130.121094 80.597656 130.074219 C 80.84375 129.121094 81.089844 128.175781 81.335938 127.222656 C 80.816406 127.511719 80.609375 127.902344 80.386719 128.277344 C 80.175781 128.625 79.960938 128.964844 79.734375 129.3125 C 80.496094 125.902344 80.496094 125.902344 80.011719 125.292969 C 79.691406 125.914062 79.339844 126.5 79.109375 127.113281 C 78.941406 127.570312 78.699219 128.199219 78.882812 128.5625 C 80.257812 131.292969 81.714844 133.980469 83.164062 136.699219 Z M 64.917969 82.945312 C 65.113281 82.945312 65.316406 82.953125 65.511719 82.953125 C 65.550781 82.578125 65.65625 82.191406 65.613281 81.824219 C 64.933594 76.09375 64.925781 70.421875 66.375 64.753906 C 67.394531 60.765625 67.972656 56.664062 68.667969 52.597656 C 68.753906 52.09375 68.390625 51.511719 68.242188 50.96875 C 68.105469 51 67.976562 51.035156 67.847656 51.074219 C 67.785156 52.195312 67.816406 53.339844 67.652344 54.453125 C 66.640625 61.203125 64.1875 67.734375 64.671875 74.71875 C 64.863281 77.457031 64.835938 80.207031 64.917969 82.945312 Z M 101.808594 55.773438 C 99.277344 55.761719 99.316406 55.832031 96.976562 57.441406 C 93.566406 59.769531 91.542969 63.023438 90.449219 66.996094 C 91.261719 66.5 92.09375 65.984375 92.6875 65.277344 C 94.609375 62.976562 96.347656 60.535156 98.335938 58.304688 C 99.242188 57.300781 100.558594 56.660156 101.808594 55.773438 Z M 86.167969 68.9375 C 88.308594 68.457031 89.382812 67.007812 90.101562 65.070312 C 91.078125 62.417969 92.484375 60.003906 94.765625 58.207031 C 95.433594 57.683594 96.121094 57.191406 97.046875 56.507812 C 92.875 57.230469 90.40625 59.652344 88.746094 62.996094 C 87.78125 64.929688 87.015625 66.949219 86.167969 68.9375 Z M 122.101562 64.015625 C 125.332031 64.941406 128.683594 65.589844 131.777344 66.867188 C 134.910156 68.152344 137.800781 70.054688 140.8125 71.6875 C 140.03125 70.226562 139.3125 68.339844 137.941406 67.515625 C 133.125 64.621094 127.53125 64.597656 122.101562 64.015625 Z M 44.316406 47.875 C 44.410156 47.722656 44.5 47.5625 44.59375 47.410156 C 44.523438 47.300781 44.480469 47.167969 44.394531 47.09375 C 40.902344 44.484375 37.414062 41.890625 33.925781 39.292969 C 32.109375 37.941406 30.25 38.269531 28.199219 39.132812 C 28.496094 39.277344 28.648438 39.371094 28.804688 39.417969 C 32.835938 40.527344 36.304688 42.6875 39.652344 45.121094 C 41.105469 46.175781 42.757812 46.960938 44.316406 47.875 Z M 44.734375 39.691406 C 45.199219 40.25 45.609375 40.796875 46.066406 41.292969 C 49.59375 45.152344 52.714844 49.257812 54.6875 54.164062 C 55.070312 55.128906 55.878906 55.902344 56.492188 56.769531 C 56.695312 56.402344 56.679688 56.132812 56.613281 55.890625 C 55.5 51.816406 53.402344 48.238281 51.0625 44.78125 C 49.488281 42.460938 48.003906 40.054688 44.734375 39.691406 Z M 42.53125 57.707031 C 43.664062 58.855469 44.570312 59.921875 46.359375 59.546875 C 47.976562 59.21875 49.714844 59.308594 51.382812 59.4375 C 53.464844 59.597656 55.542969 59.980469 57.71875 60.292969 C 57.195312 58.878906 56.460938 57.882812 54.957031 57.792969 C 52.335938 57.617188 49.710938 57.386719 47.089844 57.335938 C 45.574219 57.304688 44.058594 57.574219 42.53125 57.707031 Z M 39.558594 38.382812 C 41.410156 40.183594 43.15625 41.699219 44.683594 43.402344 C 46.507812 45.449219 48.285156 47.566406 49.804688 49.839844 C 50.695312 51.167969 51.847656 51.914062 53.328125 52.882812 C 53.125 52.402344 53.078125 52.226562 53 52.074219 C 50.574219 47.554688 47.375 43.613281 43.945312 39.84375 C 42.789062 38.578125 41.253906 38.664062 39.558594 38.382812 Z M 49.816406 41.339844 C 49.789062 41.414062 49.765625 41.484375 49.738281 41.558594 C 51.265625 43.9375 52.925781 46.238281 54.273438 48.710938 C 55.609375 51.160156 56.632812 53.785156 57.660156 56.058594 C 57.5625 53.941406 57.535156 51.488281 57.289062 49.058594 C 57.183594 47.988281 56.921875 46.628906 56.210938 46.007812 C 54.226562 44.28125 51.96875 42.871094 49.816406 41.339844 Z M 48.371094 49.980469 C 48.53125 49.835938 48.679688 49.691406 48.832031 49.539062 C 48.246094 48.761719 47.71875 47.929688 47.066406 47.210938 C 44.925781 44.875 42.78125 42.542969 40.5625 40.269531 C 39.785156 39.484375 38.886719 38.535156 37.882812 38.277344 C 36.441406 37.898438 34.847656 38.082031 33.042969 38.015625 C 37.542969 40.75 41.785156 43.261719 45.152344 46.980469 C 46.140625 48.066406 47.300781 48.980469 48.371094 49.980469 Z M 49.578125 63.613281 C 49.492188 63.785156 49.398438 63.953125 49.3125 64.125 C 53.375 66.363281 57.445312 68.59375 61.605469 70.878906 C 61.359375 69.6875 61.15625 68.570312 60.867188 67.488281 C 60.761719 67.078125 60.527344 66.574219 60.195312 66.375 C 56.921875 64.40625 53.207031 64.160156 49.578125 63.613281 Z M 36.570312 46.664062 C 34.648438 46.742188 32.535156 46.128906 31.105469 47.679688 C 29.261719 49.667969 27.441406 51.746094 26.042969 54.046875 C 24.234375 57.015625 22.953125 60.261719 22.792969 63.902344 C 23.875 61.8125 25.015625 59.828125 25.941406 57.761719 C 27.660156 53.890625 30.140625 50.695312 33.730469 48.398438 C 34.660156 47.808594 35.625 47.242188 36.570312 46.664062 Z M 23.566406 42.613281 C 27.375 42.488281 30.960938 42.972656 34.140625 44.738281 C 35.890625 45.703125 37.648438 45.511719 39.429688 45.828125 C 38.839844 45.3125 38.226562 44.851562 37.554688 44.5 C 34.773438 43.046875 32.042969 41.429688 29.132812 40.238281 C 26.457031 39.132812 25.042969 39.902344 23.566406 42.613281 Z M 54.1875 55.113281 C 54.078125 54.96875 53.816406 54.539062 53.472656 54.207031 C 51.964844 52.785156 50.410156 51.414062 48.101562 51.933594 C 44.75 52.707031 41.402344 53.496094 38.066406 54.316406 C 37.242188 54.519531 36.464844 54.925781 35.664062 55.234375 C 35.703125 55.417969 35.738281 55.59375 35.78125 55.773438 C 36.777344 55.730469 37.769531 55.742188 38.757812 55.617188 C 40.199219 55.4375 41.621094 54.964844 43.054688 54.953125 C 46.796875 54.90625 50.542969 55.042969 54.1875 55.113281 Z M 145.171875 83.648438 C 144.46875 81.636719 143.386719 78.949219 142.625 76.179688 C 142.09375 74.253906 141.292969 72.773438 139.449219 71.890625 C 138.320312 71.332031 137.308594 70.53125 136.195312 69.9375 C 134.144531 68.835938 132.054688 67.804688 129.984375 66.738281 C 129.921875 66.84375 129.847656 66.941406 129.785156 67.046875 C 133.253906 69.074219 135.957031 71.929688 138.433594 74.996094 C 140.894531 78.050781 143.253906 81.179688 145.171875 83.648438 Z M 75.421875 26.523438 C 75.308594 26.570312 75.199219 26.625 75.078125 26.683594 C 74.328125 26.054688 74.425781 24.554688 72.808594 24.378906 C 73.3125 25.445312 73.695312 26.25 74.074219 27.054688 C 73.992188 27.09375 73.921875 27.132812 73.832031 27.179688 C 73.128906 26.234375 72.425781 25.292969 71.714844 24.34375 C 71.628906 24.414062 71.535156 24.496094 71.433594 24.570312 C 71.804688 25.488281 72.164062 26.40625 72.535156 27.320312 C 72.425781 27.363281 72.316406 27.40625 72.199219 27.441406 C 71.570312 26.351562 70.929688 25.265625 70.292969 24.171875 C 70.125 24.238281 69.964844 24.308594 69.796875 24.375 C 70.320312 25.546875 70.84375 26.714844 71.367188 27.882812 C 71.257812 27.925781 71.164062 27.96875 71.054688 28.007812 C 70.546875 27.195312 70.03125 26.390625 69.515625 25.582031 C 69.277344 26.410156 69.046875 27.328125 69.394531 27.882812 C 70.949219 30.347656 71.351562 33.070312 71.546875 35.847656 C 72.484375 35.578125 73.390625 35.308594 74.359375 35.035156 C 73.136719 31.574219 74.25 28.675781 76.496094 25.953125 C 75.714844 25.375 75.90625 23.785156 74.261719 23.988281 C 74.703125 24.9375 75.0625 25.722656 75.421875 26.523438 Z M 22.675781 68.917969 C 20.679688 60.226562 24.539062 53.78125 29.5 47.808594 C 27.582031 48.027344 25.863281 48.964844 24.609375 50.492188 C 21.652344 54.09375 20.867188 58.421875 20.324219 62.867188 C 20.039062 65.261719 21.128906 67.035156 22.675781 68.917969 Z M 94.140625 64.980469 C 100.507812 60.144531 107.546875 56.59375 114.980469 53.699219 C 114.320312 53.625 113.660156 53.59375 113.03125 53.730469 C 111.113281 54.105469 109.226562 54.707031 107.292969 54.945312 C 102.753906 55.539062 99.382812 57.925781 96.691406 61.441406 C 95.804688 62.597656 94.984375 63.800781 94.140625 64.980469 Z M 138.273438 66.742188 C 137.71875 65.59375 137.261719 64.863281 136.980469 64.070312 C 136.511719 62.738281 135.566406 62.175781 134.238281 62.050781 C 131.476562 61.792969 128.738281 61.296875 125.980469 61.277344 C 122.246094 61.242188 118.503906 61.5625 114.769531 61.726562 C 114.761719 61.863281 114.761719 62.011719 114.765625 62.148438 C 118.652344 62.59375 122.554688 62.980469 126.441406 63.484375 C 130.386719 63.992188 134.308594 64.671875 138.273438 66.742188 Z M 120.117188 64.125 C 120.011719 64.28125 119.90625 64.433594 119.804688 64.582031 C 126.484375 69.933594 131.867188 76.398438 136.03125 83.726562 C 137.191406 83.773438 138.222656 83.816406 139.535156 83.871094 C 137.53125 81.128906 135.851562 78.425781 133.765625 76.082031 C 130.878906 72.824219 127.761719 69.761719 124.566406 66.792969 C 123.324219 65.644531 121.617188 65 120.117188 64.125 Z M 135.339844 83.714844 C 133.113281 80.6875 131.144531 77.832031 128.980469 75.136719 C 125.671875 71.03125 122.21875 67.070312 117.527344 64.390625 C 115.769531 63.386719 114.03125 62.652344 112.183594 62.746094 C 114.554688 64.421875 117.132812 66.046875 119.484375 67.949219 C 124.65625 72.125 128.667969 77.300781 131.921875 83.078125 C 132.414062 83.964844 132.914062 84.230469 133.832031 83.960938 C 134.179688 83.851562 134.550781 83.835938 135.339844 83.714844 Z M 27.152344 57.261719 C 28.269531 56.472656 29.382812 55.667969 30.5 54.878906 C 33.601562 52.703125 37.082031 51.453125 40.792969 50.828125 C 42.9375 50.472656 45.113281 50.28125 47.589844 49.976562 C 45.574219 49.117188 43.875 48.28125 42.089844 47.667969 C 40.972656 47.28125 39.625 46.804688 38.578125 47.101562 C 33.203125 48.597656 29.574219 52.261719 27.152344 57.261719 Z M 112.097656 82.535156 C 111.699219 82.058594 111.34375 81.523438 110.886719 81.125 C 108.003906 78.625 105.1875 76.03125 102.15625 73.714844 C 99.175781 71.433594 96.023438 69.359375 92.3125 68.363281 C 90.546875 67.886719 89.636719 68.035156 88.171875 69.320312 C 97.210938 72.554688 99.183594 74.296875 104.964844 79.078125 C 107.113281 80.863281 109.597656 81.605469 112.097656 82.535156 Z M 105.511719 61.667969 C 105.5625 61.855469 105.617188 62.050781 105.671875 62.230469 C 115.386719 60.617188 125.105469 59.425781 135.269531 61.445312 C 134.0625 60.417969 133.164062 59.515625 132.132812 58.808594 C 131.34375 58.269531 130.367188 57.585938 129.496094 57.628906 C 125.097656 57.839844 120.664062 57.980469 116.324219 58.695312 C 112.660156 59.296875 109.113281 60.652344 105.511719 61.667969 Z M 98.792969 62.976562 C 100.976562 63.367188 102.550781 62.28125 104.300781 61.492188 C 109.15625 59.304688 114.257812 57.78125 119.578125 57.179688 C 122.414062 56.863281 125.289062 56.796875 128.160156 56.625 C 126.863281 56.128906 125.566406 55.636719 124.261719 55.152344 C 120.320312 53.679688 116.433594 53.835938 112.628906 55.609375 C 110.128906 56.773438 107.597656 57.902344 105.171875 59.191406 C 102.984375 60.347656 100.910156 61.703125 98.792969 62.976562 Z M 125.851562 65.972656 C 125.816406 66.078125 125.777344 66.164062 125.738281 66.269531 C 127.351562 67.925781 128.914062 69.648438 130.601562 71.234375 C 134.300781 74.707031 137.296875 78.699219 139.648438 83.179688 C 140.101562 84.058594 140.695312 84.527344 141.539062 84.929688 C 143.632812 85.953125 145.664062 87.097656 147.914062 88.300781 C 147.265625 87.652344 146.722656 87.222656 146.320312 86.6875 C 143.871094 83.503906 141.492188 80.265625 139.03125 77.097656 C 136.316406 73.621094 133.457031 70.273438 129.628906 67.945312 C 128.421875 67.207031 127.121094 66.628906 125.851562 65.972656 Z M 122.792969 84.910156 C 122.492188 84.429688 122.304688 84.074219 122.0625 83.785156 C 119.789062 81.085938 117.570312 78.347656 115.230469 75.714844 C 111.644531 71.664062 107.507812 68.261719 102.777344 65.652344 C 99.925781 64.078125 98.394531 64.144531 96.789062 65.242188 C 99.402344 66.746094 102.34375 68.101562 104.910156 69.96875 C 110.160156 73.808594 115.046875 78.074219 118.640625 83.625 C 118.84375 83.933594 119.226562 84.234375 119.582031 84.316406 C 120.582031 84.570312 121.613281 84.699219 122.792969 84.910156 Z M 92.03125 67.28125 C 95.5 68.25 98.316406 69.9375 101.058594 71.8125 C 104.914062 74.4375 108.496094 77.34375 111.59375 80.84375 C 112.359375 81.703125 113.136719 82.6875 114.128906 83.191406 C 115.21875 83.726562 116.566406 83.769531 117.792969 84.03125 C 116.230469 81.71875 114.648438 79.476562 112.683594 77.664062 C 108.542969 73.851562 104.316406 70.0625 99.171875 67.59375 C 96.984375 66.535156 94.675781 65.375 92.03125 67.28125 Z M 127.320312 84.820312 C 124.257812 80.015625 120.664062 75.6875 116.539062 71.792969 C 112.882812 68.328125 108.902344 65.34375 104.035156 63.789062 C 103.375 63.570312 102.597656 63.734375 101.882812 63.722656 C 103.664062 65.058594 105.578125 65.953125 107.207031 67.21875 C 113.125 71.8125 118.402344 77.046875 122.636719 83.269531 C 124.066406 85.371094 124.5625 85.539062 127.320312 84.820312 Z M 131.734375 84.207031 C 131.589844 83.925781 131.5 83.628906 131.324219 83.390625 C 129.246094 80.503906 127.238281 77.554688 125.042969 74.761719 C 121.65625 70.464844 117.449219 67.074219 112.742188 64.335938 C 110.597656 63.097656 108.332031 62.058594 105.71875 63.324219 C 106.292969 63.570312 106.832031 63.773438 107.355469 64.035156 C 111.558594 66.113281 115.296875 68.84375 118.390625 72.351562 C 121.257812 75.59375 124.058594 78.925781 126.605469 82.421875 C 128.566406 85.113281 128.367188 85.246094 131.734375 84.207031 Z M 72.003906 6.339844 C 72.011719 6.214844 72.015625 6.09375 72.019531 5.976562 C 72.621094 5.902344 73.210938 5.828125 73.816406 5.753906 C 73.832031 5.621094 73.847656 5.484375 73.863281 5.351562 C 72.976562 5.171875 72.085938 4.992188 71.03125 4.777344 C 71.363281 4.546875 71.570312 4.402344 71.816406 4.230469 C 68.414062 2.351562 65.242188 3.46875 63.601562 6.84375 C 61.453125 11.277344 63.074219 19.414062 68.988281 22.9375 C 69.921875 23.5 71.148438 23.554688 72.238281 23.84375 C 72.28125 23.722656 72.335938 23.597656 72.378906 23.476562 C 71.167969 22.566406 70.007812 21.625 69.773438 20 C 71.066406 21.25 71.898438 23.089844 74.292969 23.476562 C 73.035156 21.789062 70.996094 21.226562 70.734375 19.019531 C 71.84375 20.136719 72.773438 21.160156 73.796875 22.058594 C 74.644531 22.804688 75.488281 22.765625 76.144531 21.621094 C 74.402344 20.746094 72.789062 19.800781 71.792969 18.09375 C 73.308594 19.105469 74.835938 20.121094 76.414062 21.160156 C 76.738281 20.652344 76.957031 20.324219 77.304688 19.785156 C 75.660156 18.777344 74.089844 17.820312 72.515625 16.859375 C 72.597656 16.71875 72.664062 16.582031 72.742188 16.449219 C 74.304688 17.277344 75.867188 18.121094 77.433594 18.957031 C 77.554688 18.8125 77.675781 18.671875 77.796875 18.53125 C 77.410156 15.917969 74.6875 15.804688 72.90625 14.628906 C 74.898438 14.425781 76.296875 15.691406 77.988281 16.8125 C 78.046875 13.738281 75.175781 14 73.890625 12.671875 C 73.945312 12.546875 74.003906 12.425781 74.058594 12.300781 C 75.289062 12.871094 76.527344 13.449219 77.820312 14.046875 C 77.589844 13.105469 77.992188 11.902344 76.582031 11.410156 C 75.5625 11.042969 74.550781 10.601562 73.535156 10.199219 C 73.570312 10.070312 73.605469 9.941406 73.648438 9.804688 C 74.734375 10.117188 75.816406 10.425781 76.941406 10.746094 C 76.722656 8.328125 74.410156 8.910156 73.195312 7.773438 C 74.011719 7.871094 74.839844 7.960938 76.089844 8.109375 C 75.234375 7.382812 74.777344 6.769531 74.164062 6.527344 C 73.519531 6.273438 72.734375 6.390625 72.003906 6.339844 Z M 85.199219 43.636719 C 85.296875 42.199219 84.917969 41.519531 83.402344 41.355469 C 79.898438 40.992188 77.074219 39.296875 75.003906 36.390625 C 74.816406 36.121094 74.273438 35.867188 73.984375 35.949219 C 70.941406 36.730469 68.535156 38.355469 67.265625 41.355469 C 65.765625 44.882812 66.667969 48.730469 69.5625 51.101562 C 72.835938 53.792969 77.675781 54.058594 81.109375 51.640625 C 80.585938 50.644531 80.054688 49.613281 79.523438 48.597656 C 79.652344 48.519531 79.769531 48.4375 79.894531 48.359375 C 80.554688 49.316406 81.21875 50.273438 81.964844 51.339844 C 83.113281 49.351562 80.921875 48.539062 80.359375 47.210938 C 80.484375 47.121094 80.605469 47.039062 80.730469 46.953125 C 81.535156 47.90625 82.332031 48.855469 83.273438 49.964844 C 84.164062 47.613281 81.710938 46.964844 80.746094 45.394531 C 82.6875 45.777344 83.414062 47.140625 84.207031 48.46875 C 85.214844 47.070312 84.117188 46.417969 83.382812 45.742188 C 82.59375 45.023438 81.695312 44.425781 80.558594 43.554688 C 82.816406 43.714844 83.851562 45.101562 85.007812 46.390625 C 85.503906 44.445312 85.023438 43.988281 80.773438 42.269531 C 82.679688 41.734375 83.804688 42.902344 85.199219 43.636719 Z M 60.90625 82.3125 C 58.824219 81.015625 56.722656 80.316406 54.417969 80.175781 C 51.355469 79.992188 48.863281 81.09375 47.492188 83.808594 C 46.078125 86.589844 46.765625 89.40625 48.25 92.253906 C 48.339844 91.253906 48.417969 90.488281 48.492188 89.714844 C 48.578125 89.726562 48.671875 89.734375 48.757812 89.746094 C 49.117188 91.410156 49.472656 93.078125 49.824219 94.75 C 49.957031 94.726562 50.070312 94.691406 50.195312 94.660156 C 50.011719 93.351562 49.164062 92.015625 50.308594 90.457031 C 50.507812 93.042969 50.785156 95.347656 52.515625 97.132812 C 52.0625 95.480469 51.519531 93.855469 51.945312 92.105469 C 52.695312 94.390625 52.691406 96.984375 54.976562 98.910156 C 54.351562 96.761719 53.332031 94.996094 53.707031 92.972656 C 54.554688 95.214844 54.972656 97.617188 56.671875 99.460938 C 56.039062 97.460938 55.011719 95.554688 55.175781 93.035156 C 56.109375 95.363281 56.855469 97.324219 57.695312 99.253906 C 57.867188 99.644531 58.394531 99.886719 58.757812 100.195312 C 58 98.078125 57.078125 96.226562 57.066406 94.070312 C 57.332031 94.273438 57.445312 94.527344 57.550781 94.792969 C 58.214844 96.375 58.832031 97.980469 59.5625 99.523438 C 59.753906 99.929688 60.292969 100.179688 60.675781 100.507812 C 60.761719 100.40625 60.851562 100.3125 60.941406 100.207031 C 60.464844 99.214844 59.945312 98.230469 59.523438 97.195312 C 59.128906 96.234375 58.859375 95.230469 58.527344 94.25 C 58.652344 94.207031 58.761719 94.164062 58.890625 94.128906 C 59.875 96.167969 60.863281 98.214844 61.871094 100.285156 C 62.53125 100.113281 63.003906 99.992188 63.601562 99.835938 C 62.019531 97.9375 60.773438 95.976562 60.375 93.59375 C 60.753906 93.867188 60.964844 94.242188 61.191406 94.609375 C 62.042969 95.984375 62.898438 97.351562 63.765625 98.726562 C 64.210938 99.4375 64.722656 99.628906 65.347656 98.898438 C 63.007812 96.707031 61.34375 93.769531 61.820312 92.789062 C 62.867188 94.429688 63.917969 96.097656 64.957031 97.742188 C 64.265625 95.707031 63.628906 93.71875 62.90625 91.765625 C 62.761719 91.359375 62.332031 91.042969 61.976562 90.753906 C 61.589844 90.445312 61.140625 90.210938 60.707031 89.941406 C 60.777344 89.816406 60.847656 89.691406 60.910156 89.574219 C 61.558594 89.804688 62.191406 90.039062 62.894531 90.296875 C 63.003906 88.699219 61.023438 89.179688 60.507812 87.746094 C 61.511719 88.089844 62.261719 88.332031 63.1875 88.644531 C 63.027344 86.902344 60.914062 87.46875 60.410156 85.933594 C 61.554688 86.359375 62.460938 86.691406 63.375 87.015625 C 63.433594 86.871094 63.496094 86.714844 63.5625 86.5625 C 62.328125 86.039062 61.101562 85.507812 59.875 84.976562 C 59.9375 84.820312 59.988281 84.667969 60.039062 84.511719 C 61.28125 84.851562 62.519531 85.195312 63.867188 85.570312 C 64.539062 84.597656 63.683594 84.234375 62.929688 84.011719 C 61.613281 83.625 60.257812 83.363281 58.929688 83.050781 C 58.902344 82.96875 58.882812 82.890625 58.863281 82.8125 C 59.464844 82.664062 60.070312 82.519531 60.90625 82.3125 Z M 65.152344 22.300781 C 64.519531 21.761719 64.054688 21.34375 63.5625 20.960938 C 60.828125 18.8125 57.171875 18.429688 54.6875 20.175781 C 53.757812 20.839844 52.988281 21.839844 52.425781 22.84375 C 52.285156 23.082031 53.253906 23.941406 53.707031 24.535156 C 53.734375 24.574219 53.691406 24.683594 53.652344 24.957031 C 53.078125 24.554688 52.566406 24.191406 51.929688 23.746094 C 51.175781 25.847656 53.359375 26.078125 53.742188 27.5 C 53.027344 26.988281 52.3125 26.472656 51.582031 25.949219 C 51.101562 26.988281 51.394531 27.605469 52.3125 28.140625 C 53.253906 28.675781 54.097656 29.382812 54.988281 30.019531 C 54.925781 30.125 54.863281 30.242188 54.796875 30.347656 C 53.722656 29.75 52.644531 29.160156 51.335938 28.4375 C 51.980469 30.691406 54.203125 30.957031 55.195312 32.597656 C 54.183594 32.03125 53.179688 31.46875 52.015625 30.820312 C 52.15625 31.273438 52.164062 31.667969 52.347656 31.828125 C 53.425781 32.671875 54.550781 33.472656 55.660156 34.285156 C 55.640625 34.351562 55.617188 34.417969 55.601562 34.480469 C 54.855469 34.207031 54.105469 33.9375 53.355469 33.664062 C 53.289062 33.757812 53.230469 33.839844 53.164062 33.933594 C 54.195312 34.664062 55.214844 35.398438 56.265625 36.148438 C 56.074219 36.253906 55.878906 36.371094 55.683594 36.484375 C 57.777344 38.429688 60.085938 39.304688 62.203125 38.90625 C 61.132812 38.496094 60.113281 38.105469 59.105469 37.722656 C 59.152344 37.59375 59.199219 37.46875 59.246094 37.339844 C 60.402344 37.640625 61.554688 37.957031 62.726562 38.210938 C 64.449219 38.589844 65.226562 38.367188 65.867188 37.417969 C 62.925781 37.472656 60.824219 36.859375 59.914062 35.59375 C 60.898438 35.90625 61.769531 36.265625 62.671875 36.445312 C 63.59375 36.632812 64.59375 36.835938 65.480469 36.660156 C 66.25 36.507812 67.367188 36.402344 67.597656 35.140625 C 65.140625 35.734375 63.453125 35.570312 62.671875 34.71875 C 66.851562 35.007812 67.929688 34.722656 68.265625 33.136719 C 66.722656 33.734375 65.25 33.753906 63.445312 32.875 C 68.699219 32.511719 68.699219 32.511719 68.371094 30.996094 C 67.132812 31.140625 65.921875 31.8125 64.523438 31.269531 C 65.691406 30.144531 68.070312 31.507812 68.554688 28.957031 C 66.496094 30.03125 65.570312 30.125 65.082031 29.402344 C 67.558594 28.988281 68.160156 28.644531 68.007812 27.679688 C 67.09375 28.308594 66.144531 28.691406 65.066406 28.066406 C 66 27.808594 66.925781 27.554688 67.949219 27.277344 C 67.765625 26.800781 67.625 26.449219 67.503906 26.144531 C 66.652344 26.351562 65.925781 26.53125 65.183594 26.707031 C 65.140625 26.574219 65.109375 26.4375 65.074219 26.292969 C 65.761719 26.035156 66.449219 25.773438 67.101562 25.523438 C 66.867188 23.554688 65.320312 25.398438 64.589844 24.472656 C 65.152344 24.214844 65.644531 23.996094 66.136719 23.765625 C 66.140625 23.671875 66.144531 23.566406 66.15625 23.464844 C 65.402344 23.300781 64.660156 23.136719 63.914062 22.964844 C 63.9375 22.847656 63.960938 22.734375 63.992188 22.613281 C 64.308594 22.527344 64.625 22.441406 65.152344 22.300781 Z M 62.695312 117.875 C 62.753906 117.777344 62.816406 117.671875 62.886719 117.574219 C 63.4375 117.921875 64.007812 118.257812 64.546875 118.621094 C 65 118.921875 65.019531 120.078125 66.140625 119.253906 C 65.175781 118.101562 64.238281 116.984375 63.308594 115.871094 C 63.386719 115.78125 63.464844 115.6875 63.542969 115.597656 C 64.089844 116.0625 64.6875 116.484375 65.179688 117.015625 C 65.714844 117.582031 66.160156 118.242188 66.636719 118.859375 C 66.757812 118.847656 66.878906 118.832031 67.003906 118.816406 C 66.992188 118.472656 67.121094 118.019531 66.953125 117.8125 C 66.140625 116.78125 65.25 115.824219 64.386719 114.839844 C 64.113281 114.523438 63.832031 114.210938 63.378906 113.6875 C 65.042969 114.125 65.042969 114.125 67.800781 117.605469 C 68.722656 117.214844 68.953125 116.601562 68.25 115.84375 C 67.121094 114.636719 65.945312 113.472656 64.785156 112.285156 C 64.539062 112.042969 64.300781 111.800781 64.0625 111.550781 C 66.550781 112.171875 67.84375 114.074219 69.378906 115.789062 C 68.796875 113.378906 67.019531 111.75 65.363281 110.023438 C 67.695312 110.855469 68.90625 112.847656 70.414062 115.003906 C 70.476562 111.464844 67.898438 109.941406 66.242188 107.84375 C 68.394531 109 70.046875 110.644531 71.261719 112.757812 C 70.820312 109.792969 68.46875 108.007812 66.757812 105.839844 C 66.910156 105.722656 67.058594 105.605469 67.207031 105.488281 C 68.8125 107.273438 70.410156 109.066406 71.886719 110.730469 C 71.765625 107.878906 69.015625 106.34375 67.621094 104.011719 C 67.714844 103.933594 67.800781 103.859375 67.894531 103.777344 C 68.894531 104.730469 69.890625 105.679688 70.878906 106.621094 C 70.992188 106.542969 71.09375 106.46875 71.199219 106.390625 C 70.078125 104.941406 68.96875 103.496094 67.855469 102.042969 C 67.910156 101.992188 67.964844 101.953125 68.019531 101.902344 C 68.875 102.628906 69.710938 103.34375 70.828125 104.292969 C 70.035156 102.316406 68.746094 101.207031 67.261719 100.261719 C 67.363281 100.128906 67.464844 99.992188 67.558594 99.855469 C 68.40625 100.441406 69.261719 101.023438 70.3125 101.746094 C 70.234375 101.164062 70.175781 100.769531 70.140625 100.507812 C 69.179688 100.054688 68.332031 99.640625 67.460938 99.265625 C 67.160156 99.132812 66.644531 98.914062 66.496094 99.042969 C 64.808594 100.464844 62.835938 100.976562 60.722656 101.171875 C 60.472656 101.191406 60.222656 101.398438 60.011719 101.574219 C 56.425781 104.5 54.027344 108.132812 53.59375 112.824219 C 53.320312 115.804688 53.929688 118.519531 56.550781 120.449219 C 58.359375 121.78125 61.722656 121.890625 63.382812 120.546875 C 62.910156 120.09375 62.429688 119.648438 61.957031 119.195312 C 62.046875 119.078125 62.132812 118.964844 62.222656 118.84375 C 62.941406 119.324219 63.660156 119.804688 64.410156 120.304688 C 64.421875 120.292969 64.609375 120.132812 64.601562 120.125 C 63.972656 119.367188 63.328125 118.625 62.695312 117.875 Z M 85.113281 35.640625 C 85.734375 36.539062 86.285156 37.402344 86.898438 38.207031 C 88.378906 40.167969 89.140625 40.351562 90.839844 39.25 C 88.289062 38.140625 86.789062 36.605469 86.679688 34.734375 C 87.050781 35.195312 87.242188 35.542969 87.519531 35.769531 C 88.664062 36.710938 89.796875 37.683594 91.019531 38.507812 C 91.734375 38.992188 92.484375 38.847656 92.871094 37.917969 C 89.984375 37.074219 88.261719 35.570312 88.25 34.074219 C 89.003906 34.714844 89.832031 35.472656 90.707031 36.15625 C 92.445312 37.539062 93.917969 37.398438 95.039062 35.792969 C 90.902344 34.53125 89.835938 33.867188 89.824219 32.375 C 91.160156 33.855469 92.730469 34.65625 94.679688 34.761719 C 95.484375 34.796875 95.796875 34.511719 95.972656 33.777344 C 96.660156 30.882812 95.773438 28.445312 93.667969 26.480469 C 89.480469 22.578125 81.800781 22.492188 77.394531 26.4375 C 75.207031 28.386719 74.308594 30.75 74.871094 33.628906 C 75.320312 35.9375 77.773438 39.070312 80.796875 39.566406 C 80.589844 38.933594 80.371094 38.296875 80.148438 37.664062 C 80.285156 37.605469 80.417969 37.550781 80.546875 37.5 C 80.839844 38.078125 81.121094 38.652344 81.40625 39.238281 C 81.867188 40.195312 81.859375 40.203125 82.75 40.050781 C 81.492188 38.132812 81.402344 37.589844 82.25 36.941406 C 82.472656 39.386719 83.78125 40.796875 85.457031 40.414062 C 83.660156 38.621094 83.0625 37.425781 83.394531 36.273438 C 86.363281 40.890625 86.363281 40.890625 88.039062 40.148438 C 85.28125 37.539062 84.871094 36.929688 85.113281 35.640625 Z M 77.347656 99.417969 C 77.21875 99.875 76.964844 100.257812 77.046875 100.546875 C 77.175781 101 77.496094 101.421875 77.792969 101.820312 C 78.71875 103.078125 79.671875 104.332031 80.605469 105.582031 C 78.328125 104.386719 77.21875 102.191406 75.726562 100.304688 C 76.222656 102.898438 78.214844 104.660156 79.53125 106.785156 C 79.398438 106.894531 79.261719 106.984375 79.132812 107.09375 C 77.691406 105.230469 76.253906 103.367188 74.816406 101.515625 C 75.132812 104.738281 77.953125 106.273438 79.855469 108.851562 C 77.3125 107.691406 75.90625 105.800781 74.414062 103.894531 C 74.488281 104.472656 74.574219 105.148438 74.957031 105.472656 C 76.5625 106.855469 78.289062 108.128906 79.949219 109.460938 C 80.140625 109.609375 80.253906 109.867188 80.402344 110.066406 C 80.308594 110.160156 80.222656 110.246094 80.136719 110.332031 C 78.414062 109.15625 76.6875 107.976562 74.953125 106.804688 C 75.136719 107.320312 75.40625 107.792969 75.820312 108.058594 C 78.230469 109.660156 80.671875 111.214844 83.105469 112.789062 C 83.078125 112.910156 83.050781 113.023438 83.015625 113.140625 C 81.492188 112.785156 79.960938 112.421875 78.070312 111.976562 C 80.203125 114.09375 82.523438 113.6875 84.792969 113.515625 C 84.804688 113.648438 84.8125 113.777344 84.824219 113.910156 C 83.78125 114.097656 82.75 114.285156 81.691406 114.476562 C 83.449219 116 85.070312 114.070312 86.828125 114.40625 C 86.097656 114.773438 85.367188 115.144531 84.496094 115.589844 C 86.253906 116.320312 87.167969 115.015625 88.234375 114.167969 C 88.3125 114.25 88.390625 114.328125 88.472656 114.40625 C 88.117188 114.964844 87.765625 115.523438 87.417969 116.074219 C 87.460938 116.167969 87.507812 116.273438 87.546875 116.367188 C 88.558594 115.929688 89.570312 115.492188 90.625 115.03125 C 90.589844 115.257812 90.558594 115.527344 90.523438 115.800781 C 94.554688 115.054688 97.039062 111.765625 96.414062 107.679688 C 95.652344 102.578125 92.242188 99.597656 87.785156 97.636719 C 85.699219 96.714844 83.492188 96.367188 81.109375 96.835938 C 81.621094 97.617188 82.035156 98.238281 82.46875 98.894531 C 81.347656 99.101562 81.050781 96.789062 79.734375 98.277344 C 80.46875 99.285156 81.171875 100.226562 81.871094 101.179688 C 81.761719 101.28125 81.648438 101.367188 81.535156 101.46875 C 80.703125 100.550781 79.867188 99.628906 79.023438 98.691406 C 78.796875 98.886719 78.597656 99.0625 78.320312 99.300781 C 79.0625 100.316406 79.789062 101.316406 80.523438 102.3125 C 80.40625 102.394531 80.285156 102.476562 80.179688 102.558594 C 79.316406 101.597656 78.453125 100.640625 77.347656 99.417969 Z M 70.183594 95.394531 C 70.53125 98.828125 71.117188 99.867188 72.644531 99.6875 C 72.277344 98.222656 70.957031 96.976562 71.488281 94.886719 C 72.050781 96.285156 72.546875 97.300781 72.855469 98.359375 C 73.238281 99.738281 73.960938 100.097656 75.210938 99.425781 C 74.417969 97.9375 73.199219 96.59375 73.472656 94.730469 C 74.28125 96.226562 75.082031 97.734375 75.9375 99.320312 C 76.480469 99.085938 76.917969 98.890625 77.402344 98.679688 C 76.402344 97.152344 75.144531 95.847656 74.851562 94.089844 C 74.953125 94.03125 75.054688 93.96875 75.15625 93.90625 C 76.136719 95.320312 77.121094 96.722656 78.191406 98.261719 C 78.933594 97.730469 79.554688 97.292969 80.25 96.792969 C 78.011719 95.59375 76.511719 93.667969 76.796875 92.585938 C 78.015625 93.820312 79.253906 95.085938 80.488281 96.34375 C 80.996094 95.746094 81.328125 95.355469 81.628906 95 C 80 94.164062 78.660156 93.179688 77.992188 91.53125 C 78.09375 91.410156 78.191406 91.296875 78.292969 91.175781 C 79.578125 92.273438 80.863281 93.367188 82.214844 94.519531 C 82.59375 93.785156 82.839844 93.308594 83.09375 92.828125 C 81.058594 92.378906 79.515625 91.039062 79.710938 89.917969 C 80.863281 90.753906 82.019531 91.582031 83.410156 92.582031 C 83.8125 90.339844 81.316406 90.160156 81.378906 88.421875 C 82.195312 89.058594 83.015625 89.695312 83.875 90.355469 C 84.703125 88.765625 82.5 88.457031 82.640625 87.011719 C 83.242188 87.414062 83.699219 87.714844 84.171875 88.035156 C 84.707031 82.085938 79.378906 77.363281 73.574219 78.605469 C 69.734375 79.425781 66.960938 81.671875 65.199219 85.175781 C 63.859375 87.855469 63.449219 90.609375 64.375 93.667969 C 64.75 92.808594 65.046875 92.128906 65.34375 91.453125 C 65.425781 91.484375 65.507812 91.519531 65.589844 91.550781 C 65.375 92.765625 65.148438 93.980469 64.925781 95.191406 C 65.019531 95.210938 65.105469 95.222656 65.199219 95.242188 C 65.417969 94.46875 65.625 93.691406 65.84375 92.921875 C 65.972656 92.945312 66.09375 92.972656 66.214844 93.003906 C 66.128906 94.425781 65.5 95.914062 66.5625 97.359375 C 66.785156 96.175781 66.976562 95.160156 67.171875 94.140625 C 67.878906 95.636719 66.460938 97.445312 68.320312 98.734375 C 68.382812 97.636719 68.449219 96.640625 68.507812 95.648438 C 69.246094 99.171875 69.246094 99.171875 70.238281 99.304688 C 69.410156 96.085938 69.410156 96.085938 70.183594 95.394531 Z M 80.285156 78.871094 C 85.421875 81.910156 86.980469 89.101562 82.316406 95.820312 C 85.179688 95.84375 87.847656 96.453125 90.261719 97.910156 C 93.550781 99.890625 96.109375 102.5 97.109375 106.347656 C 98.410156 111.394531 95.417969 116.011719 90.277344 116.820312 C 86.460938 117.414062 82.945312 116.5625 79.824219 114.320312 C 78.304688 113.230469 76.945312 111.902344 75.554688 110.714844 C 76.609375 113.648438 77.535156 116.820312 78.867188 119.804688 C 80.734375 123.984375 82.464844 128.257812 85.4375 131.847656 C 85.832031 132.316406 86.253906 132.886719 86.796875 133.128906 C 88.011719 133.660156 88.207031 134.597656 88.035156 135.703125 C 87.914062 136.410156 87.699219 137.121094 87.390625 137.765625 C 86.414062 139.789062 84.136719 140.03125 83.015625 138.09375 C 80.882812 134.414062 78.65625 130.738281 77.027344 126.820312 C 75.195312 122.441406 73.980469 117.785156 72.5 113.25 C 72.421875 113.050781 72.335938 112.851562 72.179688 112.5 C 70.90625 115.421875 69.273438 117.964844 66.753906 119.65625 C 65.0625 120.789062 63.09375 121.746094 61.121094 122.148438 C 57.175781 122.953125 53.515625 120.09375 52.964844 115.992188 C 52.214844 110.488281 54.183594 105.949219 58.230469 102.238281 C 58.621094 101.867188 59.019531 101.5 59.203125 101.324219 C 57.140625 100.363281 54.824219 99.589844 52.835938 98.296875 C 48.957031 95.800781 46.425781 92.207031 46.082031 87.503906 C 45.703125 82.222656 49.84375 78.789062 55.417969 79.472656 C 58.394531 79.835938 60.925781 81.199219 63.269531 82.964844 C 63.6875 83.28125 64.066406 83.644531 64.78125 84.253906 C 64.125 81.316406 63.695312 78.726562 62.957031 76.226562 C 62.269531 73.882812 61.363281 71.566406 58.972656 70.3125 C 57.847656 69.722656 56.753906 69.058594 55.589844 68.570312 C 51.722656 66.9375 48.429688 64.441406 45.433594 61.566406 C 42.632812 58.871094 39.3125 57.15625 35.535156 56.460938 C 33.835938 56.140625 32.035156 56.371094 29.886719 56.355469 C 30.328125 57.0625 30.523438 57.4375 30.78125 57.769531 C 33.066406 60.78125 33.886719 64.007812 31.953125 67.511719 C 29.957031 71.117188 28.613281 74.851562 29.367188 79.074219 C 29.390625 79.191406 29.335938 79.328125 29.289062 79.585938 C 29.03125 79.4375 28.695312 79.359375 28.65625 79.203125 C 27.742188 75.617188 25.210938 73.089844 22.84375 70.472656 C 22.023438 69.550781 21.101562 68.71875 20.238281 67.820312 C 20.128906 67.703125 20.085938 67.496094 20.03125 67.328125 C 19.214844 64.875 18.410156 62.425781 17.605469 59.972656 C 16.929688 57.875 17.527344 55.824219 17.820312 53.753906 C 18.449219 49.289062 20.90625 45.558594 22.921875 41.699219 C 24.59375 38.515625 28.070312 37.835938 31.359375 37.402344 C 38.898438 36.410156 45.773438 38.398438 52.40625 41.957031 C 58.808594 45.390625 61.207031 51.179688 62.453125 57.746094 C 63.09375 61.121094 63.425781 64.558594 64.09375 67.972656 C 64.789062 64.566406 65.574219 61.191406 66.160156 57.765625 C 66.574219 55.371094 66.75 52.933594 66.933594 50.503906 C 66.984375 49.910156 66.722656 49.257812 66.472656 48.6875 C 64.871094 45.027344 65.402344 41.644531 67.929688 38.636719 C 68.859375 37.53125 69.292969 36.460938 68.945312 35.113281 C 68.074219 36.136719 67.316406 37.28125 66.328125 38.140625 C 63.359375 40.714844 60.050781 40.480469 56.964844 38.59375 C 52.046875 35.601562 49.75 30.125 50.773438 24.78125 C 51.445312 21.308594 53.792969 18.894531 57.125 18.328125 C 59.675781 17.890625 62.070312 18.621094 63.964844 20.285156 C 65.695312 21.796875 67.101562 23.667969 68.589844 25.304688 C 68.835938 24.757812 69.703125 24.15625 68.105469 23.253906 C 62.691406 20.179688 60.3125 11.753906 63.074219 6.199219 C 64.800781 2.703125 68.699219 1.414062 72.058594 3.371094 C 77.277344 6.425781 79.007812 11.285156 78.78125 17.0625 C 78.773438 17.242188 78.757812 17.421875 78.738281 17.675781 C 81.480469 18.324219 83.308594 20.078125 84.523438 22.609375 C 87.164062 22.53125 89.769531 22.886719 92.101562 24.238281 C 96.855469 26.988281 99.003906 32.019531 95.441406 37.015625 C 93.433594 39.832031 90.351562 41.03125 86.992188 41.488281 C 86.640625 41.53125 86.265625 41.46875 85.753906 41.460938 C 86.855469 46.410156 85.433594 50.238281 81.203125 52.824219 C 77.695312 54.96875 73.390625 54.769531 69.425781 52.359375 C 69.269531 53.722656 69.207031 55.03125 68.964844 56.292969 C 68.15625 60.433594 67.191406 64.542969 66.457031 68.699219 C 65.714844 72.847656 65.988281 77.03125 66.5625 81.433594 C 69.875 78.355469 73.578125 76.941406 78.035156 77.847656 C 77.308594 75.535156 77.789062 73.515625 78.960938 71.636719 C 80.683594 68.871094 82.113281 65.824219 84.289062 63.460938 C 88.808594 58.535156 94.285156 55.148438 101.265625 54.722656 C 103.933594 54.558594 106.644531 54.195312 109.21875 53.496094 C 115.042969 51.914062 120.609375 52.847656 126.074219 54.871094 C 128.515625 55.773438 130.886719 56.960938 133.101562 58.335938 C 136.054688 60.179688 137.664062 63.195312 139.160156 66.234375 C 139.792969 67.535156 140.546875 68.777344 141.148438 70.085938 C 141.964844 71.902344 142.921875 73.699219 143.40625 75.605469 C 144.65625 80.570312 146.890625 85.011719 149.871094 89.125 C 150.347656 89.773438 150.832031 90.410156 151.316406 91.054688 C 151.230469 91.15625 151.152344 91.246094 151.066406 91.332031 C 149.988281 90.742188 148.898438 90.148438 147.824219 89.539062 C 145.550781 88.25 143.316406 86.859375 140.984375 85.667969 C 138.011719 84.164062 134.867188 84.558594 131.769531 85.253906 C 128.082031 86.085938 124.429688 86.195312 120.667969 85.5625 C 114.480469 84.519531 108.503906 82.941406 103.113281 79.671875 C 99.992188 77.78125 96.742188 76.273438 93.289062 75.097656 C 88.683594 73.523438 84.734375 74.792969 81.105469 77.667969 C 80.742188 77.960938 80.558594 78.464844 80.285156 78.871094 C 79.0625 77.703125 80.363281 77.15625 80.980469 76.679688 C 82.03125 75.847656 83.261719 75.238281 84.527344 74.457031 C 81.582031 73.84375 81.441406 73.90625 80.03125 76.308594 C 79.890625 76.546875 79.785156 76.800781 79.644531 77.023438 C 79.121094 77.890625 79.335938 78.503906 80.285156 78.871094 " fill-opacity="1" fill-rule="evenodd"/></g></g></g></g><g clip-path="url(#bc46eeac41)"><g clip-path="url(#9c3363a407)"><g clip-path="url(#7c00fa9d9a)"><g clip-path="url(#e69610ab0a)"><path fill="#231f20" d="M 80.976562 86.304688 C 79.953125 86.238281 79.066406 86.34375 78.992188 86.144531 C 78.757812 85.511719 78.726562 84.742188 78.847656 84.070312 C 78.863281 83.9375 80.183594 83.738281 80.367188 83.96875 C 80.738281 84.457031 80.734375 85.222656 80.976562 86.304688 " fill-opacity="1" fill-rule="evenodd"/></g></g></g></g><g clip-path="url(#22f1e95eb5)"><g clip-path="url(#3e9e490f4b)"><g clip-path="url(#ee2cb23778)"><g clip-path="url(#283e4c6f6c)"><path fill="#231f20" d="M 91.898438 109.308594 C 92.757812 109.292969 93.238281 109.289062 93.722656 109.285156 C 93.652344 109.972656 93.691406 110.703125 93.441406 111.324219 C 93.347656 111.550781 92.554688 111.488281 92.085938 111.566406 C 92.027344 110.929688 91.984375 110.289062 91.898438 109.308594 " fill-opacity="1" fill-rule="evenodd"/></g></g></g></g><g clip-path="url(#feec05a6ba)"><g clip-path="url(#b4c372c471)"><g clip-path="url(#d86b5da2a2)"><g clip-path="url(#8cd6ed6ca8)"><path fill="#231f20" d="M 92.210938 32.953125 C 92.289062 32.15625 92.234375 31.328125 92.503906 30.613281 C 92.589844 30.378906 93.652344 30.183594 93.976562 30.410156 C 94.738281 30.925781 94.851562 31.84375 94.246094 32.550781 C 93.914062 32.941406 93.230469 33.023438 92.707031 33.25 C 92.539062 33.144531 92.378906 33.042969 92.210938 32.953125 " fill-opacity="1" fill-rule="evenodd"/></g></g></g></g><g clip-path="url(#2aa8099b7a)"><g clip-path="url(#9163117bad)"><g clip-path="url(#68da2ea41e)"><g clip-path="url(#06b03032c7)"><path fill="#231f20" d="M 60.308594 117.496094 C 60.269531 118.445312 60.433594 119.058594 60.195312 119.398438 C 59.535156 120.34375 58.691406 119.734375 58.082031 119.300781 C 57.828125 119.109375 57.789062 118.03125 57.898438 117.992188 C 58.535156 117.75 59.230469 117.691406 60.308594 117.496094 " fill-opacity="1" fill-rule="evenodd"/></g></g></g></g><g clip-path="url(#6ff3052fa3)"><g clip-path="url(#24f0b1a2f9)"><g clip-path="url(#34abec90e9)"><g clip-path="url(#17f2f793e9)"><path fill="#231f20" d="M 57.535156 22.0625 C 56.695312 23.1875 55.980469 23.089844 55.414062 22.546875 C 55.191406 22.347656 55.242188 21.394531 55.367188 21.351562 C 56.074219 21.109375 56.835938 21.039062 57.585938 20.90625 C 57.5625 21.410156 57.535156 21.929688 57.535156 22.0625 " fill-opacity="1" fill-rule="evenodd"/></g></g></g></g><g clip-path="url(#ec095bf6be)"><g clip-path="url(#8780dd8258)"><g clip-path="url(#8ab251d011)"><g clip-path="url(#827cbacef5)"><path fill="#231f20" d="M 50.878906 85.386719 C 50.082031 85.488281 49.578125 85.5625 49.085938 85.621094 C 49.214844 84.996094 49.214844 84.289062 49.519531 83.761719 C 49.71875 83.425781 50.375 83.363281 50.824219 83.179688 C 50.835938 83.839844 50.855469 84.496094 50.878906 85.386719 " fill-opacity="1" fill-rule="evenodd"/></g></g></g></g><g clip-path="url(#5512199bd1)"><g clip-path="url(#f21505468b)"><g clip-path="url(#bf591e1bc2)"><g clip-path="url(#27a35c54c5)"><path fill="#231f20" d="M 74.355469 51.4375 C 74.347656 50.339844 74.144531 49.625 74.378906 49.152344 C 74.769531 48.390625 76.378906 48.402344 77.035156 49.171875 C 77.285156 49.46875 77.292969 50.433594 77.109375 50.535156 C 76.394531 50.917969 75.5625 51.070312 74.355469 51.4375 " fill-opacity="1" fill-rule="evenodd"/></g></g></g></g><g clip-path="url(#14ab1e78d5)"><g clip-path="url(#5e198e9796)"><g clip-path="url(#de5843039d)"><g clip-path="url(#b66acbd7b6)"><path fill="#231f20" d="M 66.101562 4.890625 C 67.136719 4.828125 67.859375 4.785156 68.597656 4.738281 C 68.542969 5.265625 68.644531 6.136719 68.394531 6.257812 C 67.796875 6.542969 67.03125 6.503906 66.335938 6.488281 C 66.253906 6.480469 66.21875 5.6875 66.101562 4.890625 " fill-opacity="1" fill-rule="evenodd"/></g></g></g></g></svg>