<svg xmlns="http://www.w3.org/2000/svg" xmlns:xlink="http://www.w3.org/1999/xlink" width="200" zoomAndPan="magnify" viewBox="0 0 150 149.999998" height="200" preserveAspectRatio="xMidYMid meet" version="1.0"><path fill="#000000" d="M 92.710938 35.730469 C 92.710938 35.730469 92.757812 10.917969 77.507812 8.578125 C 75.863281 8.457031 75.585938 10.253906 76.246094 11.996094 C 76.914062 13.734375 79.882812 25.121094 76.273438 39.328125 C 72.667969 53.535156 74.96875 60 78.117188 61.308594 C 81.339844 62.648438 92.710938 57.488281 92.710938 35.730469 Z M 92.710938 35.730469 " fill-opacity="1" fill-rule="nonzero"/><path fill="#000000" d="M 56.597656 34.347656 C 56.597656 34.347656 56.554688 59.164062 71.804688 61.5 C 73.449219 61.621094 73.726562 59.824219 73.0625 58.085938 C 72.398438 56.34375 69.429688 44.957031 73.035156 30.75 C 76.644531 16.542969 74.34375 10.078125 71.195312 8.769531 C 67.96875 7.429688 56.597656 12.589844 56.597656 34.347656 Z M 56.597656 34.347656 " fill-opacity="1" fill-rule="nonzero"/><path fill="#000000" d="M 34.828125 101.210938 C 34.828125 101.210938 20.15625 121.261719 31.113281 132.085938 C 32.371094 133.144531 33.660156 131.851562 34.144531 130.058594 C 34.636719 128.261719 38.949219 117.3125 50.25 107.929688 C 61.546875 98.546875 63.5 91.96875 61.722656 89.070312 C 59.902344 86.097656 47.660156 83.609375 34.828125 101.210938 Z M 34.828125 101.210938 " fill-opacity="1" fill-rule="nonzero"/><path fill="#000000" d="M 63.226562 123.484375 C 63.226562 123.484375 77.902344 103.4375 66.941406 92.613281 C 65.683594 91.554688 64.398438 92.84375 63.910156 94.640625 C 63.421875 96.4375 59.105469 107.390625 47.808594 116.769531 C 36.511719 126.148438 34.558594 132.730469 36.335938 135.628906 C 38.15625 138.601562 50.394531 141.085938 63.226562 123.484375 Z M 63.226562 123.484375 " fill-opacity="1" fill-rule="nonzero"/><path fill="#000000" d="M 84.457031 122.367188 C 84.457031 122.367188 99.058594 142.46875 112.769531 135.429688 C 114.175781 134.558594 113.339844 132.941406 111.777344 131.925781 C 110.210938 130.90625 101.097656 123.429688 95.632812 109.824219 C 90.167969 96.21875 84.496094 92.335938 81.179688 93.121094 C 77.78125 93.929688 71.625 104.761719 84.457031 122.367188 Z M 84.457031 122.367188 " fill-opacity="1" fill-rule="nonzero"/><path fill="#000000" d="M 114.488281 102.332031 C 114.488281 102.332031 99.886719 82.226562 86.171875 89.269531 C 84.769531 90.136719 85.605469 91.753906 87.167969 92.773438 C 88.734375 93.789062 97.851562 101.265625 103.3125 114.871094 C 108.773438 128.476562 114.449219 132.363281 117.765625 131.574219 C 121.164062 130.765625 127.320312 119.933594 114.488281 102.332031 Z M 114.488281 102.332031 " fill-opacity="1" fill-rule="nonzero"/><path fill="#000000" d="M 40.398438 47.609375 C 40.398438 47.609375 16.730469 39.894531 9.785156 53.628906 C 9.164062 55.148438 10.796875 55.96875 12.660156 55.875 C 14.523438 55.78125 26.308594 56.488281 38.75 64.300781 C 51.195312 72.105469 58.078125 71.925781 60.296875 69.347656 C 62.570312 66.699219 61.160156 54.332031 40.398438 47.609375 Z M 40.398438 47.609375 " fill-opacity="1" fill-rule="nonzero"/><path fill="#000000" d="M 27.917969 81.40625 C 27.917969 81.40625 51.585938 89.121094 58.53125 75.386719 C 59.152344 73.867188 57.523438 73.046875 55.65625 73.140625 C 53.792969 73.234375 42.007812 72.527344 29.5625 64.71875 C 17.121094 56.910156 10.238281 57.089844 8.019531 59.671875 C 5.742188 62.3125 7.15625 74.683594 27.917969 81.40625 Z M 27.917969 81.40625 " fill-opacity="1" fill-rule="nonzero"/><path fill="#000000" d="M 120.695312 81.992188 C 120.695312 81.992188 144.390625 74.371094 141.910156 59.191406 C 141.515625 57.597656 139.710938 57.886719 138.257812 59.058594 C 136.804688 60.226562 126.851562 66.554688 112.179688 67.527344 C 97.507812 68.5 92.046875 72.679688 91.773438 76.0625 C 91.496094 79.539062 99.929688 88.71875 120.695312 81.992188 Z M 120.695312 81.992188 " fill-opacity="1" fill-rule="nonzero"/><path fill="#000000" d="M 110.859375 47.339844 C 110.859375 47.339844 87.164062 54.964844 89.640625 70.144531 C 90.035156 71.738281 91.839844 71.445312 93.292969 70.277344 C 94.746094 69.109375 104.699219 62.777344 119.371094 61.808594 C 134.046875 60.835938 139.503906 56.65625 139.777344 53.269531 C 140.058594 49.796875 131.621094 40.617188 110.859375 47.339844 Z M 110.859375 47.339844 " fill-opacity="1" fill-rule="nonzero"/></svg>