<svg xmlns="http://www.w3.org/2000/svg" xmlns:xlink="http://www.w3.org/1999/xlink" width="50" zoomAndPan="magnify" viewBox="0 0 37.5 37.499999" height="50" preserveAspectRatio="xMidYMid meet" version="1.0"><defs><clipPath id="777e80705a"><path d="M 2.851562 7.65625 L 33.9375 7.65625 L 33.9375 29.476562 L 2.851562 29.476562 Z M 2.851562 7.65625 " clip-rule="nonzero"/></clipPath></defs><g clip-path="url(#777e80705a)"><path fill="#040606" d="M 29.273438 14.609375 C 26.675781 11.976562 23.15625 10.28125 19.25 10.058594 L 19.25 9.449219 L 21.640625 9.449219 L 21.640625 7.660156 L 15.09375 7.660156 L 15.09375 9.449219 L 17.484375 9.449219 L 17.484375 10.058594 C 13.574219 10.28125 10.054688 11.976562 7.460938 14.609375 C 4.667969 17.433594 2.941406 21.34375 2.941406 25.65625 L 2.941406 26.550781 L 33.789062 26.550781 L 33.789062 25.65625 C 33.789062 21.34375 32.0625 17.4375 29.273438 14.609375 Z M 33.9375 27.6875 L 2.851562 27.6875 L 2.851562 29.476562 L 33.9375 29.476562 Z M 15.472656 14.652344 C 11.722656 15.699219 8.738281 18.636719 7.597656 22.398438 L 7.367188 23.148438 L 5.882812 22.6875 L 6.109375 21.9375 C 7.410156 17.660156 10.800781 14.324219 15.054688 13.136719 L 15.804688 12.925781 L 16.21875 14.445312 L 15.472656 14.652344 " fill-opacity="1" fill-rule="nonzero"/></g></svg>