<svg xmlns="http://www.w3.org/2000/svg" xmlns:xlink="http://www.w3.org/1999/xlink" width="150" zoomAndPan="magnify" viewBox="0 0 112.5 112.499997" height="150" preserveAspectRatio="xMidYMid meet" version="1.0"><path fill="#f4c382" d="M 97.613281 79.039062 L 97.578125 78.894531 C 96.613281 75.3125 93.949219 71.726562 90.144531 68.222656 C 98.46875 71.519531 110.972656 78.4375 110.972656 78.4375 C 110.972656 78.4375 109.875 47.285156 101.910156 42.367188 L 101.78125 42.285156 C 98.566406 40.4375 94.148438 39.78125 88.972656 39.96875 C 97.195312 36.410156 110.925781 32.4375 110.925781 32.4375 C 110.925781 32.4375 88.121094 11.179688 79.015625 13.320312 C 78.964844 13.328125 78.917969 13.339844 78.871094 13.355469 C 75.289062 14.316406 71.703125 16.980469 68.199219 20.785156 C 71.484375 12.53125 78.402344 0.0273438 78.402344 0.0273438 C 78.402344 0.0273438 47.25 1.125 42.332031 9.089844 L 42.25 9.21875 C 40.402344 12.433594 39.746094 16.828125 39.972656 22.042969 C 36.40625 13.804688 32.441406 0.0703125 32.441406 0.0703125 C 32.441406 0.0703125 11.1875 22.878906 13.324219 31.984375 C 13.332031 32.035156 13.34375 32.085938 13.359375 32.136719 C 14.355469 35.710938 17.019531 39.300781 20.855469 42.808594 C 12.503906 39.511719 0 32.59375 0 32.59375 C 0 32.59375 1.09375 63.753906 9.0625 68.664062 L 9.1875 68.742188 C 12.402344 70.589844 16.816406 71.246094 21.992188 71.0625 C 13.777344 74.589844 0.046875 78.535156 0.046875 78.535156 C 0.046875 78.535156 22.847656 99.789062 31.957031 97.652344 L 32.105469 97.617188 C 35.679688 96.65625 39.265625 93.992188 42.777344 90.183594 C 39.480469 98.515625 32.5625 110.996094 32.5625 110.996094 C 32.5625 110.996094 63.714844 109.894531 68.632812 101.933594 C 68.632812 101.886719 68.691406 101.847656 68.714844 101.800781 C 70.5625 98.589844 71.21875 94.171875 71.03125 88.996094 C 74.589844 97.21875 78.535156 110.949219 78.535156 110.949219 C 78.535156 110.949219 99.789062 88.144531 97.652344 79.039062 Z M 97.613281 79.039062 " fill-opacity="1" fill-rule="nonzero"/></svg>