<svg xmlns="http://www.w3.org/2000/svg" xmlns:xlink="http://www.w3.org/1999/xlink" width="150" zoomAndPan="magnify" viewBox="0 0 112.5 74.999997" height="100" preserveAspectRatio="xMidYMid meet" version="1.0"><defs><clipPath id="c6662f4f05"><path d="M 4.648438 0.164062 L 103.648438 0.164062 L 103.648438 73.386719 L 4.648438 73.386719 Z M 4.648438 0.164062 " clip-rule="nonzero"/></clipPath></defs><g clip-path="url(#c6662f4f05)"><path fill="#000000" d="M 76.523438 1.5 L 102.894531 34.570312 C 102.957031 34.652344 102.976562 34.753906 103.03125 34.839844 C 103.15625 35.023438 103.242188 35.214844 103.328125 35.414062 C 103.410156 35.613281 103.472656 35.804688 103.515625 36.007812 C 103.558594 36.226562 103.566406 36.433594 103.566406 36.65625 C 103.566406 36.851562 103.558594 37.039062 103.519531 37.234375 C 103.476562 37.457031 103.40625 37.667969 103.320312 37.882812 C 103.242188 38.074219 103.15625 38.25 103.039062 38.425781 C 102.980469 38.515625 102.964844 38.621094 102.894531 38.707031 L 76.523438 71.777344 C 75.382812 73.199219 73.3125 73.433594 71.890625 72.292969 C 71.082031 71.640625 70.65625 70.679688 70.65625 69.707031 C 70.65625 68.988281 70.890625 68.253906 71.375 67.644531 L 93.460938 39.945312 L 8.027344 39.925781 C 6.203125 39.925781 4.730469 38.441406 4.730469 36.617188 C 4.730469 34.789062 6.207031 33.308594 8.027344 33.308594 L 93.460938 33.332031 L 71.378906 5.632812 C 70.894531 5.015625 70.660156 4.292969 70.660156 3.5625 C 70.660156 2.59375 71.085938 1.632812 71.894531 0.976562 C 73.3125 -0.15625 75.386719 0.0703125 76.523438 1.5 Z M 76.523438 1.5 " fill-opacity="1" fill-rule="nonzero"/></g></svg>