<svg xmlns="http://www.w3.org/2000/svg" xmlns:xlink="http://www.w3.org/1999/xlink" width="500" zoomAndPan="magnify" viewBox="0 0 375 374.999991" height="500" preserveAspectRatio="xMidYMid meet" version="1.0"><defs><clipPath id="301f66e0bd"><path d="M 112.5 154 L 262 154 L 262 221.316406 L 112.5 221.316406 Z M 112.5 154 " clip-rule="nonzero"/></clipPath></defs><g clip-path="url(#301f66e0bd)"><path fill="#000000" d="M 230.507812 220.289062 L 261.171875 189.5625 C 262.265625 188.460938 262.265625 186.742188 261.171875 185.644531 L 230.507812 154.917969 C 229.410156 153.816406 227.695312 153.816406 226.597656 154.917969 C 225.5 156.019531 225.5 157.734375 226.597656 158.835938 L 252.597656 184.886719 L 115.476562 184.886719 C 113.96875 184.886719 112.734375 186.125 112.734375 187.636719 C 112.734375 189.148438 113.96875 190.386719 115.476562 190.386719 L 252.597656 190.386719 L 226.597656 216.367188 C 226.050781 216.917969 225.777344 217.605469 225.777344 218.292969 C 225.777344 218.980469 226.050781 219.667969 226.597656 220.21875 C 227.695312 221.316406 229.410156 221.316406 230.507812 220.289062 Z M 230.507812 220.289062 " fill-opacity="1" fill-rule="nonzero"/></g></svg>