<svg xmlns="http://www.w3.org/2000/svg" xmlns:xlink="http://www.w3.org/1999/xlink" width="2000" zoomAndPan="magnify" viewBox="0 0 1500 675.000002" height="900" preserveAspectRatio="xMidYMid meet" version="1.0"><defs><clipPath id="945a010774"><path d="M 1.109375 124 L 722.410156 124 L 722.410156 674 L 1.109375 674 Z M 1.109375 124 " clip-rule="nonzero"/></clipPath></defs><g clip-path="url(#945a010774)"><path fill="#6d0022" d="M 722.507812 798.917969 L -687.003906 798.917969 C -610.480469 727.019531 -539.085938 649.46875 -462.066406 578.199219 C -387.429688 509.078125 -342.75 394.242188 -258.722656 338.96875 C -236.796875 324.558594 -211.433594 316.359375 -188.449219 303.699219 C -111.003906 260.957031 -67.617188 171.441406 10.691406 130.351562 C 18.199219 126.417969 26.664062 122.878906 34.933594 124.730469 C 41.976562 126.320312 47.5625 131.574219 52.589844 136.765625 C 159.734375 247.171875 263.738281 370.242188 356.695312 494.335938 C 362.613281 502.234375 368.898438 510.46875 377.859375 514.597656 C 385.761719 518.269531 394.824219 518.234375 403.421875 519.757812 C 470.71875 531.589844 519.363281 633.832031 571.679688 674.0625 C 625.21875 715.25 676.308594 753.5625 722.507812 798.917969 Z M 722.507812 798.917969 " fill-opacity="1" fill-rule="nonzero"/></g></svg>