<svg xmlns="http://www.w3.org/2000/svg" xmlns:xlink="http://www.w3.org/1999/xlink" width="2000" zoomAndPan="magnify" viewBox="0 0 1500 675.000002" height="900" preserveAspectRatio="xMidYMid meet" version="1.0"><defs><clipPath id="cce5c80542"><path d="M 1.109375 68 L 1498.890625 68 L 1498.890625 352.726562 L 1.109375 352.726562 Z M 1.109375 68 " clip-rule="nonzero"/></clipPath></defs><g clip-path="url(#cce5c80542)"><path fill="#ea984e" d="M -16.75 303.753906 L -6.734375 297.09375 C -3.378906 294.910156 -0.109375 292.570312 3.347656 290.566406 C 10.476562 286.542969 18.101562 284.042969 26.230469 283.070312 C 30.257812 282.605469 34.289062 282.523438 38.332031 282.820312 C 42.367188 283.042969 46.320312 283.214844 50.324219 283.285156 C 58.292969 283.558594 66.226562 283.148438 74.121094 282.054688 C 76.046875 281.742188 77.941406 281.292969 79.800781 280.703125 C 80.695312 280.433594 81.550781 280.074219 82.371094 279.625 C 83.210938 279.183594 84.035156 278.667969 84.84375 278.136719 C 88.109375 275.890625 91.253906 273.480469 94.273438 270.914062 C 100.394531 265.804688 106.375 260.457031 112.425781 255.207031 C 124.527344 244.699219 136.890625 234.292969 150.421875 225.347656 C 157.214844 220.742188 164.421875 216.90625 172.035156 213.839844 C 173.972656 213.105469 175.949219 212.453125 177.964844 211.898438 C 180.003906 211.351562 182.074219 210.9375 184.167969 210.648438 C 188.539062 210.027344 192.851562 210.332031 197.09375 211.554688 L 202.832031 213.339844 C 204.707031 213.972656 206.625 214.40625 208.53125 214.941406 C 209.480469 215.191406 210.425781 215.484375 211.382812 215.683594 L 214.257812 216.300781 L 217.144531 216.925781 C 218.152344 217.117188 219.070312 217.226562 220.039062 217.386719 C 227.765625 218.699219 235.535156 219.003906 243.34375 218.292969 C 245.289062 218.164062 247.222656 217.929688 249.140625 217.589844 C 251.078125 217.359375 253 217.023438 254.898438 216.582031 L 260.609375 215.292969 L 266.226562 213.570312 C 267.152344 213.277344 268.101562 213.015625 269.027344 212.703125 L 271.769531 211.695312 L 277.269531 209.601562 L 282.644531 207.152344 C 284.417969 206.304688 286.253906 205.582031 287.96875 204.605469 C 302.035156 197.449219 315.277344 188.617188 328.023438 179.136719 L 327.105469 180.144531 C 327.367188 179.710938 327.550781 179.4375 327.769531 179.136719 C 327.992188 178.832031 328.203125 178.53125 328.417969 178.230469 C 328.859375 177.644531 329.304688 177.070312 329.777344 176.515625 C 330.707031 175.410156 331.695312 174.359375 332.742188 173.363281 C 334.859375 171.34375 337.1875 169.601562 339.722656 168.136719 C 342.300781 166.632812 345.042969 165.523438 347.945312 164.816406 C 350.847656 164.109375 353.789062 163.828125 356.773438 163.972656 C 362.632812 164.335938 368.152344 165.882812 373.34375 168.617188 C 378.296875 171.179688 382.875 174.289062 387.078125 177.945312 C 387.601562 178.390625 388.148438 178.824219 388.652344 179.277344 L 390.15625 180.65625 C 391.164062 181.59375 392.171875 182.492188 393.128906 183.457031 C 395.015625 185.402344 396.953125 187.304688 398.714844 189.351562 L 401.398438 192.375 L 403.960938 195.488281 C 405.707031 197.621094 407.308594 199.515625 408.953125 201.46875 L 410.183594 202.929688 L 411.492188 204.320312 L 414.105469 207.09375 C 414.964844 208.027344 415.929688 208.855469 416.839844 209.730469 C 417.746094 210.609375 418.652344 211.503906 419.632812 212.320312 C 421.589844 213.921875 423.453125 215.644531 425.523438 217.105469 L 428.546875 219.363281 L 431.714844 221.457031 C 432.25 221.800781 432.722656 222.164062 433.308594 222.464844 L 434.941406 223.472656 C 436.039062 224.097656 437.117188 224.761719 438.226562 225.375 C 440.488281 226.535156 442.695312 227.765625 445.035156 228.773438 C 449.703125 230.890625 454.484375 232.714844 459.375 234.242188 C 469.105469 237.464844 479.230469 239.691406 489.527344 241.957031 C 499.824219 244.226562 510.351562 246.480469 520.621094 250.835938 C 525.878906 253.019531 530.753906 255.863281 535.242188 259.367188 C 539.785156 262.980469 543.628906 267.230469 546.769531 272.109375 L 545.296875 270.671875 L 638.238281 326.824219 L 633.195312 326.824219 L 714.878906 277.378906 C 715.5625 276.964844 716.304688 276.734375 717.101562 276.679688 C 717.898438 276.625 718.664062 276.757812 719.398438 277.078125 L 737.550781 285.136719 L 731.941406 286.265625 C 738.449219 279.457031 745.054688 273.027344 751.808594 266.640625 C 758.566406 260.253906 765.445312 254.058594 772.441406 247.964844 C 779.441406 241.867188 786.5625 235.945312 793.851562 230.160156 C 801.144531 224.378906 808.503906 218.726562 816.039062 213.339844 C 831.167969 202.390625 846.96875 192.507812 863.4375 183.699219 C 865.453125 182.570312 867.589844 181.542969 869.6875 180.496094 C 871.785156 179.449219 873.855469 178.371094 876.011719 177.472656 L 882.40625 174.542969 L 888.921875 171.832031 C 897.695312 168.289062 906.671875 165.355469 915.847656 163.027344 C 916.476562 162.867188 917.109375 162.835938 917.753906 162.933594 C 918.394531 163.027344 918.992188 163.246094 919.546875 163.582031 L 960.894531 188.765625 L 956.113281 188.605469 C 970.132812 181.261719 984.121094 173.554688 997.957031 165.71875 C 1011.792969 157.878906 1025.546875 149.851562 1039.179688 141.628906 C 1052.816406 133.410156 1066.308594 124.976562 1079.652344 116.332031 L 1089.644531 109.816406 L 1099.539062 103.15625 L 1104.488281 99.832031 L 1109.378906 96.425781 L 1119.164062 89.617188 L 1119.222656 89.617188 C 1120.226562 88.917969 1121.328125 88.683594 1122.53125 88.910156 L 1165.894531 97.101562 L 1162.433594 97.96875 L 1198.929688 68.914062 C 1199.324219 68.597656 1199.765625 68.367188 1200.246094 68.21875 C 1200.726562 68.066406 1201.21875 68.011719 1201.722656 68.042969 C 1202.226562 68.078125 1202.703125 68.203125 1203.160156 68.417969 C 1203.617188 68.632812 1204.019531 68.921875 1204.367188 69.285156 L 1228.4375 94.59375 L 1227.863281 94.097656 C 1243.816406 105.511719 1259.308594 117.332031 1274.699219 129.359375 C 1282.390625 135.402344 1289.984375 141.5 1297.589844 147.625 L 1308.882812 156.921875 C 1312.664062 160.015625 1316.355469 163.207031 1320.097656 166.339844 C 1349.929688 191.527344 1378.832031 217.8125 1406.34375 245.523438 L 1411.496094 250.714844 L 1414.066406 253.3125 L 1416.589844 255.972656 L 1426.671875 266.609375 L 1436.757812 277.167969 L 1439.269531 279.796875 L 1441.859375 282.335938 L 1447.0625 287.375 C 1454.121094 293.921875 1461.402344 300.390625 1469.128906 306.222656 C 1476.78125 312.171875 1484.757812 317.660156 1493.050781 322.683594 C 1509.6875 332.867188 1527.398438 340.589844 1546.183594 345.855469 C 1555.5625 348.46875 1565.09375 350.277344 1574.773438 351.285156 C 1579.617188 351.792969 1584.46875 352.054688 1589.335938 352.070312 C 1594.214844 352.101562 1599.0625 351.765625 1603.890625 351.0625 C 1599.074219 351.886719 1594.222656 352.339844 1589.335938 352.421875 C 1584.453125 352.539062 1579.574219 352.40625 1574.703125 352.019531 C 1564.9375 351.253906 1555.300781 349.671875 1545.800781 347.273438 C 1526.710938 342.375 1508.664062 334.945312 1491.65625 324.992188 C 1474.667969 315.070312 1458.929688 303.449219 1444.453125 290.132812 L 1439.105469 285.097656 L 1436.425781 282.578125 L 1433.84375 279.96875 L 1423.566406 269.53125 L 1413.371094 259.117188 L 1410.820312 256.515625 L 1408.207031 253.96875 L 1402.984375 248.929688 C 1375.171875 221.730469 1346.066406 195.949219 1316.003906 171.289062 C 1301.011719 158.917969 1285.796875 146.828125 1270.359375 135.019531 C 1254.921875 123.195312 1239.289062 111.539062 1223.457031 100.425781 C 1223.257812 100.289062 1223.070312 100.136719 1222.902344 99.960938 L 1198.546875 74.867188 L 1204.015625 75.21875 L 1167.851562 104.605469 C 1167.375 104.992188 1166.835938 105.265625 1166.242188 105.417969 C 1165.648438 105.570312 1165.046875 105.59375 1164.441406 105.484375 L 1121.078125 97.554688 L 1124.445312 96.808594 L 1114.625 103.738281 L 1109.703125 107.195312 L 1104.660156 110.570312 L 1094.726562 117.378906 L 1084.703125 124 C 1071.324219 132.769531 1057.808594 141.308594 1044.152344 149.617188 C 1030.5 157.925781 1016.714844 166.082031 1002.804688 174.089844 C 988.890625 182.015625 974.921875 189.742188 960.671875 197.257812 C 959.925781 197.652344 959.128906 197.839844 958.285156 197.8125 C 957.4375 197.789062 956.65625 197.554688 955.933594 197.117188 L 914.585938 171.933594 L 918.316406 172.507812 C 909.609375 174.742188 901.089844 177.550781 892.761719 180.929688 L 886.519531 183.539062 L 880.367188 186.378906 C 878.351562 187.285156 876.335938 188.394531 874.316406 189.402344 C 872.300781 190.410156 870.285156 191.417969 868.265625 192.515625 C 852.214844 201.144531 836.816406 210.820312 822.078125 221.539062 C 807.253906 232.175781 792.953125 243.589844 779.117188 255.539062 C 772.214844 261.523438 765.425781 267.644531 758.746094 273.90625 C 752.113281 280.148438 745.496094 286.566406 739.265625 293.046875 C 738.910156 293.429688 738.503906 293.75 738.046875 294.007812 C 737.589844 294.265625 737.105469 294.445312 736.589844 294.546875 C 736.078125 294.648438 735.558594 294.667969 735.039062 294.605469 C 734.519531 294.546875 734.023438 294.402344 733.546875 294.183594 L 715.394531 286.125 L 719.941406 285.84375 L 638.257812 335.125 C 637.878906 335.359375 637.472656 335.535156 637.046875 335.65625 C 636.617188 335.78125 636.179688 335.839844 635.734375 335.839844 C 635.289062 335.839844 634.855469 335.78125 634.425781 335.65625 C 633.996094 335.535156 633.59375 335.359375 633.214844 335.125 L 540.597656 278.449219 C 539.996094 278.078125 539.507812 277.597656 539.125 277.007812 C 536.550781 272.949219 533.390625 269.414062 529.644531 266.398438 C 525.800781 263.378906 521.625 260.921875 517.121094 259.023438 C 508.042969 255.074219 497.859375 252.808594 487.632812 250.460938 C 477.40625 248.113281 466.917969 245.808594 456.691406 242.320312 C 455.414062 241.898438 454.132812 241.457031 452.871094 240.972656 C 451.609375 240.488281 450.328125 240.035156 449.070312 239.53125 C 446.566406 238.472656 444.027344 237.464844 441.605469 236.257812 C 439.1875 235.046875 436.746094 233.796875 434.335938 232.53125 C 433.144531 231.855469 431.984375 231.128906 430.804688 230.433594 L 429.050781 229.425781 C 428.476562 229.0625 427.921875 228.660156 427.355469 228.289062 L 423.949219 225.921875 L 420.679688 223.453125 C 418.460938 221.851562 416.476562 219.976562 414.378906 218.234375 C 413.371094 217.335938 412.359375 216.359375 411.414062 215.421875 C 410.464844 214.488281 409.394531 213.570312 408.5 212.5625 L 405.734375 209.539062 L 404.355469 208.050781 L 403.0625 206.476562 L 398.019531 200.292969 L 395.589844 197.269531 L 393.070312 194.367188 C 391.414062 192.402344 389.601562 190.609375 387.84375 188.765625 C 386.96875 187.839844 386.011719 187.015625 385.101562 186.128906 L 383.710938 184.878906 C 383.246094 184.457031 382.703125 184.0625 382.269531 183.648438 C 378.542969 180.328125 374.476562 177.492188 370.066406 175.144531 C 365.835938 172.839844 361.316406 171.496094 356.511719 171.117188 C 354.210938 171 351.933594 171.191406 349.683594 171.691406 C 347.441406 172.242188 345.308594 173.082031 343.292969 174.210938 C 341.238281 175.371094 339.351562 176.757812 337.632812 178.371094 C 336.761719 179.175781 335.941406 180.03125 335.171875 180.9375 C 334.78125 181.382812 334.417969 181.847656 334.0625 182.308594 C 333.894531 182.539062 333.710938 182.773438 333.550781 183.003906 C 333.386719 183.234375 333.21875 183.496094 333.136719 183.617188 L 333.054688 183.738281 C 332.835938 184.089844 332.554688 184.386719 332.21875 184.625 C 319.109375 194.117188 305.472656 202.972656 290.871094 210.175781 C 289.085938 211.183594 287.171875 211.878906 285.316406 212.734375 L 279.707031 215.191406 L 273.941406 217.308594 L 271.054688 218.316406 C 270.046875 218.636719 269.089844 218.898438 268.101562 219.191406 L 262.191406 220.914062 L 256.140625 222.191406 C 254.125 222.640625 252.089844 222.976562 250.039062 223.199219 C 248 223.53125 245.949219 223.746094 243.886719 223.855469 C 235.613281 224.507812 227.394531 224.097656 219.230469 222.617188 C 218.222656 222.445312 217.214844 222.304688 216.207031 222.09375 L 213.179688 221.40625 L 210.15625 220.722656 C 209.144531 220.492188 208.1875 220.179688 207.199219 219.90625 C 205.253906 219.332031 203.257812 218.847656 201.339844 218.171875 L 195.621094 216.289062 C 192.0625 215.207031 188.433594 214.902344 184.742188 215.371094 C 182.855469 215.589844 180.988281 215.925781 179.144531 216.378906 C 177.289062 216.855469 175.441406 217.386719 173.617188 218.082031 C 166.25 220.910156 159.265625 224.480469 152.660156 228.792969 C 139.269531 237.316406 126.84375 247.429688 114.5625 257.695312 C 108.421875 262.832031 102.320312 268.03125 96.035156 273.078125 C 92.890625 275.644531 89.617188 278.039062 86.222656 280.269531 C 85.347656 280.816406 84.460938 281.339844 83.511719 281.824219 C 82.542969 282.320312 81.535156 282.714844 80.488281 283 C 78.5 283.585938 76.484375 284.019531 74.4375 284.3125 C 66.390625 285.257812 58.320312 285.507812 50.234375 285.066406 C 46.199219 284.90625 42.1875 284.660156 38.203125 284.332031 C 34.238281 283.9375 30.269531 283.917969 26.300781 284.28125 C 18.269531 285.035156 10.699219 287.308594 3.582031 291.101562 C 0.0703125 292.996094 -3.257812 295.25 -6.664062 297.355469 Z M -16.75 303.753906 " fill-opacity="1" fill-rule="nonzero"/></g></svg>